<svg width="108" height="80" fill="none" xmlns="http://www.w3.org/2000/svg"><g clip-path="url(#clip0_3314_6877)"><path d="M28.962 2.76H56.79c2.05 0 3.711 1.704 3.711 3.806v67.383c0 2.103-1.662 3.807-3.711 3.807H28.962c-2.05 0-3.712-1.704-3.712-3.806V6.566c0-2.102 1.662-3.806 3.712-3.806z" fill="#C9CBD1"/><path d="M30.04 4.134h25.862c1.906 0 3.45 1.459 3.45 3.259v57.68c0 1.8-1.544 3.26-3.45 3.26H30.041c-1.906 0-3.45-1.46-3.45-3.26V7.394c0-1.8 1.544-3.259 3.45-3.259z" fill="#fff"/><path d="M42.887 74.766c1.252 0 2.266-1.04 2.266-2.323 0-1.282-1.014-2.322-2.266-2.322s-2.267 1.04-2.267 2.322c0 1.283 1.015 2.323 2.267 2.323z" fill="#E4E4E4"/><path d="M77.662 71.203l1.891 4.678 2.587 3.288a.505.505 0 01-.121.739.524.524 0 01-.475.05c-1.01-.392-4.715-1.83-4.834-2.179-.138-.404-2.326-4.808-2.326-4.808l3.278-1.769z" fill="#405B65"/><path opacity=".6" d="M82.01 79.908l-5.444-2.44.085.196c.074.17.207.31.371.392.449.226 1.696.819 4.497 1.909a.531.531 0 00.49-.057zm-5.125-4.328a.313.313 0 01.24.342.299.299 0 01-.34.236.334.334 0 01-.253-.365.31.31 0 01.383-.197" fill="#fff"/><path d="M80.063 78.32c.052-.193.138-.372.257-.529.145-.137.312-.247.496-.322 0-.012-.077-.023-.192 0a.786.786 0 00-.383.244.765.765 0 00-.192.412c-.017.124 0 .196.014.194zm.601.484c.031.012.117-.196.33-.369.14-.088.284-.17.433-.243a.578.578 0 00-.504.159c-.241.192-.287.451-.259.453zm-1.567-1.034c.14-.214.297-.415.47-.603.197-.163.408-.312.626-.444a1.156 1.156 0 00-.705.363c-.33.32-.414.684-.39.684zm-.695-1.375c.025.024.237-.196.575-.34.337-.143.636-.176.632-.21a1.027 1.027 0 00-.68.11c-.362.17-.552.44-.527.44zm-.59-1.352c.174-.152.368-.275.574-.37.225-.062.456-.098.69-.1 0-.011-.073-.049-.207-.066a1.12 1.12 0 00-.956.351c-.082.1-.113.177-.101.184zm.463-.625a.423.423 0 00-.069-.178 1.405 1.405 0 00-.339-.393.596.596 0 00-.347-.161.207.207 0 00-.191.13.334.334 0 00.015.24.76.76 0 00.864.378.837.837 0 00.6-.722.298.298 0 00-.084-.23.207.207 0 00-.242-.018.705.705 0 00-.241.285 1.46 1.46 0 00-.165.489.426.426 0 000 .196c.046-.224.125-.44.236-.64a.656.656 0 01.216-.243.107.107 0 01.132.01.2.2 0 01.046.152.745.745 0 01-.526.62.652.652 0 01-.738-.31.25.25 0 01-.02-.166.112.112 0 01.11-.075c.11.014.21.06.295.132.178.14.33.31.448.504z" fill="#263238"/><path d="M71.742 72.861l-1.017 3.581s3.368 2.22 3.245 2.898l-7.148-1.688 1.353-5.643 3.567.852z" fill="#405B65"/><path opacity=".6" d="M68.589 75.61a.299.299 0 00-.282.28.282.282 0 00.278.276.314.314 0 00.299-.297.3.3 0 00-.324-.255m-1.738 2.04l.136-.57 6.817 1.836s.285.21.191.422l-7.144-1.688z" fill="#fff"/><path d="M70.85 76.436c-.01.034-.192 0-.384.077-.191.077-.325.196-.354.17-.029-.025.07-.205.314-.286.243-.08.439.01.424.04zm.674.482c0 .035-.165.057-.32.174-.155.118-.226.261-.26.252-.035-.01 0-.208.191-.35.192-.141.397-.11.389-.076zm.211.982c-.035 0-.04-.185.096-.35.135-.165.316-.197.323-.171.008.025-.117.108-.226.247-.109.14-.159.277-.193.273zm-.745-2.306c-.023.028-.173-.057-.372-.09-.2-.033-.37 0-.383-.043-.014-.043.166-.12.402-.077.236.043.376.189.353.21z" fill="#263238"/><path opacity=".3" d="M71.54 73.572l-.18.638-3.507-.86.176-.744 3.51.966z" fill="#000"/><path d="M71.181 74.868a.674.674 0 01-.358-.086 1.605 1.605 0 01-.527-.352.464.464 0 01-.086-.108.15.15 0 01.028-.186.207.207 0 01.17-.044c.047.01.09.028.131.052a1.28 1.28 0 01.483.418c.128.196.153.33.14.333-.014.004-.073-.117-.21-.282a1.551 1.551 0 00-.277-.252 1.032 1.032 0 00-.191-.11c-.073-.039-.136-.055-.163-.025-.027.03-.014.016 0 .041a.35.35 0 00.063.079 2.033 2.033 0 00.479.363c.11.045.216.098.318.159z" fill="#263238"/><path d="M71.124 74.907a.557.557 0 01-.012-.361c.025-.132.075-.26.144-.373.04-.07.088-.136.141-.196a.315.315 0 01.272-.124.174.174 0 01.127.133.772.772 0 01-.06.375.823.823 0 01-.24.326.482.482 0 01-.34.144c0-.02.13-.057.28-.207a.868.868 0 00.191-.304.697.697 0 00.044-.196c0-.077 0-.143-.036-.143a.224.224 0 00-.155.086 1.24 1.24 0 00-.29.503c-.053.2-.047.337-.066.337z" fill="#263238"/><path d="M74.698 33.638s2.282 4.266 2.244 8.891c-.038 4.626-4.544 33.161-4.544 33.161l-5.413-1.513c-.134.919 2.062-9.357 2.888-14.312.812-4.879-1.7-22.691-1.7-22.691l6.112-3.552" fill="#233239"/><path d="M62.096 36.646s-.776 4.94.594 8.322c1.37 3.382 12.212 31.357 12.212 31.357l4.948-2.238-10.537-37.145-7.217-.296z" fill="#233239"/><path d="M76.616 63.265c-.03 0-1.381-4.755-3.013-10.64C71.97 46.738 70.67 41.96 70.7 41.95c.03-.01 1.381 4.755 3.016 10.641 1.634 5.886 2.93 10.664 2.9 10.674zm-1.715 13.06c-.03.011-2.199-5.498-4.843-12.306-2.644-6.809-4.764-12.335-4.734-12.347.03-.012 2.198 5.497 4.844 12.308 2.645 6.81 4.762 12.335 4.733 12.345z" fill="#263238"/><path d="M72.654 7.466a.592.592 0 00-.207-.338c-.245-.196-.565-.212-.87-.222a3.772 3.772 0 01-.356-1.178.726.726 0 00.41-.12.268.268 0 00.067-.021c.293-.137.322-.589.138-.854a1.67 1.67 0 00-.801-.528c.22.014.408.165.62.232.213.066.506 0 .531-.232a.529.529 0 00-.032-.196c-.04-.132-.083-.265-.123-.393a.445.445 0 00-.172-.277.985.985 0 00-.224-.055c-.248-.069-.374-.375-.621-.446-.18-.053-.366.04-.55.083-.184.043-.425 0-.483-.175.25-.127.464-.314.629-.544a.63.63 0 00-.06-.785.867.867 0 00-.62-.131c-.242.011-.54.068-.604.306a.625.625 0 00-.759.469l-.007.035-.621-.064c.174-.197.42-.309.575-.519.155-.21.122-.589-.127-.646a1.64 1.64 0 01-.276-.025c-.063-.026-.115-.083-.182-.085a.238.238 0 00-.134.053l-1.31.876c.119-.28.235-.561.354-.844.119-.283.192-.617-.032-.785-.225-.17-.54.068-.587.337a.427.427 0 00-.51.332.583.583 0 00-.009.07.437.437 0 00-.504.14.466.466 0 000 .536c-.22.006-.437.075-.622.196a.383.383 0 00-.608-.265.685.685 0 00-.097-.382.221.221 0 00-.314-.057l-.023.017a.448.448 0 00-.336-.534.435.435 0 00-.375.094l-.217-.267a.572.572 0 00-.557.295c-.09.208.061.506.283.487-.155 0-.12.251-.03.38l.383.54a.477.477 0 00-.602-.054.377.377 0 00-.542 0 .301.301 0 00-.548.094c-.038-.104-.178-.112-.285-.098a.682.682 0 00-.433.15c-.111.113-.111.346.036.394-.134-.077-.305.074-.306.23a.558.558 0 00.218.392c.122.092.228.206.312.338a.629.629 0 00-.438-.095 1.63 1.63 0 00-.794.161c-.046-.11-.191-.114-.31-.09a1.86 1.86 0 00-.947.526c-.12.126-.227.314-.145.47a.474.474 0 00.174.158l.841.534c-.46.148-.86.44-1.15.835-.168.1-.382.112-.532.235-.15.124-.142.454.054.454a.367.367 0 00-.104.424c.03.06.073.112.13.147a.57.57 0 00.093.108.669.669 0 00.226.122c.09.122.233.186.383.177a1.79 1.79 0 00-.4.484.787.787 0 000 .786c.01.012.019.023.03.033.02.1.077.187.161.24a.32.32 0 00-.03.21.85.85 0 00-.192 1.476c.191.14.552.114.575-.13a.635.635 0 00.484.364.64.64 0 00.28.852l.044.021a.685.685 0 00.209 1.106.523.523 0 00.312.661.504.504 0 00.646-.32c.08.197.212.364.383.485a.365.365 0 00.511-.121l.012-.02a.69.69 0 001.021.34.454.454 0 00.422.484.45.45 0 00.47-.404l1.16-.012a3.93 3.93 0 00.766-.057 2.04 2.04 0 00.883-.418.715.715 0 01.269-.167.709.709 0 01.354.057c.627.183 1.301.02 1.782-.432a.915.915 0 01.236-.196.812.812 0 01.34-.05 3.25 3.25 0 00.844-.123.898.898 0 00.593-.393c.112-.221-.019-.567-.262-.563a.55.55 0 01.128-.452.313.313 0 01.43-.017.237.237 0 01-.02.33.213.213 0 01-.086.049c.263.196.67-.075.676-.393a.633.633 0 00-.628-.589 1.52 1.52 0 00.02-.718.507.507 0 00.7.08c.127.216.334.37.575.424a.53.53 0 00.588-.328.394.394 0 00-.364-.506.476.476 0 00-.205-.63.454.454 0 00-.2-.05.738.738 0 00-.436-.785.38.38 0 00.533-.21c.147.238.507.179.745.037.155-.111.333-.27.28-.557z" fill="#23263B"/><path d="M72.733 7.51a.438.438 0 01-.075.371.915.915 0 01-.383.27.785.785 0 01-.3.054.379.379 0 01-.305-.165h.025a.382.382 0 01-.556.222l.015-.032c.305.128.489.45.449.786l-.022-.024a.441.441 0 01.399.218.47.47 0 01.029.493l-.021-.035c.18-.006.34.12.383.3a.436.436 0 01-.192.493.604.604 0 01-.557.053 1.002 1.002 0 01-.454-.393h.04a.536.536 0 01-.742-.084l.05-.026c.054.244.048.495-.017.734l-.029-.039c.16.004.31.061.433.165.13.104.213.257.226.426a.506.506 0 01-.228.442.437.437 0 01-.498.027l-.073-.053.088-.01a.197.197 0 00.129-.223.194.194 0 00-.218-.163.306.306 0 00-.265.165.555.555 0 00-.06.341l-.036-.031c.09 0 .175.039.232.11a.468.468 0 01.104.235.473.473 0 01-.033.258.59.59 0 01-.155.196 1.17 1.17 0 01-.447.222 3.26 3.26 0 01-.488.104c-.328.07-.705-.067-.92.245a1.91 1.91 0 01-1.479.526 2.756 2.756 0 01-.532-.12.305.305 0 00-.238.028c-.076.05-.147.104-.216.163a2.106 2.106 0 01-.495.283 2.892 2.892 0 01-1.132.168l-1.163.012.044-.039a.497.497 0 01-.538.454.501.501 0 01-.443-.542l.071.039a.732.732 0 01-1.09-.361h.086a.337.337 0 01-.247.212.485.485 0 01-.328-.04 1.107 1.107 0 01-.41-.51h.085a.55.55 0 01-.703.35.571.571 0 01-.341-.721l.03.063a.675.675 0 01-.421-.515.7.7 0 01.191-.675l.016.085a.689.689 0 01-.374-.89l.023-.055.037.073a.69.69 0 01-.523-.393l.092-.018a.252.252 0 01-.075.165.332.332 0 01-.153.08.518.518 0 01-.322-.027.84.84 0 01-.416-.492.875.875 0 01.034-.664.895.895 0 01.48-.46l-.031.058a.376.376 0 01.034-.242l.02.065a.42.42 0 01-.192-.271l.011.022a.755.755 0 01-.094-.75 1.62 1.62 0 01.466-.63l.038.088a.486.486 0 01-.42-.197l.026.018a.607.607 0 01-.345-.247l.013.013a.383.383 0 01-.182-.31.424.424 0 01.151-.345l.031.092a.188.188 0 01-.157-.082.284.284 0 01-.05-.161.373.373 0 01.123-.303c.172-.135.383-.143.538-.237l-.015.013c.297-.402.71-.698 1.182-.846l-.011.093-.372-.25-.293-.184a2.653 2.653 0 01-.293-.197.316.316 0 01-.094-.182.404.404 0 01.03-.197.88.88 0 01.219-.292 1.906 1.906 0 01.921-.483.524.524 0 01.192 0 .22.22 0 01.169.126l-.071-.024c.197-.104.415-.16.638-.16.107 0 .21-.013.321-.01.117 0 .232.037.328.107l-.075.063c-.094-.196-.324-.292-.46-.506a.4.4 0 01-.044-.38.339.339 0 01.14-.143.205.205 0 01.207 0l-.04.09a.22.22 0 01-.132-.145.352.352 0 01.088-.347.493.493 0 01.15-.092c.1-.038.208-.06.317-.067a.62.62 0 01.17 0 .21.21 0 01.152.125l-.094.012a.352.352 0 01.424-.269.36.36 0 01.216.157l-.082-.01a.416.416 0 01.598-.02c.005.007.013.013.019.02h-.065a.525.525 0 01.659.063l-.073.065-.322-.46a.683.683 0 01-.134-.262.335.335 0 010-.163.16.16 0 01.052-.085.135.135 0 01.093-.03v.099a.327.327 0 01-.31-.196.424.424 0 01-.015-.37.626.626 0 01.597-.314h.022l.013.018.216.267h-.067a.478.478 0 01.686.063.507.507 0 01.102.426l-.082-.041a.223.223 0 01.224-.075.305.305 0 01.191.12.745.745 0 01.102.404l-.079-.031a.413.413 0 01.592.063.444.444 0 01.094.237l-.07-.04c.195-.125.417-.193.647-.197l-.037.074a.5.5 0 01.096-.685.468.468 0 01.466-.06l-.062.043a.471.471 0 01.575-.446l-.055.035a.539.539 0 01.176-.304.443.443 0 01.324-.12c.118.014.22.088.272.198.04.108.05.228.026.342-.047.21-.12.414-.214.607-.082.196-.163.392-.243.575l-.062-.053.809-.542.396-.263c.067-.051.138-.092.215-.126a.181.181 0 01.142.024c.036.02.067.043.096.057.07.02.141.025.214.017a.299.299 0 01.228.114.53.53 0 01.048.485.905.905 0 01-.3.36 2.576 2.576 0 00-.336.282l-.025-.067.62.065-.041.034a.67.67 0 01.818-.536l-.046.027a.428.428 0 01.318-.288c.13-.036.264-.053.4-.053.132-.008.266.005.395.045.13.043.237.141.295.269a.75.75 0 01-.129.748 2.093 2.093 0 01-.574.453l.015-.04c.036.093.12.156.216.164a.62.62 0 00.294-.026c.097-.033.199-.059.3-.076a.444.444 0 01.307.06c.18.113.285.295.448.374.077.045.173.031.27.07.094.046.163.13.192.232l.163.524a.33.33 0 01-.021.279.354.354 0 01-.224.15.567.567 0 01-.257 0 1.231 1.231 0 01-.232-.09 1.203 1.203 0 00-.43-.154l.012-.047c.177.064.347.149.508.249a.97.97 0 01.358.393.738.738 0 01.035.488.439.439 0 01-.309.317.717.717 0 01-.421.121l.019-.02c.054.41.173.808.35 1.179h-.01a2.11 2.11 0 01.574.072.79.79 0 01.35.21.552.552 0 01.144.289.648.648 0 00-.151-.279.817.817 0 00-.349-.196 2.18 2.18 0 00-.575-.065 3.782 3.782 0 01-.362-1.178v-.02h.021a.71.71 0 00.4-.117.388.388 0 00.28-.29.677.677 0 00-.034-.46.925.925 0 00-.343-.37 2.954 2.954 0 00-.5-.243l-.144-.057.154.01a1.3 1.3 0 01.448.155.968.968 0 00.22.085.522.522 0 00.234 0 .313.313 0 00.192-.126.277.277 0 00.013-.234l-.163-.518a.32.32 0 00-.153-.196 2.137 2.137 0 01-.272-.073c-.192-.092-.291-.277-.454-.373-.163-.096-.366-.035-.56.024a.664.664 0 01-.322.027.322.322 0 01-.268-.196v-.026l.023-.014c.207-.113.393-.26.55-.44a.685.685 0 00.119-.675.427.427 0 00-.276-.27 1.026 1.026 0 00-.37-.04c-.128 0-.258.016-.383.05a.359.359 0 00-.264.23l-.012.038-.036-.01a.588.588 0 00-.713.438l-.008.034v.037h-.036l-.62-.065h-.08l.054-.059c.108-.106.223-.204.343-.292a.8.8 0 00.276-.324.44.44 0 00-.036-.403.211.211 0 00-.169-.082.678.678 0 01-.243-.026c-.08-.041-.132-.094-.192-.074a.956.956 0 00-.191.113l-.385.252-.809.542-.119.078.058-.131.24-.578c.091-.188.16-.384.208-.589a.518.518 0 00-.02-.29.25.25 0 00-.206-.157.421.421 0 00-.404.35l-.01.05-.048-.013a.383.383 0 00-.46.357v.069l-.063-.026a.38.38 0 00-.505.2.4.4 0 00.051.405l.054.072h-.088a1.154 1.154 0 00-.602.185l-.073.047V1.7a.334.334 0 00-.367-.299.319.319 0 00-.161.067l-.075.077v-.108a.657.657 0 00-.082-.352c-.06-.086-.211-.12-.269-.041l-.128.179.046-.216a.394.394 0 00-.26-.487.376.376 0 00-.374.094l-.036.031-.031-.037a16.138 16.138 0 01-.217-.269l.035.018a.534.534 0 00-.512.257c-.084.167.046.442.23.424v.098c-.03 0-.042 0-.052.043a.287.287 0 000 .114.54.54 0 00.12.228l.33.467-.072.067a.429.429 0 00-.538-.05l-.037.027-.03-.036a.322.322 0 00-.464-.016l-.008.008-.05.061-.03-.07a.251.251 0 00-.359-.06.268.268 0 00-.095.138l-.023.251-.073-.24c-.02-.064-.128-.078-.222-.066-.1.006-.198.026-.292.059a.269.269 0 00-.18.185c-.023.086 0 .196.075.212l-.042.092c-.067-.043-.17.016-.21.102a.283.283 0 00.04.277c.109.184.34.282.463.514l.117.22-.192-.157c-.143-.12-.383-.08-.575-.077-.206.002-.41.053-.593.15l-.05.029-.021-.053c-.027-.073-.148-.084-.245-.065a1.765 1.765 0 00-.87.458.76.76 0 00-.192.257.224.224 0 00.04.265c.089.07.182.137.278.196l.291.185.384.245.093.06-.105.032a2.25 2.25 0 00-1.125.817c-.191.106-.383.118-.526.23a.272.272 0 00-.087.218c0 .082.044.149.11.145h.157l-.127.1a.315.315 0 00-.113.261.28.28 0 00.136.228h.01a.51.51 0 00.291.208h.015l.01.014a.382.382 0 00.331.157l.15-.014-.111.102c-.192.157-.343.36-.441.59a.656.656 0 00.075.647v.014a.326.326 0 00.138.206l.04.024-.021.043a.27.27 0 00-.027.176l.01.042-.04.015a.802.802 0 00-.457.998.75.75 0 00.36.434.43.43 0 00.263.023.175.175 0 00.153-.155l.012-.196.08.176a.597.597 0 00.449.334h.07l-.034.063a.594.594 0 00.264.787l.033.016.084.027-.069.057a.595.595 0 00-.164.59.57.57 0 00.356.441l.046.016-.015.047a.473.473 0 00.281.597c.24.084.5-.045.584-.289l.035-.106.05.098c.075.193.205.358.371.473.156.093.355.04.447-.12v-.001l.044-.134.042.136c.069.192.226.34.42.392a.592.592 0 00.53-.074l.075-.055v.092a.41.41 0 00.381.436.408.408 0 00.424-.361v-.04h.038l1.163-.01a2.81 2.81 0 001.102-.159c.168-.068.329-.159.475-.27.072-.063.147-.12.228-.171a.392.392 0 01.293-.036c.17.057.345.097.523.12a1.853 1.853 0 001.418-.5.919.919 0 01.204-.173.582.582 0 01.263-.063 3.333 3.333 0 00.973-.13c.151-.035.295-.102.42-.196a.434.434 0 00.165-.393.298.298 0 00-.263-.282h-.032v-.032a.647.647 0 01.068-.392.378.378 0 01.324-.197.27.27 0 01.288.224.257.257 0 01-.192.303l.013-.063c.135.08.301.068.424-.026a.447.447 0 00.201-.393.606.606 0 00-.596-.532h-.04l.011-.039c.054-.218.058-.445.01-.665l-.029-.128.08.102a.48.48 0 00.662.079l.023-.02.017.025c.1.167.249.3.425.377.169.071.36.053.514-.045a.397.397 0 00.178-.436.343.343 0 00-.34-.267h-.043l.023-.039a.456.456 0 00-.2-.602.398.398 0 00-.184-.046h-.026V9.01a.72.72 0 00-.422-.756l.016-.03a.356.356 0 00.49-.149.396.396 0 00.021-.047v-.033l.017.03a.35.35 0 00.284.154c.1.004.2-.013.293-.047a.91.91 0 00.383-.26.421.421 0 00.092-.264c.012-.065.002-.098.006-.098z" fill="#455A64"/><path d="M62.038 8.444c-.111-2.09 1.452-3.874 3.49-3.986l.135-.006c2-.035 3.684 1.522 3.854 3.564.154 1.767.267 3.534.219 4.181-.148 1.928-1.316 2.606-1.786 2.802a2.34 2.34 0 01-.513.092s-.012 0-.012.014l.288 2.246c.101 1.465-.786 2.705-2.24 2.821-1.454.116-2.52-1.074-2.648-2.54l-.787-9.188z" fill="#A76C58"/><path d="M68.932 9.574a.308.308 0 01-.268.334.296.296 0 01-.338-.251.307.307 0 01.269-.334.296.296 0 01.337.251zm.189-1.019c-.034.044-.28-.11-.607-.084-.327.025-.553.212-.592.175-.038-.038.014-.093.111-.177a.83.83 0 01.472-.196.8.8 0 01.486.116c.108.078.148.147.13.166zm-3.302 1.202a.306.306 0 01-.269.334.293.293 0 01-.335-.246V9.84a.308.308 0 01.268-.333.293.293 0 01.336.245v.006zm.086-.884c-.035.044-.28-.11-.608-.082-.327.027-.553.21-.592.173-.038-.038.014-.093.112-.177a.83.83 0 01.47-.196.8.8 0 01.487.116c.108.078.148.153.13.166zm1.387 2.353c.168-.067.345-.114.525-.14.084-.016.16-.037.17-.096a.427.427 0 00-.076-.245c-.094-.197-.192-.405-.3-.623-.417-.885-.727-1.616-.69-1.633.036-.018.401.689.82 1.57l.288.627a.491.491 0 01.071.328.21.21 0 01-.128.133.482.482 0 01-.14.031c-.176.04-.358.055-.54.048z" fill="#263238"/><path d="M67.503 15.142s-1.257.197-2.916-.626c.1.051.575 1.946 2.994 1.23l-.078-.604z" fill="#7F4B3A"/><path d="M67.22 12.032a.592.592 0 00-.549-.178.533.533 0 00-.356.23.35.35 0 000 .392.399.399 0 00.439.075c.149-.067.285-.163.398-.285a.383.383 0 00.086-.106.109.109 0 00-.011-.122" fill="#7E4A2F"/><path d="M66.347 11.532c.052 0 .083.35.408.579.326.23.7.16.707.21.008.049-.078.077-.24.094a.885.885 0 01-.587-.155.779.779 0 01-.32-.489c-.025-.149.007-.24.032-.24zm-.452-3.727c-.027.093-.356.077-.737.154-.382.076-.683.208-.742.131-.025-.035.023-.126.14-.222a1.296 1.296 0 011.127-.216c.145.045.222.11.212.153zm3.06-.123c-.052.078-.286.02-.556.037-.27.018-.498.09-.557.016-.027-.036 0-.114.097-.197a.8.8 0 01.897-.043c.103.08.14.155.119.187z" fill="#263238"/><path d="M70.099 5.732a2.262 2.262 0 00-.046-.32.98.98 0 00-.278-.392c-.399-.393-.818-.813-1.318-.947-.307-.08-.625-.05-.931-.127a5.603 5.603 0 01-.558-.208 4.433 4.433 0 00-2.362-.13c-.445.06-.874.204-1.268.422-.437.285-.82.642-1.138 1.06a7.133 7.133 0 00-1.269 2.091 3.553 3.553 0 00-.182 1.977c.15.658.604 1.249 1.161 1.339l.192-.27.308-.394c-.051.161 0 .15.13.224.13.069.292.016.359-.118.004-.005.006-.013.01-.021.11.13.33-.032.283-.208.13.059.28-.126.226-.283.15.045.217-.196.278-.367.038-.088.08-.175.128-.257a1.69 1.69 0 00.165-.91c.17-.235.192-.576.201-.894l.023-.59c.033-.047.063-.096.096-.145a.317.317 0 00.23.287.66.66 0 00.358-.047l.337-.098.219.045a.925.925 0 00.109.567.55.55 0 00.224.3.163.163 0 00.207-.104.168.168 0 00.004-.092c.078.063.191.05.253-.031.007-.012.015-.024.02-.036a.626.626 0 00.049-.369 1.573 1.573 0 00-.343-.826l.64.52a.27.27 0 00.153.079.161.161 0 00.155.166l.027-.001a.407.407 0 00.207-.171c.132-.17.264-.448.122-.613a.132.132 0 00.054-.176l-.011-.02.716.47c-.07-.036-.138.078-.115.166a.352.352 0 00.157.196.566.566 0 00-.052.336c-.13-.102-.296.12-.243.296.06.163.215.267.383.256a.27.27 0 00.286-.228c.151.02.276-.196.21-.367.114.065.192-.142.192-.29a2.165 2.165 0 00-.168-.762c.015.02.038.027.055.011a.04.04 0 00.012-.03l.427.859c.136.237.23.5.272.773.011.114.036.267.13.271a.155.155 0 00.071-.025 1.42 1.42 0 00.552-.786 1.1 1.1 0 00.065-.341c-.012-.248-.138-.473-.174-.717z" fill="#23263B"/><path d="M62.48 9.616c-.033-.012-1.315-.309-1.194 1.007.12 1.315 1.385.917 1.383.88a659.71 659.71 0 00-.19-1.887z" fill="#FFBE9D"/><path d="M62.48 9.616c-.033-.012-1.315-.309-1.194 1.007.12 1.315 1.385.917 1.383.88a659.71 659.71 0 00-.19-1.887z" fill="#A76C58"/><path d="M62.232 11.043s-.021.018-.057.04a.225.225 0 01-.167.019.572.572 0 01-.303-.483.758.758 0 01.033-.334.26.26 0 01.151-.196c.052-.02.11.002.138.049.02.035.014.063.021.065.008.002.025-.026.01-.079a.143.143 0 00-.058-.077.169.169 0 00-.126-.021.319.319 0 00-.215.226.791.791 0 00-.044.373.585.585 0 00.383.536.236.236 0 00.192-.055c.042-.032.046-.061.042-.063z" fill="#7F4B3A"/><path d="M67.127 5.434a.314.314 0 00.073-.177.234.234 0 00-.075-.196.232.232 0 00-.25-.043l-.053.021.02-.055a.264.264 0 00-.092-.284.244.244 0 00-.318.039l-.046-.037c.007-.01.011-.022.015-.034a.153.153 0 00-.03-.121.165.165 0 00-.112-.06.255.255 0 00-.126.018.364.364 0 01-.142.045c-.063 0-.094-.05-.126-.068a.541.541 0 00-.106-.055.539.539 0 00-.209-.03.544.544 0 00-.293.1c-.061.044-.088.077-.092.073a.299.299 0 01.079-.092.554.554 0 01.65-.04c.038.024.068.057.1.057a.366.366 0 00.118-.043.301.301 0 01.155-.023.22.22 0 01.147.08.2.2 0 01.044.173.2.2 0 01-.025.055l-.046-.037a.291.291 0 01.416-.032.308.308 0 01.085.334l-.033-.031a.281.281 0 01.299.058.273.273 0 01.075.226.267.267 0 01-.06.142c-.023.029-.04.039-.042.037zm1.466.255a.412.412 0 00.096-.175.299.299 0 00-.272-.37h-.04l.024-.034a.378.378 0 00.071-.33.205.205 0 00-.126-.124.152.152 0 00-.17.04l-.147.196.102-.224a.317.317 0 000-.257.274.274 0 00-.213-.157.295.295 0 00-.191.037l-.064.04.022-.075c.03-.104-.08-.212-.18-.218a.5.5 0 00-.309.11l-.052.035.012-.063a.216.216 0 00-.086-.196.388.388 0 00-.205-.073.971.971 0 00-.368.042 1.397 1.397 0 00-.3.141.275.275 0 01.068-.059.956.956 0 01.605-.169c.083.002.163.03.23.079.08.057.123.155.11.253l-.04-.027a.535.535 0 01.33-.118.27.27 0 01.177.088c.05.051.07.126.055.196l-.042-.033a.344.344 0 01.228-.045c.113.016.21.09.257.196a.376.376 0 010 .308l-.048-.03a.203.203 0 01.23-.054.244.244 0 01.157.157.42.42 0 01-.084.375l-.017-.037c.113.01.212.074.268.176a.33.33 0 01.027.246.33.33 0 01-.079.135.106.106 0 01-.036.018zm3.113.002a.224.224 0 00-.088-.155.28.28 0 00-.192-.055.868.868 0 00-.268.09l-.03.016v-.035a.252.252 0 00-.225-.23.69.69 0 00-.402.102l-.174.084.145-.13a.216.216 0 00-.038-.296l-.004-.004a.462.462 0 00-.366-.055h-.017l-.111.022.088-.073a.23.23 0 00-.008-.32.155.155 0 00-.046-.033.323.323 0 00-.366.069l-.11.106.068-.14a.524.524 0 00-.046-.516.452.452 0 00-.358-.196.532.532 0 00-.268.059c-.058.031-.085.057-.087.053-.001-.004 0 0 .018-.02a.49.49 0 01.337-.126c.155-.002.3.071.395.197a.57.57 0 01.057.569l-.042-.031a.378.378 0 01.43-.083.291.291 0 01.14.196.252.252 0 01-.078.246l-.023-.051h.018a.502.502 0 01.411.069.308.308 0 01.104.186.23.23 0 01-.061.196l-.031-.047a.753.753 0 01.435-.102.3.3 0 01.255.283l-.03-.02a.758.758 0 01.284-.086.307.307 0 01.215.069.212.212 0 01.075.123.087.087 0 01-.006.069zm-1.872-2.872a.188.188 0 01-.075.035c-.072.018-.147.03-.222.032a.63.63 0 00-.32.078.205.205 0 00-.1.153.156.156 0 00.073.17l-.036.03c-.02-.074-.115-.115-.201-.157a.96.96 0 00-.282-.096.348.348 0 00-.272.067.242.242 0 00-.1.23l.016.072-.058-.045a.641.641 0 00-.383-.125.725.725 0 00-.553.26.2.2 0 01.044-.068.57.57 0 01.174-.145.712.712 0 01.333-.095.688.688 0 01.426.13l-.044.027a.297.297 0 01.118-.286c.09-.07.203-.1.315-.08.103.017.203.05.297.1.046.021.09.045.134.072.046.028.08.073.095.126l.014.055-.05-.022a.21.21 0 01-.103-.228.267.267 0 01.126-.186.694.694 0 01.343-.073 1.033 1.033 0 00.291-.031zm-2.962-.886a.678.678 0 00-.151.036.38.38 0 00-.136.106.329.329 0 00-.075.208v.031h-.03a.192.192 0 00-.202.142.614.614 0 00.016.328l.026.113-.078-.088-.011-.014a.24.24 0 00-.206-.066.272.272 0 00-.181.1.46.46 0 00-.089.36.884.884 0 00.087.25c.017.03.032.06.044.09 0 0-.027-.023-.064-.078a.716.716 0 01-.107-.255.487.487 0 01.086-.393.318.318 0 01.454-.053l.018.014.015.018-.05.025a.644.644 0 01-.013-.361.243.243 0 01.266-.17l-.03.025a.367.367 0 01.093-.236.364.364 0 01.157-.106.307.307 0 01.12-.018c.028-.013.041-.01.041-.008zm-2.377 2.019s-.029 0-.077-.012a.44.44 0 01-.192-.11.535.535 0 01-.157-.287c-.011-.06-.013-.121-.051-.157-.039-.035-.11-.059-.16-.123a.305.305 0 01.043-.409V2.9a.925.925 0 01-.27-.322.349.349 0 01-.054-.157s.029.055.082.142c.073.117.169.218.28.296l.03.022-.028.021a.254.254 0 00-.029.328c.035.047.1.065.154.12a.303.303 0 01.065.196.51.51 0 00.132.265c.069.061.147.11.232.142zm-.701.588a.102.102 0 01-.048.012.753.753 0 01-.586-.212h.038a.498.498 0 01-.326.214.512.512 0 01-.218 0 .32.32 0 01-.192-.133c-.011-.028-.023-.055-.03-.083a.128.128 0 00-.04-.05.352.352 0 00-.14-.05.468.468 0 01-.154-.049.171.171 0 01-.096-.14l.04.022a.5.5 0 01-.352.042.552.552 0 01-.245-.13.494.494 0 01-.11-.143.236.236 0 01-.019-.063c.04.069.09.13.15.18a.498.498 0 00.234.11.47.47 0 00.318-.043l.036-.02v.044a.116.116 0 00.069.09c.042.022.09.037.138.041a.4.4 0 01.16.06.165.165 0 01.062.076c.012.031.017.059.027.078.04.053.098.089.16.102a.464.464 0 00.485-.196l.018-.025.02.021c.116.114.262.19.419.218.114.028.182.028.182.028zm-4.418 2.23l-.01-.02a.616.616 0 01-.013-.298c.026-.123.07-.239.126-.349a1.53 1.53 0 01.113-.196.378.378 0 01.096-.088.141.141 0 01.142-.012l-.035.027a.39.39 0 01.307-.457.376.376 0 01.29.065l-.043.03a.28.28 0 01.09-.234.25.25 0 01.243-.051.247.247 0 01.12.076l-.049.026a.17.17 0 01.05-.146.228.228 0 01.126-.066.488.488 0 01.253.043l-.034.013a.427.427 0 01.235-.196.58.58 0 01.284-.023c.16.035.316.096.456.184l-.029.03a.111.111 0 010-.104.185.185 0 01.065-.063.3.3 0 01.154-.038c.132.008.26.05.373.118.029.02.044.032.042.034a2.317 2.317 0 00-.191-.079 1.023 1.023 0 00-.232-.04.285.285 0 00-.132.038c-.043.024-.077.07-.052.112l.038.063-.065-.034a1.516 1.516 0 00-.444-.17.528.528 0 00-.259.025.374.374 0 00-.203.175l-.012.023h-.023a.451.451 0 00-.226-.04c-.067.011-.138.078-.126.145l.017.104-.067-.08a.184.184 0 00-.094-.06.19.19 0 00-.191.04.213.213 0 00-.071.18v.065l-.054-.037a.334.334 0 00-.383 0 .36.36 0 00-.134.337v.05l-.042-.022c-.065-.032-.136.025-.18.084a1.095 1.095 0 00-.113.196c-.06.106-.104.218-.136.334a.905.905 0 00.023.287zm.469 1.711a.923.923 0 01-.111-.15.42.42 0 01-.063-.213.32.32 0 01.032-.14.22.22 0 01.119-.11l-.01.032a.288.288 0 01-.036-.293.276.276 0 01.29-.157l-.024.045a.229.229 0 01-.013-.265.32.32 0 01.237-.141.71.71 0 00.129-.012c.036 0 .057-.035.075-.076a.485.485 0 01.063-.136.256.256 0 01.13-.09c.102-.022.205-.033.309-.033a.334.334 0 00.243-.097c.025-.039.05-.08.07-.121a.29.29 0 01.11-.102.302.302 0 01.272 0l-.03.04a.244.244 0 010-.276.322.322 0 01.208-.13c.129-.02.257-.013.383.016a1.177 1.177 0 01.313.113 2.925 2.925 0 00-.318-.083.966.966 0 00-.368 0 .273.273 0 00-.178.113.187.187 0 000 .216l.069.089-.1-.05a.255.255 0 00-.314.097 1.19 1.19 0 01-.073.125.304.304 0 01-.13.09.682.682 0 01-.154.03c-.097 0-.197.01-.293.032a.185.185 0 00-.103.07.4.4 0 00-.056.12.172.172 0 01-.113.112 1.097 1.097 0 01-.138.014.263.263 0 00-.191.112.168.168 0 000 .196l.05.057-.073-.012a.227.227 0 00-.24.126.245.245 0 00.025.245l.02.024-.03.01a.23.23 0 00-.13.212.39.39 0 00.052.196c.054.098.094.151.09.155zm-.18 3.225a.126.126 0 01-.06-.013.428.428 0 01-.258-.34.454.454 0 01.09-.342v.034a.808.808 0 01-.174-.283.342.342 0 010-.196.243.243 0 01.126-.16v.054a.35.35 0 01-.17-.297.41.41 0 01.044-.196.32.32 0 01.14-.137.115.115 0 00.072-.116.458.458 0 01.025-.177.575.575 0 01.192-.257l.205-.179a.972.972 0 01.339-.196.475.475 0 01.105-.02h.038c-.045.01-.091.022-.136.038a.975.975 0 00-.32.212l-.191.182a.557.557 0 00-.178.238.447.447 0 00-.02.159.177.177 0 01-.024.102.218.218 0 01-.075.065.311.311 0 00-.015.53l.051.027-.053.026a.238.238 0 00-.094.28c.034.099.09.189.16.265l.014.016-.013.016a.416.416 0 00.01.534.65.65 0 00.17.131zm4.86-5.243a.403.403 0 01-.176-.055.492.492 0 01-.169-.126.324.324 0 01-.076-.251.19.19 0 01.017-.065l.015.04a.288.288 0 01-.159-.183.278.278 0 01.022-.197c.055-.1.13-.115.13-.11 0 .006-.056.036-.094.128a.238.238 0 000 .163c.021.065.07.118.132.143l.027.012-.012.028c-.005.015-.011.031-.013.049a.285.285 0 00.061.21c.04.049.09.09.146.121a.832.832 0 01.15.093zm1.295-.758a.366.366 0 00.024-.222.242.242 0 00-.154-.173.253.253 0 00-.272.069l-.034.037-.014-.049a.471.471 0 00-.08-.169.21.21 0 00-.153-.094c-.094 0-.192.092-.16.169l-.053.016a.445.445 0 00-.192-.281.411.411 0 00-.254-.077.683.683 0 00-.24.067s.015-.022.054-.045a.445.445 0 01.467.014.48.48 0 01.213.31l-.054.017a.172.172 0 01.044-.178.221.221 0 01.169-.07c.076.009.147.05.191.115a.55.55 0 01.088.196h-.047a.305.305 0 01.331-.076.277.277 0 01.169.21.285.285 0 01-.02.178c-.003.022-.02.038-.023.036z" fill="#455A64"/><path d="M62.807 16.544s-2.556 1.081-3.215 1.517c-.659.436 2.268 9.817 2.268 9.817s1.397 3.87.958 5.563c-.25.954-.69 1.964-.892 2.843-.211.91.331 1.822 1.216 2.046 1.575.392 4.615.927 7.265.012a18.298 18.298 0 004.496-2.215 1.723 1.723 0 00.518-2.224 4.522 4.522 0 00-.642-.917c-.849-.938-1.506-4.498-1.673-5.476a1.714 1.714 0 01-.013-.485c.103-.92.435-4.293-.056-5.95-.383-1.325-1.241-2.912-1.735-3.777a1.656 1.656 0 00-1.079-.782l-2.619-.589a2.427 2.427 0 00-.684.04l-3.933.588-.18-.011z" fill="#FF80A1"/><path opacity=".3" d="M62.95 33.1l-.544 1.602s3.344-1.013 4.457-2.256c1.113-1.242 2.2-2.16 2.695-2.197.496-.037 2.627.046 2.989.366.362.32 1.592 1.191 1.592 1.191l-.515-1.727-1.37-1.194-4.2-.613-5.103 4.828z" fill="#000"/><path d="M59.592 18.061s-1.1.742-1.172 2.713c0 0-.033.63-.052 1.589-.056 2.674-.125 7.908.05 9.2.314 2.332 2.128 2.683 3.082 2.719.954.035 6.208-4.023 6.208-4.023l-1.47-2.468-3.759.848s-.015-3.73.03-4.988c.047-1.259-2.917-5.59-2.917-5.59zm10.884-1.47s2.35.665 3.219 2.813c.766 1.885 5.659 10.405 2.915 11.839-1.982 1.032-4.366-1.616-4.366-1.616L70.476 16.59z" fill="#FF80A1"/><path d="M72.965 25.899c.074-.31.12-.625.141-.943a3.711 3.711 0 00-.613-2.16 3.694 3.694 0 00-.551-.637 1.98 1.98 0 01-.477-.617v-.023l.191-1.178c.02-.151.05-.299.092-.444-.004.151-.02.302-.042.452l-.157 1.178v-.024c.182.424.709.713 1.03 1.231a3.64 3.64 0 01.598 2.224 3.313 3.313 0 01-.12.7 1.113 1.113 0 01-.092.24z" fill="#263238"/><path d="M73.735 27.194a3.395 3.395 0 01-.18-1.207 2.25 2.25 0 00-.062-.736c-.07-.236-.32-.462-.555-.413l-.152 1.809.949.547z" fill="#FFBE9D"/><path d="M73.085 23.072l-.525 6.402-3.013.18.165-6.282a.33.33 0 01.287-.322l2.732-.332a.329.329 0 01.354.354z" fill="#263238"/><path d="M69.91 25.105a1.13 1.13 0 00.024-.196l.042-.518c.017-.21.034-.481.054-.766v-.106a.205.205 0 01.123-.14.492.492 0 01.106-.017l.472-.06c.647-.083 1.234-.162 1.657-.223l.5-.074c.065-.006.128-.018.192-.035a1.036 1.036 0 00-.192.011l-.504.053-1.659.197-.471.06a.484.484 0 00-.12.022.284.284 0 00-.104.073.278.278 0 00-.056.112.78.78 0 00-.01.115l-.04.768c-.011.222-.017.393-.023.518-.004.07 0 .138.01.206z" fill="#455A64"/><path d="M71.352 23.549a.151.151 0 01.183-.106c.05.014.089.055.104.106a.17.17 0 01-.063.165.154.154 0 01-.173 0c-.052-.037-.073-.104-.052-.165z" fill="#FAFAFA"/><path d="M71.654 25.422c.071 0 1.751.651 1.751.651l.931.786c.238.392.315.865.211 1.315-.147.837-.51 1.178-1.393 1.51l-1.753-.067-.958-.624a.569.569 0 01-.243-.575v-.04l-.119-.157a.313.313 0 01-.025-.34.3.3 0 01.41-.117l1.068.614h.683l.075-.24-1.05-.404-1.364-.828a.383.383 0 01-.128-.52c.004-.006.006-.012.01-.016a.366.366 0 01.46-.14l1.248.56 1.284.393-.25-.474-1.56-.91s-.171-.497.712-.377z" fill="#A76C58"/><path d="M71.411 24.583s-.353-.153-.874.148c-.52.3-1.178.736-1.178.736l-1.013.438.092-.283s1.05-.02.91-.785l-.623.104-.575-.216-.933 1.178-.285 1.339-.588.638 1.163 2.006 1.687-.589 1.504-.094.68-.715-.01-.803.648-.86s.048-.392-.297-.392c-.344 0-1.065.938-1.065.938l-.818.12s-.155-.114-.05-.196c.106-.083 2.384-1.604 2.458-1.891.075-.287.165-.479-.084-.524a1.31 1.31 0 00-.632.141s.063-.4-.117-.438z" fill="#A76C58"/><path d="M69.581 26.35c.35-.196.69-.412 1.017-.646.552-.373.993-.687.983-.7-.35.196-.69.412-1.017.645-.339.216-.667.45-.983.701zm-.256 2.04c.04.014.084.024.126.026.084.011.205.027.354.035.177.012.355.004.53-.027.216-.04.42-.124.6-.252a2.75 2.75 0 00.777-.897 4.86 4.86 0 00.174-.316.576.576 0 00.056-.122 4.46 4.46 0 00-.267.415 2.988 2.988 0 01-.776.865 1.51 1.51 0 01-.574.25c-.17.031-.343.045-.516.039-.299-.008-.484-.028-.484-.016z" fill="#7E4A2F"/><path d="M66.34 27.884a.259.259 0 00.04-.04l.115-.12.442-.47.294-1.338.934-1.178h-.024l.574.218h.014l.622-.104-.028-.021a.626.626 0 01-.025.32.535.535 0 01-.205.247c-.2.12-.424.189-.655.196h-.02v.02l-.092.28-.02.062.057-.026 1.015-.436c.305-.196.623-.402.958-.6a2.55 2.55 0 01.512-.262.945.945 0 01.561-.017c.06.012.092.082.102.159a.863.863 0 010 .243l-.01.06.054-.025a1.68 1.68 0 01.344-.121.537.537 0 01.351 0c.048.023.06.078.054.14a1.147 1.147 0 01-.04.195.632.632 0 01-.062.175 1.15 1.15 0 01-.132.142 14.53 14.53 0 01-1.247.958l-.627.438-.318.217-.076.053a.168.168 0 00-.073.087c-.008.04 0 .08.025.114.019.03.042.055.07.074h.024l.816-.122h.011v-.01a5.21 5.21 0 01.701-.745c.127-.098.269-.208.418-.173.071.012.132.06.161.13.029.07.04.147.033.221v-.013l-.646.861v.01c0 .277 0 .546.01.803v-.017l-.68.718h.015l-1.504.1-1.247.442-.326.118-.082.03-.027.011h.028l.085-.028.327-.11 1.253-.425 1.504-.089h.01l.682-.712v-.803.015l.647-.858a.52.52 0 00-.036-.253.31.31 0 00-.079-.108.282.282 0 00-.12-.055.373.373 0 00-.255.041 1.292 1.292 0 00-.21.144c-.261.226-.5.479-.712.754l.02-.012-.819.122h.024c-.043-.034-.085-.087-.073-.122.011-.035.078-.07.124-.106l.31-.214.627-.438c.435-.298.855-.62 1.255-.964a.95.95 0 00.14-.15.237.237 0 00.046-.1l.027-.096a1.2 1.2 0 00.042-.196.274.274 0 000-.112.171.171 0 00-.077-.088.569.569 0 00-.395-.018c-.122.03-.243.07-.358.126l.044.035a1.008 1.008 0 000-.263.344.344 0 00-.042-.13.163.163 0 00-.111-.084.961.961 0 00-.604.018 2.55 2.55 0 00-.524.267c-.332.196-.648.402-.958.603l-1.014.437.037.036.093-.281-.026.02c.241-.006.475-.073.684-.197a.588.588 0 00.226-.273.67.67 0 00.025-.347v-.026h-.025l-.623.106h.029l-.575-.214h-.015l-.01.014-.93 1.178-.279 1.341-.433.434-.11.125a4 4 0 01-.037.052z" fill="#7E4A2F"/><path d="M62.953 28.551c0 .02-.154 0-.384 0a2.101 2.101 0 00-1.57.852 3.742 3.742 0 01-.223.326.836.836 0 01.153-.375c.36-.566.981-.901 1.64-.89a.785.785 0 01.383.087z" fill="#263238"/><path d="M62.61 23.553c.032 0 .036 1.11 0 2.477-.037 1.367-.08 2.476-.114 2.476-.032 0-.034-1.11 0-2.478.035-1.368.081-2.475.114-2.475z" fill="#263238"/><path d="M58.383 21.299a.246.246 0 010 .075v.217c0 .197-.01.481-.015.84-.012.737-.025 1.791-.042 3.089s-.016 2.856.026 4.578c0 .216.014.434.022.654l.011.332.033.332c.023.223.063.443.118.661.066.218.15.43.255.63.219.413.535.762.922 1.013.4.258.85.419 1.32.474h.082c.349.037.7-.018 1.021-.16.322-.135.634-.294.933-.477.604-.35 1.179-.712 1.725-1.083a28.087 28.087 0 002.873-2.252l-.01.063-1.469-2.482.04.018c-1.034.22-1.852.418-2.415.54l-.646.141-.167.033h-.057a.176.176 0 01.053-.02l.177-.023.642-.16c.56-.134 1.375-.344 2.41-.576h.026l.014.024 1.487 2.47.02.037-.03.027a27.35 27.35 0 01-4.598 3.365 6.99 6.99 0 01-.958.485 2.1 2.1 0 01-1.08.167h-.092a3.197 3.197 0 01-1.37-.495 2.839 2.839 0 01-.958-1.056 3.5 3.5 0 01-.263-.654 4.583 4.583 0 01-.122-.681l-.03-.34-.012-.334c0-.22-.014-.44-.02-.653-.036-1.726-.02-3.28 0-4.584.022-1.304.052-2.356.081-3.089.015-.357.029-.64.036-.84 0-.09.012-.16.016-.218a.66.66 0 01.011-.088zM75.75 31.474c0 .01-.057.014-.16.016a2.485 2.485 0 01-.436-.033 3.518 3.518 0 01-.632-.155 4.363 4.363 0 01-.724-.34c-.416-.251-.8-.55-1.15-.89a2.618 2.618 0 01-.406-.445c.163.116.318.244.462.383.358.316.743.599 1.15.846.224.131.46.245.7.34.2.074.403.133.61.176.36.075.586.083.586.102zm.717-4.003c-.021.032-.435-.33-1.058-.512-.622-.183-1.159-.118-1.163-.157-.003-.04.543-.16 1.196.04.653.201 1.05.613 1.025.63zm-.931-1.076c0 .036-.32.02-.692.112-.372.093-.65.252-.668.22.172-.18.398-.298.641-.337.395-.099.726-.026.719.005z" fill="#263238"/><path opacity=".3" d="M62.46 28.443a1.427 1.427 0 00-2.008.28.756.756 0 00-.168.407.371.371 0 00.205.365c.191.077.408-.055.555-.196.395-.41.905-.685 1.458-.785m11.741-1.708c.607-.063 1.19.241 1.793.35a.42.42 0 00.32-.036.275.275 0 00.105-.234.436.436 0 00-.096-.245.973.973 0 00-.74-.308 3 3 0 00-.837.072.874.874 0 00-.588.354" fill="#000"/><path d="M62.701 17.473l-.134-1.689c.916.31 1.876.458 2.84.436 1.532-.084 2.41-.532 2.41-.532l.479 2.37-1.422 2.206-1.25.59-2.198-.352-.725-3.03z" fill="#FF80A1"/><path d="M62.872 21.5c-.015 0-.065-.284-.191-.731a4.46 4.46 0 00-.752-1.614 2.147 2.147 0 00-2.193-.856.525.525 0 01.191-.069c.179-.043.362-.055.544-.033a2.356 2.356 0 011.533.893 4.16 4.16 0 01.744 1.661c.051.228.082.416.1.546a.682.682 0 01.024.202zm4.945-5.812a.767.767 0 01.055.196c.018.079.03.161.033.242a.503.503 0 01-.082.322 1.46 1.46 0 01-.244.304c-.115.1-.245.18-.383.242a4.557 4.557 0 01-.958.296 4.853 4.853 0 01-1.805.027 3.586 3.586 0 01-.532-.13.763.763 0 01-.192-.074c0-.017.278.073.732.134.59.078 1.19.06 1.774-.057.32-.061.634-.155.937-.283.13-.055.25-.127.36-.218a1.68 1.68 0 00.243-.28.465.465 0 00.085-.28c0-.078-.006-.156-.016-.235a1.061 1.061 0 01-.007-.206zm5.543 19.004s-.026.022-.077.051l-.226.131c-.098.057-.22.124-.364.197-.144.073-.309.157-.495.237a13.63 13.63 0 01-6.148 1.202c-.203 0-.383-.024-.544-.035a6.272 6.272 0 01-.408-.042l-.258-.037a.274.274 0 01-.089-.02h.09l.26.018c.112 0 .25.02.41.024.158.004.34.02.541.02.4.01.88 0 1.408-.042a16.763 16.763 0 001.711-.23 15.88 15.88 0 001.675-.432c.505-.163.958-.331 1.325-.492.192-.075.351-.155.497-.222.145-.067.27-.126.371-.177l.234-.114c.054-.03.084-.041.086-.037z" fill="#263238"/><path d="M43.018 48.247l-.643-.227c-3.356-1.185-7.74-4.539-9.06-10.097-1.432-6.036-.913-9.457-.891-9.6l.2-1.254 1.19-.36c.045-.013 1.114-.333 4.094-1.122 3.175-.839 4.657-1.146 4.717-1.159l.39-.08.389.08c.062.013 1.544.32 4.716 1.16 2.983.788 4.05 1.108 4.094 1.121l1.191.36.2 1.254c.022.143.54 3.564-.892 9.6-1.318 5.558-5.704 8.914-9.06 10.097l-.635.227zM36.26 30.213c-.002 1.298.14 3.588.892 6.753.86 3.627 3.565 5.948 5.866 6.972 2.3-1.024 5.005-3.345 5.866-6.972.751-3.163.894-5.453.89-6.753-.62-.17-1.482-.405-2.633-.708-2.153-.57-3.505-.886-4.123-1.024-.616.138-1.97.457-4.123 1.024-1.153.303-2.014.538-2.635.708z" fill="#FF80A1"/><path d="M43.018 46.998l-.269-.094c-3.079-1.088-7.105-4.167-8.315-9.26-1.378-5.806-.895-8.999-.873-9.132l.084-.522.497-.15c.044-.013 1.093-.328 4.057-1.11 3.145-.83 4.598-1.133 4.658-1.145l.163-.033.162.033c.06.014 1.514.315 4.659 1.145 2.964.782 4.013 1.097 4.057 1.11l.497.15.084.522c.022.133.502 3.326-.874 9.132-1.208 5.095-5.234 8.174-8.315 9.26l-.272.094zm-7.882-17.695c-.066 1.076-.086 3.805.895 7.942 1.018 4.288 4.335 6.938 6.985 7.966 2.648-1.028 5.967-3.678 6.985-7.966.981-4.135.963-6.864.895-7.942a204.38 204.38 0 00-3.47-.942 114.769 114.769 0 00-4.41-1.09c-.459.1-1.897.427-4.41 1.09a195.43 195.43 0 00-3.47.942z" fill="#fff"/><path d="M43.023 27.33s1.333.273 4.23 1.032c2.736.716 3.695 1.002 3.695 1.002s.45 2.808-.79 7.992c-1.001 4.186-4.287 6.875-7.135 7.872-2.848-.997-6.134-3.686-7.136-7.872-1.241-5.184-.789-7.992-.789-7.992s.958-.286 3.694-1.002c2.896-.757 4.23-1.031 4.23-1.031z" fill="#FF80A1"/></g><defs><clipPath id="clip0_3314_6877"><path fill="#fff" transform="translate(.46)" d="M0 0h106.58v79.439H0z"/></clipPath></defs></svg>