<svg width="108" height="80" fill="none" xmlns="http://www.w3.org/2000/svg"><g clip-path="url(#clip0_3314_6789)"><path d="M107.157 67.293h-57.81V48.605h50.962l4.754 4c1.33 1.103 2.094 2.793 2.094 4.55v10.138z" fill="#263238"/><path opacity=".5" d="M107.157 67.293h-57.81V48.605h50.962l4.754 4c1.33 1.103 2.094 2.793 2.094 4.55v10.138z" fill="#263238"/><path d="M49.015 65.601c0-6.827 2.992-12.343 6.65-12.343h-7.082c-3.69 0-6.648 5.516-6.648 12.343s2.991 12.344 6.648 12.344h7.081c-3.69 0-6.649-5.517-6.649-12.344z" fill="#303042"/><path d="M55.664 77.945c3.672 0 6.649-5.526 6.649-12.344 0-6.817-2.977-12.343-6.649-12.343s-6.648 5.526-6.648 12.343 2.976 12.344 6.648 12.344z" fill="#303042"/><path d="M56.196 75.225c2.607 0 4.72-4.307 4.72-9.62 0-5.313-2.113-9.62-4.72-9.62-2.607 0-4.72 4.307-4.72 9.62 0 5.313 2.113 9.62 4.72 9.62z" fill="#fff"/><path d="M10.618 65.601c0-6.827 2.992-12.343 6.65-12.343h-7.082c-3.69 0-6.648 5.516-6.648 12.343s2.992 12.344 6.648 12.344h7.081c-3.69 0-6.649-5.517-6.649-12.344z" fill="#303042"/><path d="M17.268 77.945c3.672 0 6.649-5.526 6.649-12.344 0-6.817-2.977-12.343-6.65-12.343-3.671 0-6.648 5.526-6.648 12.343s2.977 12.344 6.649 12.344zm77.39-12.344c0-6.827 2.992-12.343 6.649-12.343h-7.08c-3.69 0-6.65 5.516-6.65 12.343s2.992 12.344 6.65 12.344h7.08c-3.657 0-6.649-5.517-6.649-12.344z" fill="#303042"/><path d="M101.308 77.945c3.672 0 6.648-5.526 6.648-12.344 0-6.817-2.976-12.343-6.648-12.343-3.672 0-6.65 5.526-6.65 12.343s2.978 12.344 6.65 12.344z" fill="#303042"/><path d="M101.872 75.225c2.607 0 4.72-4.307 4.72-9.62 0-5.313-2.113-9.62-4.72-9.62-2.607 0-4.72 4.307-4.72 9.62 0 5.313 2.113 9.62 4.72 9.62z" fill="#fff"/><path d="M41.136 69.05h-8.544l-.465-.482a2.568 2.568 0 00-1.862-.793H8.889c-.698 0-1.363.276-1.861.793l-.3.31h-.764c-2.527-.034-4.588-2.172-4.588-4.792v-7.31h48.47l-3.857 8.689c-.731 2.138-2.66 3.586-4.853 3.586z" fill="#EE7EAF"/><path d="M41.136 69.05h-8.544l-.465-.482a2.568 2.568 0 00-1.862-.793H8.889c-.698 0-1.363.276-1.861.793l-.3.31h-.764c-2.527-.034-4.588-2.172-4.588-4.792v-7.31h48.47l-3.857 8.689c-.731 2.138-2.66 3.586-4.853 3.586z" fill="#DD7990"/><path d="M91.6 25.671c-.033 0-.066 0-.1-.034-.066-.035-.1-.138-.066-.242l2.327-4.137c.034-.07.133-.104.233-.07.066.035.1.139.066.242l-2.327 4.138c-.033.103-.066.103-.133.103z" fill="#263238"/><path d="M103.867 46.259v-4.69c0-2.482-3.457-14.136-8.244-16.308-4.754-2.172-16.29-3.172-23.537-2.759-7.247.414-16.954 16.137-16.954 16.137l1.064 13.55c1.463 0 6.183-.448 6.848 12.93.1 1.965 1.662 3.482 3.557 3.482h25.432c1.761 0 3.257-1.344 3.523-3.172.665-4.758 2.394-13.274 6.583-13.274 2.925 0 5.053 2.62 5.053 5.585 0-3.275-.765-6.516-2.228-9.413l-1.097-2.068z" fill="#EF87A1"/><path d="M45.491 22.503c-13.23 0-28.19 16.137-28.19 16.137h37.864S64.84 22.883 72.12 22.503H45.491z" fill="#ADADDE"/><path opacity=".4" d="M46.323 22.5c-11.137 0-22.806 11.447-26.23 15.067-.365.414-.1 1.07.433 1.07h30.55c2.494 0 4.824 2.806 6.317-3.31C60.683 30.67 67 22.775 72.12 22.464H46.323v.035z" fill="#fff"/><path d="M55.164 38.64L41.17 50.087 3.537 49.95s-2.16 3.242-2.16 6.827h48.468c.798-2.172 3.59-4.586 6.35-4.586 0-4.068-1.03-13.55-1.03-13.55z" fill="#EF87A1"/><path opacity=".2" d="M45.99 46.706c-.067 0-.167-.07-.167-.138 0-.104.033-.173.133-.207 4.122-.655 7.214-2.724 9.076-4.379 1.064-.93 1.263-2.517.498-3.69-.066-.068-.033-.172.034-.24.066-.07.166-.035.232.034a3.265 3.265 0 01-.532 4.172c-1.895 1.655-5.053 3.793-9.275 4.448.034 0 .034 0 0 0z" fill="#000"/><path d="M3.538 49.95s6.615-8 13.762-11.31h37.865L41.169 50.087 3.538 49.95z" fill="#EF87A1"/><path d="M32.825 49.95H7.992v.758h24.833v-.758z" fill="#263238"/><path d="M32.293 48.465l1.33-1.38c.299-.31.664-.516 1.096-.62l10.04-2.276c.366-.069.731-.069 1.064.035l.532.172c1.562.449 2.127 2.448 1.064 3.724l-2.161 2.552a2.057 2.057 0 01-1.463.758l-9.74.931a2.118 2.118 0 01-1.762-.655 2.35 2.35 0 010-3.241zM8.69 49.19l-1.096-2.137a1.962 1.962 0 00-.665-.724c-.532-.345-1.23-.345-1.762-.07l-.831.449c-.399.241-.731.62-.864 1.069l-.5 1.551c-.365 1.104.3 2.276 1.397 2.448l2.294.414a1.766 1.766 0 001.895-.965l.166-.31c.266-.483.266-1.173-.033-1.725z" fill="#fff"/><path opacity=".4" d="M62.877 39.087h35.006c1.263 0 2.194-1.275 1.828-2.551-.798-2.758-2.327-7.068-4.62-9.275a1.923 1.923 0 00-.898-.483c-4.123-.896-10.771-1.517-15.692-1.862-4.52-.31-8.942 1.414-12.1 4.759a45.935 45.935 0 00-5.053 6.378c-.831 1.345.066 3.035 1.53 3.035z" fill="#fff"/><path d="M40.238 60.81c0 1.138-1.13 2.034-2.493 2.034s-2.494-.93-2.494-2.034c0-1.138 1.13-2.034 2.494-2.034 1.396 0 2.493.896 2.493 2.034zM20.16 48.398c.831 0 1.23.862.898 1.93-.333 1.07-1.264 1.931-2.061 1.931-.798 0-1.23-.861-.898-1.93.332-1.07 1.263-1.931 2.061-1.931zM3.405 60.81c0 1.138-.3 2.034-.698 2.034-.4 0-.698-.93-.698-2.034 0-1.138.299-2.034.698-2.034.365 0 .698.896.698 2.034zm58.409-22.032v-1.172c0-1.414 1.263-2.483 2.593-2.207l4.255.93c.997.208 1.729 1.139 1.729 2.208v.241c0 1.241-.964 2.241-2.161 2.241h-4.255c-1.197 0-2.161-1-2.161-2.241z" fill="#263238"/><path d="M84.22 25.431s-.566-.069-1.563-.138c4.388 9.31 3.258 13.827 3.258 13.827h3.358c.033-5.69-5.053-13.689-5.053-13.689z" fill="#EF87A1"/><path opacity=".2" d="M47.285 34.917c-.133 1.517-1.363 2.689-2.825 2.689H27.206c-1.263 0-1.728-1.448-.798-2.552a53.017 53.017 0 015.353-5.413c3.258-2.827 7.28-4.31 11.037-4.034.465.035.93.07 1.429.104 1.263.103 2.294 1.068 2.56 2.344.598 3.034.631 5.31.498 6.862z" fill="#407BFF"/><path opacity=".2" d="M86.347 66.156c-.1 0-.167-.069-.167-.172 0-3.483 1.729-17.86 2.161-20.033.432-2.103.432-4.413 0-5.965-.033-.103.033-.172.1-.207.1-.034.166.035.2.104.465 1.586.465 3.965 0 6.103-.433 2.137-2.162 16.48-2.162 19.963.034.138-.066.207-.132.207zm-.465-20.034h-4.055c-.333 0-.565-.276-.499-.62l.1-.483c.066-.345.399-.62.731-.62h4.056c.332 0 .565.275.499.62l-.1.483c-.067.344-.4.62-.732.62z" fill="#000"/><path d="M74.912 77.428l1.995-.034.599-4.828-2.028.035-.566 4.827zm9.574-.17l1.962-.62-1.23-4.552-1.929.62 1.197 4.552z" fill="#B55B52"/><path d="M86.381 76.049l-2.16 1.172c-.067.035-.1.138-.1.207l.465 1.827c.033.207.266.276.432.173.698-.38 1.197-.69 2.061-1.172.532-.276 2.194-1.104 2.959-1.518.731-.379.465-1.206.133-1.137-1.53.413-2.793.551-3.424.379-.133 0-.266 0-.366.069zm-9.407 1.105l-2.195.034c-.066 0-.166.07-.166.138l-.365 1.862c-.034.207.1.38.299.38.798-.035 1.928-.104 2.925-.104 1.164-.034 1.496.035 2.86 0 .83 0 1.03-.896.697-.965-1.562-.345-2.194-.345-3.557-1.207-.166-.07-.332-.138-.498-.138z" fill="#263238"/><path d="M79.998 14.091c.466.931.964 1.966 1.496 2.897a54.897 54.897 0 001.63 2.792c.132.207.298.448.431.655l.366.518c.066.103.133.137.133.172 0 .035.033.069.133.069.2 0 .598-.207.964-.483.166-.138.366-.31.565-.482l.532-.552 1.296.758a7.242 7.242 0 01-.398.897c-.133.276-.3.552-.5.827a5.022 5.022 0 01-.697.793 3.196 3.196 0 01-1.064.655c-.432.173-.997.242-1.53.07a3 3 0 01-1.263-.69 1.464 1.464 0 01-.232-.207l-.1-.103-.066-.104-.3-.345c-.199-.241-.365-.482-.565-.69a28.305 28.305 0 01-1.961-2.965c-.3-.517-.599-1.034-.831-1.551-.266-.517-.532-1.034-.765-1.62l2.726-1.31z" fill="#B55B52"/><path d="M76.406 14.092c-.531 1.896 3.258 7.103 3.258 7.103l3.857-2.552s-1.13-2.655-2.66-4.69c-1.596-2.068-3.856-1.93-4.455.139z" fill="#EBEBEB"/><path opacity=".2" d="M76.406 14.092c-.531 1.896 3.258 7.103 3.258 7.103l3.857-2.552s-1.13-2.655-2.66-4.69c-1.596-2.068-3.856-1.93-4.455.139z" fill="#000"/><path opacity=".2" d="M78.735 16.331c.798.345 1.961 2.31 2.56 3.793l-1.63 1.103s-1.462-2-2.46-3.965c.533-.62 1.131-1.103 1.53-.931z" fill="#000"/><path d="M85.983 20.091l1.396-2.345 1.197 2s-.433.897-1.33 1.138l-1.263-.793zm3.356-2.315v.724a.986.986 0 01-.2.62l-.498.656-1.197-2 1.263-.483c.266-.138.632.138.632.483z" fill="#B55B52"/><path d="M87.976 20.782l-2.194-.035 1.197-4.724 2.194.035-1.197 4.724z" fill="#687F8A"/><path d="M88.177 20.782l-2.161-.035 1.197-4.724 2.194.035-1.23 4.724z" fill="#263238"/><path opacity=".2" d="M77.505 72.566l-.3 2.483-2.027.034.299-2.482 2.028-.035zm5.785.141l1.927-.62.632 2.344-1.928.62-.632-2.344z" fill="#000"/><path d="M67.93 15.126c1.63 7.31 1.297 14.584 1.463 16.136 1.563-.104 7.48-.586 10.705-.828C81.128 18.54 78.7 12.506 78.7 12.506s-.698-.138-1.628-.241c-.3-.035-.599-.07-.931-.07-.166 0-.366-.034-.566-.034-1.196-.034-3.19.173-4.554.345-.299.035-.565.07-.864.138-.266.034-.532.103-.765.138h-.033c-1.03.241-1.662 1.276-1.43 2.345z" fill="#fff"/><path opacity=".2" d="M67.93 15.126c1.63 7.31 1.297 14.584 1.463 16.136 1.563-.104 7.48-.586 10.705-.828C81.128 18.54 78.7 12.506 78.7 12.506s-.698-.138-1.628-.241c-.3-.035-.599-.07-.931-.07-.166 0-.366-.034-.566-.034-1.196-.034-3.19.173-4.554.345-.299.035-.565.07-.864.138-.266.034-.532.103-.765.138h-.033c-1.03.241-1.662 1.276-1.43 2.345z" fill="#000"/><path opacity=".2" d="M69.76 16.64l-1.23 1.654v.07c.166 1.103.3 2.206.4 3.24 1.163-1.517.996-4.24.83-4.964z" fill="#000"/><path d="M71.554 9.265c.266 1.104.233 2.345-.532 3.242.864.758 1.962 1.62 3.69 1.551 1.729-.069 1.363-1.276.831-1.896-1.496-.242-1.496-1.242-1.496-2.345 0-.241-.133-.448-.365-.517l-1.63-.552c-.299-.069-.565.207-.498.517z" fill="#B55B52"/><path opacity=".2" d="M74.047 9.878l-1.629.207a.725.725 0 00.133.207c.3.517.997.862 1.695.966-.166-.38-.166-.862-.2-1.38z" fill="#000"/><path d="M76.209 5.438c.93.172 2.626-.931 2.227-2.345-.499.655-2.227.449-2.227.449v1.896zm-3.591 1.544c.1.966-1.03 2.655-2.393 2.172.665-.482.565-2.275.565-2.275l1.828.103z" fill="#263238"/><path d="M71.288 5.09c-.233 2.035-.498 3.241.3 4.483 1.196 1.861 3.79 1.379 4.62-.552.765-1.724 1.03-4.793-.731-5.965-1.762-1.172-3.956 0-4.189 2.034z" fill="#B55B52"/><path d="M71.023 7.16c.498.517 1.795-1.62 1.562-2.38.499.242 1.463-.206 1.396-1.068 1.496.827 3.657 1.483 3.69 0 .034-1.483-1.33-2.586-2.66-2.724.167.448-.265.62-1.13.448-.864-.207-4.221-1.793-3.856 1.414-1.23.069-1.396 1.69.998 4.31z" fill="#263238"/><path d="M70.024 6.404c.067.551.366 1.034.732 1.275.532.414.864-.034.897-.69.034-.585 0-1.516-.631-1.654-.599-.138-1.064.414-.998 1.069z" fill="#B55B52"/><path d="M73.05 30.984l7.047-.552s.897 14.964.83 21.308c-.066 6.62-2.991 22.791-2.991 22.791l-3.391.07s.266-15.724.266-22.206c0-8.723-1.762-21.411-1.762-21.411z" fill="#263238"/><path opacity=".2" d="M75.775 46.535c.1.448 2.693 12.585 3.558 19.653.465-2.93.897-6.24 1.23-9.171l-4.788-10.482z" fill="#000"/><path d="M76.274 30.71s5.352 13.62 6.549 19.585c1.33 6.55 3.424 23.066 3.424 23.066l-3.623.587s-2.76-12.344-4.289-18.654c-1.762-7.206-8.676-18.584-8.976-24.032l6.915-.552z" fill="#263238"/><path d="M86.748 73.672l-4.522 1.103-.565-1.793 4.92-.896.166 1.586zm-8.378.964l-4.056.069v-1.38l4.52-.137-.465 1.448z" fill="#EF87A1"/><path d="M74.047 6.157c-.034.173.033.31.133.345.1.035.2-.103.232-.276.033-.172-.033-.31-.133-.344-.1 0-.2.138-.232.275zm1.962.453c-.034.172.033.31.133.344.1.034.2-.103.232-.276.034-.172-.033-.31-.132-.345-.1 0-.2.104-.233.276z" fill="#263238"/><path d="M75.344 6.573s.2 1.035.499 1.552c-.333.207-.798 0-.798 0l.299-1.552z" fill="#A02724"/><path d="M74.745 8.643a1.4 1.4 0 01-.864-.62c0-.035 0-.07.033-.07.034 0 .067 0 .067.035 0 0 .299.551.997.62.033 0 .033.035.033.07 0 .034-.033.034-.066.034-.067-.07-.133-.07-.2-.07zm-.898-3.209s-.033 0-.033-.035c-.033-.034-.033-.103 0-.138.4-.379.831-.24.831-.24.067 0 .067.068.067.103 0 .069-.067.069-.1.069 0 0-.332-.07-.665.206-.033.035-.066.035-.1.035zm3.226.659c-.034 0-.067-.034-.067-.069-.1-.413-.432-.551-.432-.551-.033 0-.067-.07-.067-.138 0-.035.067-.07.133-.07.034 0 .433.139.565.69 0 .07 0 .104-.066.138h-.066z" fill="#263238"/><path d="M87.146 76.047c-.167.104-.366.138-.5.173-.032 0-.032 0-.032-.035v-.069c.033-.069.432-.758.698-.758.033 0 .1 0 .133.069.066.103.066.172.033.275-.1.173-.2.276-.332.345zm-.433.07c.333-.104.566-.242.632-.38.033-.069.033-.138-.033-.172-.034-.035-.034-.035-.067-.035-.1-.034-.365.31-.532.586z" fill="#E06FA0"/><path d="M86.646 76.223s-.033 0 0 0c-.033 0-.066 0-.066-.035 0-.034-.233-.586-.1-.862.033-.069.066-.138.166-.138.1-.034.166 0 .2.035.1.207-.067.793-.2 1zm0-.931c-.033.034-.066.034-.066.103-.067.173.033.517.066.69.1-.241.2-.655.1-.793-.033 0-.033-.035-.1 0zm-9.474 2.136c-.033 0-.033-.034-.033-.034 0-.035 0-.035.033-.035.1-.034.898-.482 1.13-.344.034.034.067.069.067.138a.318.318 0 01-.1.24c-.199.173-.764.104-1.097.035zm1.064-.344c-.166-.07-.598.138-.897.275.432.07.764.035.897-.069a.269.269 0 00.067-.172c-.034 0-.034-.034-.067-.034z" fill="#E06FA0"/><path d="M77.172 77.426s-.033 0 0 0c-.033 0-.033-.034-.033-.034 0-.035.033-.586.3-.793a.37.37 0 01.265-.104c.133 0 .167.07.167.138.033.242-.433.69-.665.793h-.034zm.566-.827h-.034c-.066 0-.133 0-.2.069-.165.138-.232.482-.265.655.233-.173.565-.517.532-.655 0-.035 0-.07-.033-.07z" fill="#E06FA0"/><path d="M71.122 15.747c-.665 1.241-1.33 2.517-1.928 3.827-.598 1.276-1.163 2.586-1.562 3.896-.034.173-.1.31-.133.483-.033.069-.033.172-.067.207 0 .034-.033.069-.033.138a1.5 1.5 0 00.033.655c.1.517.333 1.103.632 1.69.632 1.172 1.496 2.31 2.394 3.378l-.965 1.207c-1.263-.896-2.393-1.896-3.39-3.24-.466-.656-.931-1.415-1.23-2.346-.133-.482-.233-1-.2-1.551 0-.138.033-.276.033-.448.034-.138.034-.207.067-.31a4.05 4.05 0 01.133-.621c.365-1.586.897-3.035 1.496-4.448a33.64 33.64 0 012.06-4.103l2.66 1.586z" fill="#B55B52"/><path d="M69.062 12.951c-1.862.518-3.657 5.93-3.657 5.93l4.454 1.277s.998-1.276 1.862-3.69c.931-2.655-.432-4.172-2.66-3.517z" fill="#E2E2E2"/><path opacity=".2" d="M69.062 12.951c-1.862.518-3.657 5.93-3.657 5.93l4.454 1.277s.998-1.276 1.862-3.69c.931-2.655-.432-4.172-2.66-3.517z" fill="#E2E2E2"/><path d="M69.659 29.641l2.027.552-.797 2s-1.829-.414-1.829-1.448l.599-1.104z" fill="#B55B52"/><path d="M72.484 31.535l-.632 1.586-.964-.931.798-2 .798 1.345z" fill="#B55B52"/><ellipse cx="77.789" cy="17.169" rx=".608" ry=".837" fill="#EF87A1"/></g><defs><clipPath id="clip0_3314_6789"><path fill="#fff" transform="translate(.96)" d="M0 0h106.58v79.439H0z"/></clipPath></defs></svg>