<svg width="122" height="101" fill="none" xmlns="http://www.w3.org/2000/svg"><path d="M84.673 52.574c.435 1.67-.145 3.562-1.438 4.706-.85.752-1.956 1.186-2.731 2.013-.998 1.066-1.285 2.695-.847 4.087.434 1.393 1.532 2.529 2.85 3.158 1.796.857 4.008.782 5.742-.195 2.154-1.217 3.411-3.656 3.73-6.109.317-2.453-.182-4.937-.831-7.323m20.696 42.916c2.229-.364 4.32.315 6.527.805.594.13 1.218.245 1.809.097.956-.242 1.636-1.175 1.784-2.15.128-.843-.092-1.728-.563-2.441-.201-.3-.449-.58-.764-.757-.323-.184-.697-.254-1.068-.29-1.343-.13-2.709.17-3.932.74-1.224.572-2.308 1.41-3.261 2.362-.465.468-.326 1.008-.532 1.634zM66.63 59.877a17.247 17.247 0 01.128-6.393c.215-1.022.53-2.038 1.101-2.91.209-.317.465-.626.817-.765.487-.195 1.067-.014 1.452.343.501.465.71 1.186.688 1.868-.022.685-.245 1.345-.496 1.982-.858 2.2-2.218 4.026-3.69 5.875z" fill="#263238"/><path d="M109.835 67.924c.507.36 11.719 24.472 11.719 24.472a4.742 4.742 0 00-2.857-.281l-.607.162c-1.087.289-2.121.76-3.055 1.392l-3.194 2.16a.908.908 0 01-.454-.704l-.008-.092-8.688-14.896 7.144-12.213z" fill="#FFE6EC"/><path d="M67.782 29.553l2.987 16.965c.962 2.283 12.177 16.116 12.177 16.116l-3.71 11.9L64.51 54.417a7.677 7.677 0 01-2.074-5.396l.574-18.126 4.772-1.342z" fill="#FFBE9D"/><path d="M83.681 59.976l7.69.582 6.705 1.038s11.762 3.088 11.762 4.374c0 .43-3.214 10.645-5.003 16.765-.772 2.642-1.081 4.519-1.081 4.519l6.084 13.499H80.903V88.376S78.96 72.135 79.295 69.92c.334-2.217 4.386-9.943 4.386-9.943z" fill="#FFE6EC"/><path d="M64.144 22.699c.044-1.73.22-3.453.526-5.154.045-.243.142-.535.385-.565.3-.04.454.348.493.645a18.134 18.134 0 01-.253 6.157" fill="#EB996E"/><path d="M67.564 58.622c3.3-2.946 3.41-8.05 3.13-12.112-.02-.3-.042-.627.128-.872.314-.448 1.081-.284 1.388.173.306.454.29 1.044.262 1.593.17-.465.894-.463 1.234-.103.34.359.399.89.438 1.383l.108 1.362 9.638 9.174s.265-.824.973-.353c.708.47 1.165 1.495 1.165 1.495l-6.792 14.813L66.63 59.853s.396-.752.934-1.231z" fill="#FFE6EC"/><path d="M80.643 68.868c-.976 1.3-1.79 2.743-2.213 4.313-.424 1.57-.435 3.275.142 4.795.816 2.141 2.84 3.773 5.106 4.12" fill="#FFE6EC"/><path d="M111.845 95.827l-.366 4.928h7.144l1.675-8.701a9 9 0 00-6.04 1.89l-2.413 1.883z" fill="#FFBE9D"/><path d="M70.92 57.53c-.009-.006.047-.145.156-.39.111-.245.262-.607.432-1.058.173-.451.351-.997.521-1.61.162-.615.312-1.3.42-2.026a18.6 18.6 0 00.176-2.063 17.667 17.667 0 00-.039-1.693 17.873 17.873 0 00-.111-1.136c-.033-.268-.047-.418-.04-.42.012-.004.043.144.096.408.053.265.111.655.158 1.14.05.481.076 1.06.07 1.703a17.803 17.803 0 01-.164 2.083 17.33 17.33 0 01-.435 2.041 15.295 15.295 0 01-.555 1.612c-.184.448-.348.805-.476 1.044-.126.24-.2.37-.21.365zm2.1-2.584c-.02-.011.115-.273.299-.707a10.461 10.461 0 00.822-3.564c.025-.47.02-.763.042-.766.016 0 .058.293.061.769a8.435 8.435 0 01-.836 3.605c-.206.426-.374.672-.388.663zm11.322 7.699c-.022-.011.095-.195.162-.52.072-.326.067-.797-.073-1.29-.139-.492-.348-.919-.485-1.23-.139-.312-.211-.515-.192-.521.02-.008.123.175.284.476.16.304.385.724.533 1.236.145.516.133 1.017.033 1.354-.1.34-.254.506-.262.495zm-1.678 19.613a.573.573 0 01-.12-.066l-.328-.217a20.881 20.881 0 01-1.18-.855 10.1 10.1 0 01-1.563-1.496c-.518-.629-.984-1.43-1.21-2.352a7.39 7.39 0 01-.158-2.645c.092-.813.284-1.526.476-2.11a14.061 14.061 0 01.703-1.713c.041-.081.064-.123.07-.12.01.005-.062.18-.187.498-.126.32-.304.783-.485 1.365a10.86 10.86 0 00-.44 2.094 7.44 7.44 0 00.166 2.595c.22.902.67 1.681 1.174 2.305a10.447 10.447 0 001.524 1.498c.474.387.873.682 1.146.891.125.095.228.175.315.24.064.055.1.086.097.088zm15.788 2.757c0 .005-.042.02-.123.044-.083.022-.203.064-.362.095a7.13 7.13 0 01-1.366.164 7.82 7.82 0 01-4.336-1.183 7.817 7.817 0 01-2.93-3.408 7.06 7.06 0 01-.437-1.303c-.039-.156-.056-.284-.07-.368-.014-.084-.016-.128-.014-.13.012-.004.05.172.137.48.086.31.234.755.477 1.276a7.992 7.992 0 002.912 3.33 8.013 8.013 0 004.259 1.203 8.128 8.128 0 001.357-.117c.318-.056.493-.097.496-.083zm4.435 5.409c-.039-.011.328-1.548.822-3.436.493-1.888.925-3.41.964-3.4.039.012-.329 1.549-.822 3.44-.493 1.884-.925 3.407-.964 3.396z" fill="#263238"/><path d="M106.788 87.156c-.033.02-1.154-1.81-2.503-4.087-1.349-2.278-2.41-4.14-2.377-4.16.033-.02 1.154 1.81 2.503 4.087 1.346 2.278 2.411 4.14 2.377 4.16zm10.686 4.51c.003.028-.407.062-1.042.223-.318.078-.688.2-1.09.362a9.049 9.049 0 00-1.248.643c-.421.27-.795.563-1.118.85a8.12 8.12 0 00-.794.83c-.418.503-.625.857-.647.843-.008-.005.036-.097.128-.259a5.57 5.57 0 01.438-.651c.201-.265.465-.56.783-.864a8.01 8.01 0 011.132-.874c.432-.27.866-.482 1.276-.646.41-.159.792-.27 1.118-.337.326-.07.591-.106.777-.117.184-.01.287-.014.287-.002zm1.366-1.679c-.003.031-.449-.025-1.162.037-.357.028-.778.1-1.238.217-.454.125-.947.3-1.435.543a8.115 8.115 0 00-1.296.824c-.368.298-.677.59-.914.86-.477.535-.7.925-.725.908-.008-.005.045-.103.148-.278.05-.09.114-.195.203-.31.087-.116.176-.253.299-.39.228-.28.537-.59.908-.896.376-.3.817-.599 1.313-.85.499-.244 1-.42 1.469-.542a6.84 6.84 0 011.262-.19c.181-.016.346-.008.491-.005.145 0 .267.011.368.022.2.025.309.042.309.05z" fill="#263238"/><path opacity=".3" d="M89.116 79.519c-.658 1.241-.109 2.756.49 4.028.466.986.984 1.989 1.829 2.673.83.674 1.95.986 3.01.836a3.967 3.967 0 002.662-1.635c-3.543.014-6.963-2.403-8.128-5.744" fill="#000"/><path opacity=".3" d="M101.909 78.909c-.499 1.194-.123 2.832.401 4.015.527 1.183 1.082 2.506.658 3.734-.078.228-.192.46-.164.701.03.24.289.471.504.36.125-.064.181-.212.223-.346l1.19-3.572" fill="#FFB3C7"/><path d="M75.546 63.18c-.039-.006.09-1 .284-2.217.198-1.216.39-2.2.43-2.194.038.006-.09 1-.285 2.217-.198 1.22-.39 2.202-.429 2.194zm-2.938-.615c-.037.025-.516-.646-1.176-1.415-.66-.77-1.249-1.344-1.221-1.375.025-.028.663.504 1.33 1.284.668.774 1.097 1.486 1.067 1.506zm2.52-7.171c.016.011-.103.203-.315.501a18.72 18.72 0 01-1.845 2.17c-.26.256-.43.403-.444.39-.03-.032.58-.689 1.296-1.535.72-.844 1.274-1.55 1.308-1.526zm-.984-3.504c-.039.016-.198-.34-.507-.691-.304-.356-.633-.563-.61-.601.013-.034.395.128.721.506.326.376.432.777.396.785zm-2.541 2.157c.005.04-.318.123-.725.19-.407.063-.742.083-.747.044-.006-.039.318-.123.725-.19.407-.063.74-.083.747-.044zm6.413 3.096c-.045-.005.064-.593-.092-1.294-.148-.705-.49-1.195-.455-1.217.023-.028.438.448.594 1.186.165.735-.014 1.34-.047 1.325zm3.424 3.677c-.039.023-.332-.567-.897-1.13-.56-.568-1.149-.866-1.126-.904.01-.034.646.211 1.229.801.588.585.828 1.225.794 1.234zm-5.498 6.39c.014.034-.555.24-1.288.212-.733-.022-1.285-.267-1.268-.297.014-.042.569.133 1.274.153.708.027 1.27-.112 1.282-.067zm2.58 1.321c-.039-.014.178-.657.36-1.47.184-.813.262-1.484.303-1.481.037.002.023.69-.164 1.514-.181.824-.463 1.45-.499 1.437zm5.638.217c-.03.028-.574-.524-1.217-1.228-.644-.704-1.14-1.298-1.11-1.325.031-.028.575.523 1.218 1.228.641.704 1.137 1.297 1.11 1.325zm2.629 6.508c-.028.028-.435-.345-.909-.835-.474-.49-.833-.908-.805-.936.028-.028.434.345.908.835.474.488.834.908.806.936zm-4.883.618c.025.028-.44.46-1.112.846-.672.393-1.277.582-1.288.546-.016-.04.555-.287 1.215-.671.66-.382 1.16-.755 1.185-.721zm2.246 6.192c-.042-.01.126-.74.21-1.659.086-.916.058-1.665.102-1.668.037-.005.131.752.042 1.682-.086.93-.318 1.657-.354 1.645zm8.448-5.034c-.023.03-.62-.387-1.207-1.06-.591-.672-.923-1.318-.892-1.334.036-.023.42.581 1 1.239.577.662 1.126 1.122 1.099 1.155zm3.084 2.628c-.033-.025.39-.604.862-1.348.476-.743.822-1.367.86-1.35.034.017-.256.677-.738 1.428-.476.75-.953 1.292-.984 1.27zm-.45-6.43c-.011.04-.644-.097-1.416-.303-.772-.206-1.388-.406-1.38-.445.012-.04.644.097 1.416.303.772.21 1.391.407 1.38.446zm-2.249 11.314c-.04-.003-.04-.593.005-1.32.042-.727.109-1.314.15-1.312.04.003.04.593-.005 1.32-.044.724-.111 1.312-.15 1.312zm1.945 3.874c-.042-.02.25-.596.351-1.373.109-.773-.022-1.408.022-1.417.034-.014.232.63.12 1.437-.103.808-.465 1.376-.493 1.353zm-5.042-.858c-.036.005-.122-.649.03-1.44.151-.79.475-1.367.505-1.347.04.016-.217.607-.362 1.375-.15.769-.128 1.412-.173 1.412zm-4.598 1.962c-.029.031-.594-.45-1.31-1.016-.717-.568-1.313-1.005-1.29-1.038.021-.034.66.353 1.379.924.724.57 1.248 1.103 1.22 1.13zm3.115-5.46c.02.037-.714.46-1.633.95-.923.49-1.684.855-1.703.821-.02-.036.713-.46 1.633-.95.92-.49 1.683-.857 1.703-.82z" fill="#FAFAFA"/><path d="M98.076 96.32c0 .005-.061.019-.18.047-.12.022-.296.067-.525.097a12.035 12.035 0 01-4.844-.281 12.139 12.139 0 01-3.275-1.409 12.14 12.14 0 01-2.706-2.322 12.015 12.015 0 01-2.377-4.224c-.075-.22-.112-.395-.142-.512a1.082 1.082 0 01-.04-.181c.006 0 .029.058.068.175.041.115.086.287.167.504a12.554 12.554 0 002.425 4.154 12.26 12.26 0 002.68 2.287 12.298 12.298 0 003.234 1.403 12.693 12.693 0 004.8.356c.23-.02.406-.055.526-.07a.812.812 0 01.19-.024z" fill="#263238"/><path d="M89.752 94.88c-.034.012-.14-.61.13-1.316.263-.708.75-1.109.767-1.078.034.03-.384.457-.633 1.128-.256.67-.22 1.266-.264 1.266zm-2.297-.958c.02.04-.399.242-.725.688-.334.44-.412.9-.457.89-.036.007-.022-.5.34-.976.357-.482.836-.638.842-.602zm8.821 5.243c0 .036-.635-.014-1.282-.423-.652-.404-.978-.95-.945-.967.036-.027.399.46 1.023.841.616.396 1.215.507 1.204.549zm1.371-7.713c.036 0-.045.58-.5 1.111-.448.535-1.01.707-1.014.671-.02-.039.483-.262.906-.766.43-.495.566-1.03.608-1.016zm3.899 5.753c-.033-.028.335-.493.675-1.133.342-.64.521-1.206.563-1.192.036.008-.084.604-.435 1.261-.349.655-.775 1.09-.803 1.064zm5.153.76c.017.042-.49.242-1 .663-.516.415-.814.871-.85.846-.034-.014.223-.523.758-.958.532-.44 1.084-.587 1.092-.551zm-3.929-6.595c-.042.013-.287-.803-.8-1.705-.507-.905-1.078-1.534-1.045-1.565.014-.01.173.128.399.39a7.05 7.05 0 011.318 2.336c.109.329.145.538.128.543zm.772-8.293c.008.039-.583.209-1.321.379-.739.17-1.346.275-1.355.236-.008-.039.583-.208 1.321-.378.739-.17 1.344-.276 1.355-.237zM101.17 80.6c-.031.024-.413-.416-.853-.978-.44-.565-.77-1.044-.739-1.067.03-.025.413.413.853.978.438.565.769 1.041.739 1.066zm5.873-1.488c-.003.039-.611 0-1.335-.173-.728-.17-1.285-.41-1.271-.445.014-.04.588.133 1.304.303.716.173 1.307.273 1.302.315zm4.177-.073c-.037-.02.192-.524.426-1.161.234-.638.385-1.17.426-1.161.037.008-.05.562-.289 1.21-.237.65-.53 1.131-.563 1.112zm-.939 5.658c-.008.036-.588-.109-1.215-.485-.63-.37-1.034-.81-1.006-.835.028-.03.468.35 1.081.71.608.365 1.154.568 1.14.61zm2.717-.172c-.039-.008.097-.749.306-1.654.209-.905.41-1.631.449-1.62.039.008-.097.749-.306 1.654-.209.902-.41 1.629-.449 1.62zm-2.269 6.323c-.033.022-.474-.526-.987-1.225-.512-.702-.9-1.287-.869-1.312.033-.022.474.524.986 1.225.513.702.901 1.29.87 1.312zm3.872-2.417c-.039.017-.292-.484-.694-1.047-.398-.565-.789-.971-.758-1.002.025-.028.468.34.878.919.407.576.608 1.116.574 1.13zm3.626-.546c-.037.023-.402-.523-.892-1.163-.491-.644-.923-1.136-.892-1.167.028-.028.51.429 1.006 1.077.499.65.811 1.237.778 1.253zm-.853 2.403c-.044.003-.014-.481-.332-.95-.306-.475-.76-.64-.744-.679.006-.016.129-.002.304.087.176.086.396.259.563.512.167.254.24.523.251.719.011.197-.025.314-.042.311zm-2.829 3.295c-.023-.006-.014-.075-.037-.173a.563.563 0 00-.192-.32.564.564 0 00-.357-.108c-.1.002-.167.025-.175.005-.011-.014.041-.075.161-.108a.528.528 0 01.666.518c-.005.127-.05.192-.066.186zm-28.997 5.264c-.008.034-.733-.24-1.39-.905-.667-.66-.94-1.383-.906-1.39.039-.021.365.652 1.009 1.29.635.643 1.31.966 1.287 1.005z" fill="#FAFAFA"/><path d="M67.81 29.74c-.447-4.235-1.258-8.216-1.478-12.37-.01-.21-.033-.443-.198-.574-.222-.178-.576-.036-.721.209-.145.245-.142.545-.142.83a19.24 19.24 0 01-1.104 6.481c-.48 1.348-1.11 2.646-1.472 4.03-.362 1.383.315 1.854.937 3.14" fill="#FFBE9D"/><path d="M53.575 12.97c-.025.03-1.594-1.245-3.5-2.846-1.91-1.604-3.434-2.927-3.409-2.957.025-.031 1.595 1.241 3.5 2.845 1.91 1.604 3.437 2.927 3.41 2.957zm7.949-1.908c-.039.003-.197-2.472-.35-5.527-.154-3.054-.25-5.532-.208-5.535.039-.003.198 2.473.351 5.527.153 3.054.245 5.532.206 5.535zm-5.061-1.767c-.039.01-.526-1.4-1.092-3.155-.566-1.754-.992-3.185-.954-3.2.04-.01.527 1.401 1.093 3.155.563 1.755.992 3.186.953 3.2zm-4.512 6.283c-.017.036-.978-.37-2.151-.905-1.171-.537-2.107-1-2.09-1.036.016-.036.977.368 2.15.905 1.174.538 2.108 1 2.091 1.036zm-7.333-3.196c-.006.039-.237.044-.518.008-.282-.036-.505-.095-.5-.137.006-.039.238-.044.52-.008.278.036.504.095.498.137zm9.98-11.238c-.04 0-.073-.228-.073-.51 0-.28.034-.509.073-.509.039 0 .072.229.072.51s-.033.51-.072.51zm16.784 3.931c.03.028-1.257 1.501-2.87 3.291-1.617 1.79-2.95 3.222-2.98 3.194-.03-.028 1.254-1.5 2.87-3.291 1.617-1.79 2.95-3.221 2.98-3.194zm2.046-2.024c.028.028-.12.223-.331.432-.212.211-.405.359-.432.331-.028-.028.12-.223.331-.431.21-.212.404-.36.432-.332zm4.966 7.129c.006.008-.13.088-.379.225-.248.136-.61.328-1.064.554a55.674 55.674 0 01-7.31 3.027c-.483.158-.873.28-1.146.359-.273.077-.424.116-.427.108-.002-.008.142-.067.41-.161l1.129-.404a84.9 84.9 0 003.687-1.423 85.175 85.175 0 003.612-1.6c.44-.21.803-.382 1.081-.513.26-.12.405-.181.407-.173zm-4.074 6.852c.005.02-.277.117-.74.245-.462.128-1.111.278-1.833.4-.725.123-1.385.196-1.865.23-.48.033-.778.033-.778.013-.002-.022.293-.056.77-.117a39.636 39.636 0 003.684-.63c.466-.097.755-.16.761-.141zm3.703-.685c0 .04-.36.073-.802.073-.444 0-.803-.034-.803-.073 0-.039.36-.072.803-.072.443 0 .802.033.802.072z" fill="#263238"/><path d="M63.63 31.486c-1.111-.827-1.702-2.3-1.47-3.664.138-.835.554-1.595.883-2.375.331-.78.582-1.643.381-2.467-.078-.314-.22-.618-.22-.944-.003-.323.206-.685.53-.701.245-.012.451.175.604.364.541.671.979 2.634.706 4.096" fill="#FFBE9D"/><path d="M65.044 25.797c-.014-.002.028-.225.045-.632a7.577 7.577 0 00-.142-1.71 5.972 5.972 0 00-.335-1.132 2.29 2.29 0 00-.312-.566c-.134-.17-.312-.34-.524-.353-.212-.017-.396.17-.465.39-.078.22-.028.47.044.715.076.245.168.51.195.788a3.15 3.15 0 01-.03.84c-.195 1.131-.797 2.045-1.104 2.947-.156.45-.25.896-.248 1.32-.003.423.067.815.173 1.158a3.97 3.97 0 00.836 1.476c.273.3.46.431.449.442a.798.798 0 01-.137-.092 2.843 2.843 0 01-.354-.312 3.85 3.85 0 01-.895-1.483 3.94 3.94 0 01-.195-1.192c-.008-.437.087-.902.243-1.365.306-.924.9-1.837 1.084-2.926.047-.27.056-.54.03-.802-.024-.264-.108-.51-.186-.763-.075-.25-.134-.537-.042-.802a.79.79 0 01.22-.342.517.517 0 01.385-.136c.284.024.474.228.616.409.148.19.24.398.323.598.162.404.257.8.323 1.159.129.724.132 1.322.098 1.732-.02.203-.039.361-.061.467-.014.114-.028.167-.034.167z" fill="#EB996E"/><path d="M101.483 48.412c.147.802.908 1.42 1.722 1.487.811.066 1.625-.368 2.099-1.03.474-.663.63-1.52.521-2.328-.159-1.172-.939-2.3-2.071-2.648-1.131-.351-2.539.273-2.851 1.414l-1.304 1.821 1.884 1.284z" fill="#263238"/><path d="M99.941 44.84a7.584 7.584 0 00-6.82-8.493c-4.046-.384-7.642 2.626-8.246 6.638-.533 3.52-.99 7.072-.973 8.361.05 3.89 2.327 5.405 3.252 5.862.212.102.792.222 1.026.256.014.002.025.016.022.03l-.864 4.466c-.393 2.927 1.243 5.536 4.167 5.962 2.935.426 5.228-1.821 5.674-4.75l2.762-18.333z" fill="#FFBE9D"/><path d="M85.543 45.263c.064.092.58-.184 1.237-.086.66.089 1.096.498 1.176.426.04-.03-.016-.187-.203-.37a1.696 1.696 0 00-.928-.44 1.636 1.636 0 00-1 .17c-.224.125-.316.258-.282.3zm5.864 1.269c.064.092.58-.184 1.238-.086.66.089 1.095.498 1.176.426.039-.031-.017-.187-.204-.37a1.695 1.695 0 00-.928-.44 1.637 1.637 0 00-1 .17c-.223.124-.312.258-.282.3zm-2.28 3.114c.009-.036-.39-.167-1.042-.348-.164-.042-.32-.098-.331-.217-.023-.128.075-.298.183-.482l.686-1.208c.959-1.724 1.678-3.15 1.608-3.188-.07-.04-.903 1.328-1.859 3.051-.231.426-.454.83-.666 1.22-.092.18-.234.381-.184.646a.426.426 0 00.24.286c.103.048.198.065.278.081.667.131 1.08.195 1.087.159z" fill="#263238"/><path d="M88.202 57.467s2.514.579 5.978-.87c0 0-1.494 3.217-6.21 2.072l.232-1.202zm.973-6.197c.281-.278.722-.39 1.129-.286.281.072.552.253.69.51.14.258.13.592-.06.793-.215.223-.594.228-.898.092-.3-.137-.543-.382-.77-.627a.653.653 0 01-.158-.223c-.033-.083-.028-.189.036-.245" fill="#EB996E"/><path d="M91 50.383c-.105-.022-.211.693-.897 1.11-.685.421-1.438.23-1.457.33-.017.044.15.164.47.22.316.055.792.022 1.21-.234a1.57 1.57 0 00.708-.939c.07-.295.017-.484-.033-.487zm.861-5.994c.04.189.71.2 1.469.406.764.19 1.355.507 1.48.362.056-.07-.028-.253-.254-.465a2.554 2.554 0 00-1.056-.551 2.57 2.57 0 00-1.19-.034c-.301.073-.463.193-.449.282zM86.21 43.23c.094.166.57.077 1.117.15.55.053.995.247 1.123.105.059-.07.006-.228-.175-.4-.179-.17-.494-.335-.873-.38-.376-.04-.722.045-.933.17-.215.132-.301.276-.26.354z" fill="#263238"/><path d="M84.11 42.114c.805 1.227 3.363.47 4.907-.374 1.628 1.078 3.888.61 5.014-1.038.884 1.125 2.678.752 3.334-.515.654-1.267.287-3.013-.614-4.121-.9-1.108-2.215-1.668-3.514-1.907-3.08-.568-6.433.623-8.275 3.405-.847 1.283-1.357 3.013-.853 4.55z" fill="#263238"/><path d="M92.62 34.599c-.003.053-.728-.087-1.867.105-1.12.187-2.695.772-3.872 2.08-1.148 1.328-1.669 2.902-1.859 4.026-.192 1.142-.044 1.86-.094 1.866-.014.003-.062-.173-.106-.498a5.923 5.923 0 01.022-1.393c.15-1.158.652-2.781 1.848-4.168 1.229-1.37 2.876-1.943 4.033-2.088a5.651 5.651 0 011.393-.022c.326.03.505.078.502.092z" fill="#455A64"/><path d="M88.456 40.318c-.014.002-.048-.154-.062-.438a4.428 4.428 0 01.126-1.2c.22-.985.933-2.35 2.313-3.168 1.385-.808 2.926-.771 3.896-.485.493.14.87.323 1.112.474.243.15.363.253.354.267-.025.047-.54-.337-1.51-.565-.948-.234-2.414-.234-3.724.532-1.304.774-2.012 2.054-2.269 2.996-.27.952-.183 1.587-.236 1.587z" fill="#455A64"/><path d="M95.845 38.984c-.26 1.097-.519 2.206-.519 3.33 0 1.128.282 2.29 1 3.158 1.077 1.297 2.871 1.69 4.527 2.005a13.074 13.074 0 00.772-6.972c-.187-1.142-.555-2.3-1.36-3.133-1.162-1.197-3.186-1.44-4.596-.548" fill="#263238"/><path d="M96.764 44.374c-.438.941-.404 2.03-.254 3.057.15 1.028.413 2.044.401 3.083-.01 1.035-.34 2.135-1.153 2.779-.232.183-.5.325-.691.548-.196.223-.299.563-.145.813.156.25.624.245.694-.042l-.042.073c-.179.303.039.701.39.693.552-.011 1.118-.303 1.488-.73.532-.615.744-1.442.884-2.244.429-2.458.345-5.006 1.025-7.409" fill="#263238"/><path d="M87.316 60.52a6.067 6.067 0 003.032 3.954 6.092 6.092 0 004.978.298c1.444-.557 2.606-1.643 3.732-2.703a8.846 8.846 0 01-1.79 6.877c-1.521 1.907-3.876 3.127-6.315 3.274-1.845.112-3.832-.454-4.992-1.89-.81-1.003-1.14-2.334-1.126-3.623.014-1.289.343-2.553.728-3.784.331-1.052.85-2.233 1.917-2.52" fill="#FFE6EC"/><path d="M100.537 47.565c1.104.598 1.711 1.851 1.923 3.088.215 1.236.106 2.503.159 3.756.053 1.253.293 2.564 1.087 3.536.842 1.033 2.16 1.523 3.333 2.155 2.598 1.4 4.735 3.77 5.519 6.613.783 2.843.072 6.13-2.06 8.172-1.94 1.857-4.766 2.509-7.45 2.5-1.917-.005-4.019-.412-5.214-1.907-1.182-1.479-1.126-3.592-.697-5.432.432-1.84 1.184-3.634 1.212-5.525a9.838 9.838 0 01-1.471 3.27c-.195.28-.533.587-.836.425-.338-.178-.21-.682-.053-1.03 2.31-5.132 1.505-15.475 2.873-21.142" fill="#263238"/><path d="M98.634 46.98c.07-.022 2.765-.531 2.417 2.13-.346 2.663-2.95 1.766-2.944 1.69.006-.077.527-3.82.527-3.82z" fill="#FFBE9D"/><path d="M99.053 49.895c.014-.008.041.04.117.084.072.044.2.086.345.053.296-.067.591-.482.667-.961a1.524 1.524 0 00-.045-.68c-.056-.205-.165-.356-.304-.4a.236.236 0 00-.29.092c-.044.07-.036.125-.05.128-.008.005-.05-.053-.017-.159a.302.302 0 01.126-.153.34.34 0 01.265-.034c.203.042.365.254.432.477.078.225.108.492.064.762-.087.535-.427 1-.825 1.061a.501.501 0 01-.416-.125c-.072-.08-.078-.142-.07-.145z" fill="#EB996E"/><path d="M84.56 66.26c-.02-.011.164-.323.454-.824.285-.501.686-1.197.962-2.03.276-.832.323-1.637.24-2.202-.078-.568-.24-.897-.215-.905.008-.003.056.072.12.223.067.15.142.376.195.665.111.576.08 1.412-.204 2.264-.284.852-.702 1.548-1.011 2.038-.156.245-.287.44-.382.57-.095.137-.15.207-.159.201z" fill="#263238"/><path d="M85.92 63.186c-.04.008-.118-.226-.355-.387-.234-.167-.482-.16-.485-.198-.003-.017.059-.05.167-.05a.702.702 0 01.402.13c.14.098.225.229.262.332.033.1.025.17.008.173zm1.719-.004c-.04.023-.248-.362-.686-.643-.432-.29-.867-.331-.861-.376-.008-.036.47-.058.942.254.47.309.641.757.605.765zm1.085 5.651c-.04-.008.033-.518.161-1.136.128-.621.265-1.117.304-1.108.039.008-.033.518-.162 1.136-.13.62-.264 1.116-.303 1.108zm4.348.851c-.04 0-.056-.54-.037-1.203.02-.662.07-1.2.11-1.197.038 0 .055.54.035 1.203-.02.663-.07 1.197-.108 1.197z" fill="#FAFAFA"/><path d="M4.298 82.055L0 100.755l9.089.028 4.2-16.445-8.991-2.283z" fill="#B78876"/><path d="M48.932 59.087c-.864-1.159-1.857-2.27-2.31-3.64-.221-.662-.307-1.364-.542-2.021-.234-.657-.66-1.297-1.312-1.545s-1.148.002-1.572.468l-3.119 9.113 1.798 7c1.795-.404 4.041-.883 5.719-1.638 1.675-.754 2.798-1.963 2.904-3.797.078-1.44-.702-2.782-1.566-3.94z" fill="#263238"/><path d="M20.548 57.474S9.707 62.19 8.352 64.314c-1.354 2.128-5.805 17.294-5.805 17.294l11.413 3.355-.187 15.788h28.01l-.232-27.835-3.514-15.387s-6.184-.398-6.756-.68c-.574-.28-10.733.625-10.733.625z" fill="#FFB3C7"/><path d="M59.077 18.88c.089-.638-.357-1.34-.036-1.9.178-.308.535-.459.869-.587.173-.067.348-.133.532-.128.184.006.38.106.438.279.07.203-.061.423-.215.573-.153.153-.34.284-.42.485-.11.267-.009 1.105.103 1.37.19.456.864 2.489.922 2.979" fill="#B78876"/><path d="M56.788 19.1c.04-.966.825-4.775.864-5.741.655.2 1.034.897 1.157 1.57.122.674.058 1.368.175 2.041.156.905.627 1.721 1.101 2.506.474.786.97 1.582 1.182 2.476.212.893 1.023 3.207.393 3.875m-5.053-.211l-3.874 18.399c-.136.83-14.696 13.515-14.696 13.515l2.876 11.475L59.88 50.48a7.677 7.677 0 002.074-5.396l-.32-17.263-5.026-2.205z" fill="#B78876"/><path d="M55.944 19.217l.664 6.399 5.025 2.205s.061-.454.278-2.673c.237-2.448-2.394-3.497-3.567-5.302-.502-.774-.37-2.194-.758-3.954a358.79 358.79 0 00-.477-2.093 1.476 1.476 0 00-.602-.905c-.225-.153-.485-.229-.671 0-.193.23.108 6.323.108 6.323z" fill="#B78876"/><path d="M59.076 26.687c.572-.482.694-1.345.482-2.06-.211-.716-.694-1.318-1.184-1.883s-1.006-1.125-1.307-1.81c-.212-.481-.31-1.008-.544-1.478-.234-.47-.66-.902-1.184-.925.42 2.648.41 4.171 1.27 7.081" fill="#B78876"/><path d="M55.85 21.55c0 .011-.02-.072-.053-.211-.036-.17-.081-.37-.134-.607-.117-.555-.27-1.27-.443-2.083l-.017-.078.08-.006c.333-.025.675.12.937.351.438.373.639.897.786 1.34.145.45.27.852.44 1.16.157.318.369.513.491.677.123.162.173.26.167.265-.008.005-.078-.081-.209-.229-.128-.145-.365-.337-.538-.662-.186-.312-.326-.724-.476-1.17-.153-.44-.349-.93-.753-1.275-.242-.212-.546-.34-.833-.32l.064-.084c.332 1.68.55 2.935.49 2.932zm2.251-1.628c-.039.005-.248-1.164-.463-2.612-.214-1.448-.36-2.628-.317-2.634.039-.006.248 1.164.462 2.612.215 1.447.357 2.628.318 2.634zm1.596.214c.009 0 .02.03.037.097l-.042.008c-.095-.23-.312-.952-.505-1.82a18.518 18.518 0 01-.259-1.384c-.053-.357-.07-.58-.05-.582.042-.006.212.866.452 1.935.192.866.367 1.595.406 1.84l-.041.009c-.006-.067-.003-.1.002-.103z" fill="#7C5142"/><path d="M60.687 23.663c-.02.011-.122-.145-.323-.36a3.18 3.18 0 00-.92-.673 3.22 3.22 0 00-1.1-.3c-.293-.026-.48-.006-.483-.031-.002-.017.181-.073.488-.073a2.71 2.71 0 011.16.273 2.7 2.7 0 01.933.738c.19.242.26.42.245.426zm-3.625 2.457c-.017.005-.15-.28-.329-.758a17.15 17.15 0 01-.928-3.87c-.059-.507-.067-.822-.047-.824.022-.003.066.309.15.81.084.501.209 1.189.39 1.943.181.752.38 1.426.532 1.908.151.484.251.782.232.79z" fill="#7C5142"/><path d="M34.634 57.856c.465-.777 1.61-1.044 2.374-.554 2.046-1.663 4.14-3.291 6.185-4.954-.67 3.333-1.107 8.002.382 11.057 0 0 1.886 3.505 4.89 2.968l-2.678 2.631-4.236 3.912" fill="#FFB3C7"/><path d="M33.97 59.423c-.036.003.003-.618.394-1.256.387-.64.92-.96.936-.927.028.033-.443.393-.811 1.002-.373.605-.474 1.19-.518 1.18zm2.211 2.047c-.014.005-.134-.215-.234-.61a3.892 3.892 0 01-.042-1.574c.109-.612.354-1.13.583-1.464.228-.337.418-.501.429-.493.02.017-.142.206-.34.546-.2.34-.421.843-.527 1.434a4.496 4.496 0 000 1.528c.067.39.153.621.131.632z" fill="#263238"/><path d="M46.42 68.634s-.214.15-.666.268c-.445.12-1.145.175-1.953-.059-.806-.225-1.675-.805-2.347-1.682-.683-.871-1.145-2.024-1.4-3.26-.478-2.487-.459-4.792-.334-6.435.065-.824.16-1.487.235-1.94.036-.229.072-.404.094-.524a.923.923 0 01.045-.18.76.76 0 01-.017.183 30.762 30.762 0 00-.256 2.467c-.1 1.637-.1 3.934.373 6.398.251 1.223.703 2.353 1.363 3.208.652.86 1.488 1.431 2.272 1.665a3.753 3.753 0 001.909.103c.451-.097.677-.228.682-.212z" fill="#FAFAFA"/><path d="M14.019 89.65c-.04 0-.073-3.956-.073-8.84 0-4.883.034-8.84.073-8.84.039 0 .072 3.957.072 8.84 0 4.884-.03 8.84-.072 8.84zm-.224-20.732c-.03 0-.022-.395-.159-1.01a5.597 5.597 0 00-.348-1.047 6.35 6.35 0 00-.688-1.159 6.363 6.363 0 00-.94-.968 5.45 5.45 0 00-.92-.61c-.557-.295-.944-.39-.933-.418.003-.008.097.011.273.056.086.022.192.053.31.1.116.047.256.092.398.17.293.133.619.34.956.599.332.267.669.595.97.985.295.393.524.805.697 1.195.161.392.273.763.326 1.08.036.156.044.303.058.429.017.125.017.236.017.326-.003.175-.008.272-.017.272zm19.092-11.564c.006 0 .02.08.047.234.031.153.053.384.073.682.03.593-.022 1.47-.349 2.492a7.295 7.295 0 01-2.02 3.124c-1.045.96-2.55 1.62-4.186 1.746-1.636.117-3.222-.31-4.401-1.105a7.31 7.31 0 01-2.464-2.79 7.122 7.122 0 01-.716-2.412 5.664 5.664 0 01-.02-.924c.006 0 .012.083.02.24.003.155.022.384.059.679.075.585.273 1.431.75 2.372a7.25 7.25 0 002.444 2.723c1.156.774 2.711 1.186 4.317 1.072 1.602-.125 3.076-.765 4.105-1.701a7.304 7.304 0 002.012-3.057 7.355 7.355 0 00.388-2.459 6.52 6.52 0 00-.045-.68 1.36 1.36 0 01-.014-.236z" fill="#263238"/><path d="M13.779 81.512c-.014.039-2.313-.688-5.142-1.62-2.826-.934-5.109-1.722-5.095-1.76.014-.04 2.313.687 5.142 1.62 2.826.933 5.109 1.72 5.095 1.76zm27.499-3.865c0 .039-6.145.097-13.726.13-7.583.031-13.729.026-13.729-.013 0-.04 6.146-.097 13.73-.131 7.58-.033 13.725-.025 13.725.014zm.14 2.422c0 .039-6.18.072-13.796.072-7.623 0-13.799-.033-13.799-.072 0-.04 6.176-.073 13.799-.073 7.62 0 13.796.034 13.796.073z" fill="#FAFAFA"/><path d="M37.633 83.018c.006.003-.022.078-.078.225l-.25.635-.184.457c-.073.164-.16.342-.248.532-.184.379-.374.821-.639 1.28l-.398.733c-.14.253-.307.504-.468.771-.318.538-.709 1.078-1.11 1.654a30.04 30.04 0 01-2.982 3.453 29.945 29.945 0 01-3.514 2.912c-.586.39-1.132.771-1.678 1.075-.27.156-.524.317-.78.454l-.74.384c-.465.256-.91.437-1.292.612-.193.087-.371.17-.538.237-.167.064-.32.123-.463.176-.267.1-.482.178-.64.236a1.34 1.34 0 01-.227.073 1.278 1.278 0 01.218-.1c.156-.065.365-.154.63-.262.139-.056.29-.12.457-.187.164-.072.34-.159.532-.248.38-.18.82-.37 1.28-.629.233-.125.476-.256.732-.39.254-.136.505-.3.775-.46.54-.308 1.084-.69 1.664-1.082a30.805 30.805 0 003.49-2.907 31.16 31.16 0 002.976-3.428c.401-.57.797-1.105 1.115-1.64.164-.264.331-.512.473-.763.143-.25.276-.492.407-.724.27-.456.466-.89.655-1.266.092-.19.184-.362.26-.527l.195-.45c.114-.262.206-.471.276-.624.055-.14.091-.215.094-.212z" fill="#263238"/><path opacity=".3" d="M36.502 85.44c-1.873 2.277-3.835 3.928-6.586 4.992-1.318.51-2.698.855-3.974 1.459-1.277.604-2.478 1.515-3.052 2.804-.443.997-.229 2.498.839 2.723.404.086.822-.045 1.212-.187 5.449-1.974 9.03-6.952 11.56-11.791z" fill="#000"/><path d="M17.014 35.887c-1.176.922-1.254 2.645-1.195 4.138.058 1.492.075 3.19-1.006 4.22-.892.85-2.453 1.165-2.71 2.37-.12.563.148 1.186.639 1.487.49.3 1.168.256 1.614-.106-.38.941-.207 2.152.596 2.773.806.621 2.216.332 2.52-.637-.19.64.253 1.395.905 1.548.652.15 1.38-.331 1.494-.991m14.212-3.994c.245.755 1.17 1.206 1.917.936.747-.27 1.168-1.209.872-1.946-.23-.577-.825-1.014-.852-1.638-.034-.751.755-1.25 1.449-1.542.694-.295 1.508-.68 1.62-1.426.105-.718-.514-1.314-1.035-1.824-.518-.509-1.017-1.283-.652-1.912.187-.323.552-.496.797-.777.54-.621.323-1.665-.301-2.203-.624-.537-1.519-.651-2.336-.545-.816.105-1.596.406-2.396.601a9.86 9.86 0 01-7.793-1.403" fill="#263238"/><path d="M17.811 41.628l2.87 16.605a5.35 5.35 0 0010.6-1.383c-.13-1.473-.245-2.693-.245-2.693s4.164-1.069 3.804-5.296c-.173-2.043-.875-6.223-1.552-9.995-.728-4.054-4.454-6.864-8.556-6.466l-.407.04c-4.376.684-7.322 4.841-6.514 9.188z" fill="#B78876"/><path d="M32.4 41.607a.607.607 0 01-.524.665.58.58 0 01-.675-.484.607.607 0 01.521-.666.583.583 0 01.678.485z" fill="#263238"/><path d="M32.58 41.027c-.066.086-.557-.21-1.206-.142-.65.055-1.093.437-1.17.362-.04-.031.024-.181.217-.354.19-.17.524-.35.928-.387.404-.036.76.078.97.212.214.136.295.27.262.309zm-6.538 1.318a.607.607 0 01-.524.666.58.58 0 01-.674-.485.607.607 0 01.52-.665.582.582 0 01.678.484z" fill="#263238"/><path d="M26.207 41.77c-.067.086-.558-.21-1.207-.143-.65.056-1.093.438-1.173.362-.04-.03.022-.18.217-.353.19-.17.524-.351.928-.387a1.6 1.6 0 01.97.211c.217.134.298.27.265.31zm2.828 4.583c-.005-.037.39-.145 1.037-.293.165-.033.318-.08.335-.197.027-.123-.06-.296-.16-.482l-.613-1.214c-.855-1.73-1.493-3.16-1.424-3.194.07-.033.822 1.342 1.678 3.071.206.426.404.836.594 1.223.08.18.209.384.15.643a.422.422 0 01-.248.27c-.103.042-.195.053-.279.067-.657.1-1.064.142-1.07.106zm-2.909-7.141c-.048.183-.703.161-1.458.328-.755.15-1.349.434-1.466.284-.053-.072.04-.248.27-.443.229-.195.608-.395 1.06-.49.451-.094.877-.064 1.167.023.293.086.446.211.427.297zm6.034-.04c-.1.159-.563.05-1.1.095-.541.025-.985.195-1.104.053-.053-.07.002-.226.19-.384.18-.16.498-.304.869-.329.37-.025.705.078.905.212.207.13.282.275.24.353zm-10.212-2.62c-.009.005-.014.014-.023.02A3.327 3.327 0 0020.9 38.84c0 .03-.003.058-.003.086-.047 1.22.1 2.442.042 3.664-.059 1.22-.357 2.484-1.168 3.4-.332.376-.959.674-1.299.303-.13-.142-.17-.345-.203-.537-.51-2.887-1.555-5.39-1.848-8.431a2.58 2.58 0 01.861-2.191c.594-.518 1.324-1.067 2.065-.802.744.267 1.79 1.5 2.392 2.01" fill="#263238"/><path d="M19.423 43.402c-.076-.025-2.988-.576-2.615 2.303.374 2.879 3.189 1.91 3.183 1.826-.005-.083-.568-4.129-.568-4.129z" fill="#B78876"/><path d="M18.97 46.554c-.013-.008-.044.042-.125.092a.515.515 0 01-.373.056c-.318-.073-.638-.521-.72-1.04a1.643 1.643 0 01.048-.734c.061-.223.178-.387.329-.434a.258.258 0 01.315.1c.05.075.039.136.053.139.008.006.056-.056.017-.173a.327.327 0 00-.137-.167.383.383 0 00-.287-.036c-.22.045-.393.276-.465.515a1.714 1.714 0 00-.07.824c.095.577.462 1.083.895 1.148a.532.532 0 00.448-.137c.076-.084.081-.148.073-.153z" fill="#7C5142"/><path d="M19.297 34.79c-.825-1.086.964-2.935 2.347-3.522 1.382-.588 3.327-.076 4.793.256.926.209 1.857.537 2.796.406.63-.086 1.21-.376 1.786-.646.577-.27 1.18-.526 1.815-.546.635-.019 1.318.254 1.613.816.296.563.031 1.398-.585 1.546.758-.518 1.97-.053 2.188.838.217.89-.644 1.86-1.552 1.754.381-.35 1.061.1 1.059.618 0 .518-.43.936-.881 1.189-1.154.646-2.575.615-3.863.317-1.287-.298-2.508-.838-3.79-1.17-1.28-.328-3.431-.935-4.63-.378-.883.412-1.41 1.573-1.95 1.381-.522-.186-.89-.676-1.043-1.208-.153-.535-.128-1.097-.103-1.651zm.161 9.105c.084 1.526.167 3.06.524 4.547.357 1.486 1.003 2.934 2.076 4.023 1.405 1.428 3.222 2.795 5.2 3.121 2.16.357 4.803-.094 6.562-1.397.833-.619 1.44-1.952 1.181-2.957a2.197 2.197 0 001.255-1.84c.041-.78-.432-1.755-1.051-1.858.465-.075.596-.81.42-1.228-.18-.434-.785-.54-1.248-.451-.463.09-.867.362-1.246.64-.379.279-.76.574-1.207.719-1.493.484-3.007-.83-4.576-.771-1.418.055-2.681 1.23-4.088 1.032-.786-.11-1.464-.654-1.896-1.317-.434-.665-.245-3.124-.415-3.898" fill="#263238"/><path opacity=".6" d="M30.844 50.52c-.011.02-.134-.044-.346-.102a1.922 1.922 0 00-.839-.042 1.912 1.912 0 00-.772.334c-.178.128-.27.231-.287.217-.014-.008.056-.136.229-.292a1.664 1.664 0 011.703-.31c.212.087.32.182.312.196z" fill="#455A64"/><path d="M27.792 47.322c.106-.017.176.688.828 1.128.652.443 1.396.29 1.41.39.014.044-.153.153-.471.192a1.759 1.759 0 01-1.173-.284 1.538 1.538 0 01-.65-.953c-.053-.289.009-.473.056-.473z" fill="#fff"/><path d="M25.695 55.116c.003-.005.064.02.182.067.12.044.295.106.526.17.463.13 1.149.27 2.007.314.43.026.9.023 1.402-.027a7.619 7.619 0 001.575-.307 6.223 6.223 0 001.605-.732c.518-.326 1.014-.738 1.39-1.264.444-.621.672-1.4.553-2.086l-.012-.058.053-.022c.357-.153.647-.423.87-.719.111-.147.209-.306.281-.467.073-.16.109-.334.126-.504a1.995 1.995 0 00-.672-1.685l-.039-.033.033-.042c.285-.35.301-.816.17-1.144a1.098 1.098 0 00-.64-.627 1.219 1.219 0 00-.58-.08c-.137.016-.204.041-.206.033 0 0 .064-.036.203-.064.136-.025.351-.034.605.055.248.087.552.287.7.652.147.35.139.85-.168 1.245l-.008-.076c.46.376.791 1.044.73 1.78a1.795 1.795 0 01-.131.543 2.48 2.48 0 01-.293.495c-.234.31-.535.596-.925.766l.042-.081c.134.752-.109 1.55-.569 2.202-.39.546-.903.972-1.432 1.3-.53.335-1.09.583-1.642.739a7.495 7.495 0 01-1.602.297c-.51.048-.987.042-1.419.012a8.607 8.607 0 01-2.015-.362 4.335 4.335 0 01-.521-.198c-.123-.056-.181-.086-.179-.092zm-12.632-7.345s-.059-.011-.148-.072a.835.835 0 01-.293-.368 1.249 1.249 0 01-.058-.74c.061-.293.267-.585.554-.813.29-.232.658-.404 1.06-.549.398-.148.833-.278 1.231-.523.399-.24.722-.63.928-1.092.212-.462.313-.991.33-1.531.022-1.089-.23-2.122-.257-3.083-.045-.957.14-1.857.577-2.458.432-.604 1.006-.883 1.405-.955.2-.042.362-.03.468-.025a.582.582 0 01.159.033c0 .02-.226-.044-.616.047-.382.087-.928.37-1.332.958-.407.585-.58 1.454-.53 2.395.033.944.29 1.974.267 3.093-.016.557-.12 1.106-.342 1.587a2.547 2.547 0 01-.99 1.148c-.42.253-.864.378-1.26.523-.398.14-.755.3-1.036.518-.279.214-.474.482-.538.752-.07.27-.036.517.03.701.154.368.407.437.39.454zm20.893-14.726a.753.753 0 01.129-.059.977.977 0 01.161-.055c.067-.02.142-.04.232-.047.348-.053.928.03 1.418.509l.003.003c.329.412.524 1.041.432 1.726-.078.685-.488 1.395-1.143 1.885-.65.501-1.513.79-2.422.841-.914.056-1.864-.084-2.814-.31a12.745 12.745 0 01-4.084-1.806c-.576-.373-1.12-.727-1.675-.975a4.574 4.574 0 00-1.616-.412 4.894 4.894 0 00-2.372.44c-.524.248-.772.457-.78.443 0 0 .234-.228.755-.493a4.8 4.8 0 012.402-.493 4.719 4.719 0 011.659.404c.566.248 1.12.601 1.697.972a12.825 12.825 0 004.047 1.779c.94.225 1.881.362 2.77.309.89-.047 1.725-.323 2.355-.802.636-.47 1.032-1.144 1.112-1.799.098-.654-.083-1.26-.39-1.66l.003.004c-.457-.46-1.015-.56-1.355-.521-.345.036-.52.134-.524.117z" fill="#455A64"/><path d="M32.48 30.591s.02.24-.131.638c-.153.39-.527.922-1.19 1.3a3.42 3.42 0 01-1.162.418c-.44.072-.923.07-1.416.005-.995-.122-2.024-.515-3.105-.852-1.079-.336-2.171-.537-3.127-.33a4.118 4.118 0 00-2.2 1.28 4.305 4.305 0 00-.891 1.492c-.128.396-.153.627-.17.624a3.475 3.475 0 01.117-.64 4.15 4.15 0 01.867-1.546 4.179 4.179 0 012.246-1.342c.992-.22 2.113-.016 3.197.323 1.09.34 2.107.73 3.082.858a4.88 4.88 0 001.38.008 3.37 3.37 0 001.131-.387c.65-.356 1.026-.857 1.19-1.23.16-.385.162-.621.182-.619z" fill="#455A64"/></svg>