<svg width="108" height="80" fill="none" xmlns="http://www.w3.org/2000/svg"><g clip-path="url(#clip0_3314_7341)"><g opacity=".21"><path d="M16.127 26.157s-2.264.407-.802 5.404c1.439 4.997 2.618 7.555 2.618 7.555s.212 1.148-.707 1.124c-.92 0-2.783-.693-3.373.335-.613 1.052 0 2.271 1.462 3.538 1.463 1.243 4.6 4.113 4.882 4.376.283.263.495.813-.118.908-.613.096-5.07-.263-5.117 1.865-.048 2.128 4.622 4.95 5.117 5.26.495.31.59.574.495.86-.094.288-1.58.025-2.853-.023-1.274-.048-2.736.12-2.665 1.363.07 1.243 2.57 4.303 9.646 6.383l3.325.742 2.358-2.535c4.717-5.714 5.118-9.66 4.505-10.735-.614-1.076-1.934-.383-2.972.383-1.014.765-2.099 1.817-2.358 1.625-.236-.19-.307-.454-.07-1.004.235-.55 2.57-5.499 1.367-7.268-1.226-1.77-4.717 1.052-5.283 1.315-.566.263-.684-.311-.59-.694.095-.382 1.11-4.518 1.651-6.383.543-1.865.378-3.228-.707-3.754-1.061-.502-2.24 1.124-2.995 1.626-.755.526-1.203-.55-1.203-.55s-.424-2.797-1.98-7.77c-1.51-4.902-3.68-3.922-3.68-3.922" fill="#EBEBEB"/><path d="M28.06 66.707c-1.108-3.658-2.995-10.185-4.622-15.804-1.65-5.595-3.136-10.663-4.221-14.321-.543-1.818-.99-3.3-1.297-4.328-.142-.502-.283-.908-.354-1.171-.047-.144-.07-.24-.095-.311-.023-.072-.023-.096-.023-.096s.023.024.047.096c.024.071.047.167.094.31.095.264.213.67.378 1.172.33 1.028.778 2.487 1.344 4.328a1391.98 1391.98 0 014.245 14.321c1.65 5.595 3.514 12.146 4.599 15.804" fill="#E0E0E0"/><path d="M16.458 41.652s.07.024.212.12c.141.07.33.19.59.334a46.96 46.96 0 011.886 1.195l1.84 1.244c.212.143.4.263.566.382l.212.144s-.094-.024-.212-.12c-.142-.072-.33-.191-.59-.335-.495-.31-1.132-.74-1.863-1.219a68.913 68.913 0 00-1.863-1.22 9.822 9.822 0 00-.566-.358c-.142-.096-.212-.143-.212-.167zm5.565 3.25c-.023-.024.779-1.434 1.793-3.18 1.014-1.745 1.863-3.132 1.886-3.132.024.024-.778 1.435-1.792 3.18s-1.863 3.132-1.887 3.132zm2.122 8.702s.047-.072.165-.191c.142-.12.307-.287.496-.479.424-.406.99-.956 1.627-1.602.613-.645 1.155-1.243 1.556-1.673.19-.215.33-.383.472-.526.118-.12.165-.192.189-.192l-.142.216c-.094.12-.236.31-.424.55a26.837 26.837 0 01-1.533 1.697 22.632 22.632 0 01-1.651 1.578c-.212.191-.401.359-.519.454-.165.12-.236.192-.236.168zm-5.661-1.792s.094 0 .235.048c.166.048.378.096.614.167a82.24 82.24 0 012.004.598c.779.24 1.486.454 2.005.622.236.071.448.143.613.19.142.049.212.073.212.096 0 0-.094 0-.236-.047-.165-.048-.377-.096-.613-.168a82.24 82.24 0 01-2.004-.597c-.779-.24-1.486-.455-2.005-.622-.236-.072-.448-.143-.613-.191a1.843 1.843 0 00-.212-.096zm.92 7.938l.283.071c.212.048.471.12.778.215.66.191 1.58.454 2.57.741 1.015.287 1.91.574 2.571.765.307.096.566.192.778.24.19.071.284.095.284.095l-.284-.072a9.816 9.816 0 01-.778-.215l-2.57-.74c-1.014-.288-1.91-.575-2.57-.766-.308-.096-.567-.191-.78-.239-.188-.048-.282-.096-.282-.096zm7.126 2.032s.07-.095.211-.239c.166-.167.354-.382.614-.621a66.721 66.721 0 001.98-2.104 70.698 70.698 0 001.91-2.176c.237-.263.425-.502.567-.67.141-.167.212-.239.212-.239s-.07.096-.189.264c-.117.167-.306.406-.542.693a63.61 63.61 0 01-1.887 2.2c-.754.836-1.485 1.554-2.004 2.08-.26.263-.472.454-.637.597a2.437 2.437 0 01-.236.215z" fill="#E0E0E0"/></g><path d="M33.863 63.862c-2.57-.263-10.777-.455-13.325.024-2.523.454-5.447 2.797-6.532 4.901-1.226 2.343-1.014 6.838.92 8.75 1.933 1.913 5.4 1.34 8.254 1.746 2.853.406 5.778.263 8.679.191 18.182-.478 36.507 1.89 54.501-.621 2.288-.311 4.74-.79 6.344-2.272 1.792-1.65 2.146-4.112 2.406-6.383.212-1.794.353-3.778-.826-5.236-.778-.957-2.028-1.53-3.325-1.77 2.099-2.606 3.136-4.519 3.254-6.742.19-3.921-.825-6.838-1.06-10.711-.237-3.874-.237-7.843.872-11.572.684-2.272 1.698-4.974.165-6.767-.873-1.028-2.311-1.339-3.656-1.554-15.919-2.63-32.168-2.678-48.252-1.506-1.91.143-4.056.406-5.282 1.889-1.014 1.195-1.156 2.893-.99 4.447.188 1.554.683 3.06.801 4.638.66 7.388-9.716 20.06-2.948 28.548z" fill="#FFB3C7"/><path d="M33.863 63.862c-2.57-.263-10.777-.455-13.325.024-2.523.454-5.447 2.797-6.532 4.901-1.226 2.343-1.014 6.838.92 8.75 1.933 1.913 5.4 1.34 8.254 1.746 2.853.406 5.778.263 8.679.191 18.182-.478 36.507 1.89 54.501-.621 2.288-.311 4.74-.79 6.344-2.272 1.792-1.65 2.146-4.112 2.406-6.383.212-1.794.353-3.778-.826-5.236-.778-.957-2.028-1.53-3.325-1.77 2.099-2.606 3.136-4.519 3.254-6.742.19-3.921-.825-6.838-1.06-10.711-.237-3.874-.237-7.843.872-11.572.684-2.272 1.698-4.974.165-6.767-.873-1.028-2.311-1.339-3.656-1.554-15.919-2.63-32.168-2.678-48.252-1.506-1.91.143-4.056.406-5.282 1.889-1.014 1.195-1.156 2.893-.99 4.447.188 1.554.683 3.06.801 4.638.66 7.388-9.716 20.06-2.948 28.548z" fill="#FFB3C7"/><path d="M37.143 26.062s.283-.167.825-.406a10.18 10.18 0 012.5-.765c1.132-.192 2.524-.24 4.127-.335 1.604-.072 3.444-.168 5.472-.24a326.22 326.22 0 0114.244-.167c5.354.048 11.25.24 17.428.622l2.312.143c.754.048 1.532.096 2.264.24.73.143 1.485.382 2.099.836.306.216.566.502.801.813.213.311.378.646.496 1.004.236.718.283 1.459.236 2.2-.071.741-.236 1.435-.425 2.128-.189.693-.425 1.363-.59 2.032-.188.67-.33 1.34-.471 2.009a29.663 29.663 0 00-.496 7.674c.071 1.196.236 2.367.425 3.467.212 1.1.472 2.152.707 3.132.52 1.985.944 3.802 1.085 5.428.142 1.625 0 3.06-.283 4.16a11.08 11.08 0 01-.495 1.434 8.498 8.498 0 01-.542.98c-.095.12-.165.24-.213.335-.07.096-.118.168-.188.216-.095.12-.142.19-.142.19s.047-.07.142-.19c.047-.072.094-.144.165-.24a4.09 4.09 0 00.212-.334 8.8 8.8 0 00.519-.98c.165-.407.354-.885.495-1.435.283-1.1.425-2.534.26-4.16-.142-1.626-.59-3.443-1.109-5.428a50.97 50.97 0 01-.731-3.132 31.566 31.566 0 01-.448-3.466 28.894 28.894 0 01.495-7.7c.142-.669.283-1.338.472-2.008.165-.67.4-1.338.59-2.032.188-.693.353-1.387.4-2.104.047-.717 0-1.458-.236-2.152a5.34 5.34 0 00-.471-.98 4.738 4.738 0 00-.755-.789c-.59-.43-1.32-.67-2.052-.813-.73-.143-1.485-.191-2.264-.239l-2.31-.144a331.935 331.935 0 00-17.429-.621 373.127 373.127 0 00-14.244.143c-2.029.072-3.868.144-5.472.215-1.604.072-2.995.12-4.103.311a10.744 10.744 0 00-2.5.742c-.283.12-.472.215-.613.287-.118.071-.19.119-.19.119zm58.108 45.595s-.07.024-.212.048c-.142.047-.354.095-.613.167-.543.143-1.32.335-2.335.598-.519.12-1.085.263-1.698.43-.613.143-1.297.287-2.028.454-1.462.311-3.113.718-4.953 1.028-.92.168-1.886.36-2.9.526a26.77 26.77 0 01-1.557.24c-.519.071-1.061.167-1.604.239-.542.071-1.108.167-1.65.263-.284.047-.566.095-.85.12-.283.023-.566.07-.872.095-1.156.143-2.358.287-3.608.43-4.93.502-10.377.86-16.084.933-5.731.023-11.179-.24-16.108-.67-1.226-.12-2.43-.239-3.608-.382-.283-.024-.59-.072-.873-.096a10.311 10.311 0 01-.849-.12c-.566-.071-1.108-.143-1.674-.215-.543-.072-1.085-.143-1.604-.215l-1.556-.215c-1.015-.168-1.982-.335-2.901-.478-1.863-.287-3.514-.67-4.976-.957-.732-.143-1.415-.287-2.029-.406-.613-.144-1.179-.287-1.698-.407-1.014-.239-1.816-.43-2.358-.55a6.572 6.572 0 00-.613-.143c-.142-.024-.212-.048-.212-.048s.07.024.212.048c.141.024.354.072.613.144.542.12 1.344.31 2.358.525.52.12 1.085.24 1.698.383.614.144 1.297.263 2.029.406 1.462.287 3.113.646 4.976.933.92.143 1.886.31 2.9.478.496.096 1.015.144 1.557.215.519.072 1.061.144 1.604.216.542.071 1.108.143 1.674.215.283.047.566.071.85.12.282.023.565.047.872.095 1.179.12 2.358.239 3.608.359 4.929.43 10.377.693 16.108.645a182.29 182.29 0 0016.084-.932 509.44 509.44 0 003.584-.43c.283-.025.59-.072.873-.096.283-.048.566-.096.849-.12.566-.096 1.108-.167 1.65-.239.543-.072 1.086-.167 1.604-.24a34.997 34.997 0 001.557-.238c1.014-.192 1.98-.359 2.9-.526 1.84-.311 3.491-.694 4.953-1.004.731-.168 1.415-.287 2.028-.43.614-.144 1.18-.288 1.698-.431 1.015-.24 1.816-.454 2.335-.574.26-.072.472-.12.613-.143.165-.048.236-.048.236-.048zm-61.389-7.795h.141c.094 0 .236.024.425.024.377.024.943.071 1.65.12.708.047 1.58.119 2.618.167 1.014.047 2.17.143 3.467.19 1.274.049 2.689.12 4.198.168l2.335.072c.802.024 1.627.024 2.476.048 3.396.048 7.122.024 11.037-.072 7.83-.191 14.905-.598 20.022-.885 2.547-.143 4.623-.263 6.062-.358.707-.048 1.273-.072 1.65-.096.189 0 .33-.024.425-.024h.141s-.047 0-.141.024c-.094 0-.236.024-.425.024-.377.024-.943.072-1.65.12-1.44.095-3.515.215-6.062.382-5.117.311-12.192.741-20.022.933a287.35 287.35 0 01-11.037.047c-.85-.023-1.674-.023-2.476-.047l-2.335-.072c-1.51-.048-2.9-.12-4.198-.167-1.273-.048-2.43-.144-3.467-.216-1.014-.047-1.886-.143-2.617-.19a31.428 31.428 0 01-1.651-.144c-.189-.024-.33-.024-.425-.048-.094.024-.141 0-.141 0z" fill="#263238"/><path d="M79.591 78.136c-.047 0-.094-.718-.353-1.554-.236-.837-.566-1.483-.543-1.483.024 0 .118.144.236.407s.283.621.401 1.052c.118.43.189.813.212 1.1.071.286.071.454.047.478zm2.101-1.006c-.047 0-.047-.599-.306-1.292-.236-.693-.613-1.148-.59-1.172.024-.023.448.43.708 1.148.26.693.212 1.339.188 1.315zm5.21-24.793c0-.048.59.144 1.274-.048.684-.167 1.108-.621 1.132-.574 0 0-.071.144-.26.287a2.432 2.432 0 01-.825.43 2.067 2.067 0 01-.92.049c-.26-.072-.4-.144-.4-.144zm-.139-2.868c.023-.024.424.191.99.31.543.144 1.014.144 1.014.192 0 .024-.471.072-1.06-.072-.567-.143-.968-.406-.944-.43zm-14.9-35.153c.33-.645.873-1.219 1.557-1.482.683-.263 1.509-.167 2.051.31.543.48.731 1.388.307 2.01.943-.192 1.957.334 2.358 1.219.401.884.142 2.008-.59 2.63-.73.597-1.886.621-2.664.047a1.703 1.703 0 01-1.014 1.22 1.657 1.657 0 01-1.557-.24c-1.085-.86-.825-2.868-2.052-3.538" fill="#263238"/><path d="M71.015 17.542a4.34 4.34 0 001.132-3.634c-.023-.168-.07-.359 0-.526.142-.287.566-.287.826-.096.236.215.306.55.353.86a6.158 6.158 0 01-.235 2.535c-.118.311-.236.646-.472.909a1.26 1.26 0 01-.873.454c-.33 0-.636-.167-.73-.502z" fill="#D37BA9"/><path d="M70.307 4.99c-.448-1.266-2.594-2.342-3.75-2.988-1.745-.956-3.349-.693-4.292.24C60.449.781 58.043-.58 55.826.088c-2.217.67-3.962 3.06-3.49 5.356.283 1.363 1.25 2.558 1.25 3.921 0 .957-.472 1.817-.825 2.678-.354.86-.637 1.889-.26 2.75.354.813 1.18 1.29 1.651 2.032.377.598.495 1.339.731 2.008.92 2.487 3.891 3.778 6.462 3.252 2.57-.526 4.646-2.558 5.778-4.95 1.132-2.39 1.462-5.092 1.51-7.746" fill="#263238"/><path d="M60.684 4.489c-2.383-.335-4.552 1.41-4.788 3.849-.283 2.893-.519 6.527-.236 8.75.543 4.304 3.774 4.95 3.774 4.95s-.024 1.602-.071 3.467c-.047 2.486 1.863 4.59 4.316 4.734 2.64.167 4.858-1.985 4.858-4.663L68.442 6.88" fill="#B55B52"/><path d="M59.41 22.039s2.854.215 5.73-1.41c0 0-1.532 2.988-5.754 2.462l.024-1.052z" fill="#7C3835"/><path d="M62.053 8.768c.047.167.637.095 1.32.215.684.095 1.227.31 1.321.167.047-.072-.047-.215-.26-.382-.212-.168-.565-.311-.966-.383-.401-.048-.779 0-1.038.096-.26.071-.4.215-.377.287zm-5.378.313c.095.143.496 0 .99.024.496 0 .897.12.991-.024.048-.072-.023-.215-.188-.335-.165-.143-.472-.239-.802-.239-.33 0-.613.12-.802.24-.165.143-.236.286-.189.334z" fill="#263238"/><path d="M61.912 13.597c0 .095.071.143.166.143.094 0 .141-.072.141-.167 0-.096-.07-.144-.165-.144-.094 0-.142.072-.142.168zm-4.412-.623c0 .096.07.144.164.144.095 0 .142-.072.142-.168 0-.095-.071-.143-.165-.143-.071 0-.142.072-.142.167zm-.824.432c0 .095.07.143.165.143.094 0 .141-.072.141-.167 0-.096-.07-.144-.165-.144-.094.024-.141.096-.141.168zm-.284-.645c0 .096.071.144.165.144.095 0 .142-.072.142-.168 0-.095-.07-.143-.165-.143-.094.024-.142.096-.142.167zm6.251 1.507c0 .095.07.143.165.143.094 0 .141-.071.141-.167 0-.096-.07-.143-.165-.143-.094 0-.141.071-.141.167zm.539-.646c0 .095.071.143.166.143.094 0 .141-.071.141-.167 0-.096-.07-.144-.165-.144-.07 0-.142.072-.142.168z" fill="#D79870"/><path d="M60.874 3.82c.496 3.395 3.09 6.384 6.345 7.316-.991 1.554-.236 4.424-.19 6.838.048 2.248.072 2.893 1.534 3.993 1.203.24 1.769-3.06 2.617-4.017.85-.956 1.651-2.104 1.557-3.395-.047-.597-.307-1.171-.354-1.769-.047-.67.142-1.315.236-1.984.425-2.917-1.156-5.978-3.703-7.412-2.547-1.435-5.848-1.22-8.277.406" fill="#263238"/><path d="M72.288 12.451s.047-.048.094-.12a1.04 1.04 0 00.19-.43c.093-.382.023-1.004-.307-1.65a3.248 3.248 0 00-.708-.932 7.613 7.613 0 00-1.038-.837 4.963 4.963 0 00-1.344-.621 28.785 28.785 0 00-1.533-.383c-.519-.12-1.037-.239-1.533-.382a7.559 7.559 0 01-1.344-.55 9.645 9.645 0 01-2.052-1.363 9.18 9.18 0 01-1.179-1.195 9.343 9.343 0 01-.283-.36c-.07-.07-.094-.119-.094-.119s.023.048.094.144c.07.095.142.215.283.358.236.311.613.742 1.156 1.22.542.478 1.226.98 2.075 1.387.425.215.873.406 1.368.55.495.167 1.014.262 1.533.382.519.12 1.038.215 1.533.383.471.143.92.358 1.32.597.401.24.731.526 1.038.813.307.287.543.598.708.909.33.621.4 1.22.33 1.602-.142.43-.33.597-.307.597z" fill="#4D5A64"/><path d="M61.157 3.51s.023.047.094.095l.283.287c.236.239.613.574 1.108.956.496.359 1.109.79 1.887 1.076.378.144.802.215 1.25.287.448.072.896.12 1.344.191.92.096 1.816.216 2.595.455a5.63 5.63 0 011.886.98c.472.382.778.789.944 1.1.07.143.141.263.165.358.023.096.047.12.047.12s0-.048-.047-.144a2.797 2.797 0 00-.142-.382c-.141-.31-.448-.741-.92-1.124-.471-.406-1.132-.765-1.91-1.004-.778-.24-1.674-.359-2.594-.478-.472-.048-.92-.12-1.344-.168-.425-.071-.85-.143-1.227-.286-.754-.263-1.367-.67-1.863-1.029a12.219 12.219 0 01-1.132-.932c-.118-.12-.212-.191-.283-.263a1.073 1.073 0 00-.141-.096z" fill="#4D5A64"/><path d="M56.322-.053c0 .024.354.024.943.143.142.024.307.072.448.144.166.048.33.12.52.191.353.167.73.383 1.084.646.354.263.66.573.92.86.118.144.236.287.33.43.094.144.189.288.26.407.282.502.4.86.424.86 0 0-.024-.095-.07-.238-.024-.072-.072-.168-.119-.287-.047-.096-.094-.24-.165-.359-.07-.12-.141-.263-.26-.406-.094-.144-.212-.287-.33-.454a6.576 6.576 0 00-.92-.885A5.818 5.818 0 0058.28.353c-.188-.071-.353-.143-.518-.19a4.095 4.095 0 00-.472-.12c-.142-.048-.283-.048-.401-.072-.118-.024-.212-.024-.307-.024-.165-.024-.259 0-.259 0zm-2.478 16.376s0-.024-.024-.048c-.023-.024-.047-.072-.094-.096-.07-.095-.212-.215-.33-.406-.142-.191-.307-.406-.401-.717-.047-.144-.07-.335-.047-.502a1.6 1.6 0 01.165-.55c.188-.359.519-.67.802-1.076a6.17 6.17 0 00.754-1.363 5.431 5.431 0 00.401-1.674c.071-.597.024-1.219-.023-1.84-.024-.622-.024-1.244.094-1.818a3.821 3.821 0 01.755-1.482 3.917 3.917 0 011.179-.933c.424-.215.872-.31 1.273-.334a3.85 3.85 0 011.864.358c.212.096.353.192.448.263a.528.528 0 01.118.072c.023.024.047.024.047.024s-.189-.191-.59-.383c-.4-.215-1.061-.43-1.887-.382-.4.024-.849.12-1.297.335a3.581 3.581 0 00-1.226.956 3.61 3.61 0 00-.778 1.53c-.142.598-.142 1.22-.118 1.841.023.622.07 1.243.023 1.817a5.278 5.278 0 01-.4 1.65 5.558 5.558 0 01-.732 1.339c-.283.382-.613.717-.801 1.076-.095.191-.166.382-.166.574-.023.19.024.358.071.526.095.31.283.55.425.717.141.167.283.31.353.382l.095.096.047.048z" fill="#4D5A64"/><path d="M72.076 12.716s.023 0 .047-.024a.485.485 0 01.118-.072c.118-.072.26-.167.448-.335.354-.31.849-.885 1.132-1.721.283-.837.283-1.985-.26-3.037-.259-.526-.683-1.004-1.202-1.387-.519-.382-1.132-.645-1.769-.812a9.004 9.004 0 00-1.934-.287c-.637-.048-1.226-.048-1.816-.072-.566-.024-1.108-.048-1.627-.12a7.185 7.185 0 01-1.368-.334c-.825-.287-1.415-.694-1.769-1.052-.165-.168-.306-.311-.377-.43-.047-.049-.07-.096-.094-.12-.024-.024-.024-.048-.024-.048s.118.239.472.598c.354.358.943.789 1.769 1.076.4.143.872.263 1.391.334.519.072 1.061.12 1.627.144 1.156.048 2.43.024 3.703.358.637.168 1.25.43 1.745.79.519.358.896.836 1.18 1.338a3.929 3.929 0 01.282 2.965c-.26.837-.754 1.387-1.108 1.722a3.59 3.59 0 01-.448.358c-.047.024-.095.072-.118.072.023.072 0 .096 0 .096zm-15.401-.981c.07.072.471-.215 1.06-.215.59 0 1.015.31 1.062.24.024-.025-.023-.168-.212-.312a1.442 1.442 0 00-.85-.287c-.353 0-.66.12-.848.263-.189.144-.236.263-.212.311zm5.943.095c.071.071.472-.216 1.062-.216.59 0 1.014.311 1.06.24.025-.025-.023-.168-.211-.311a1.442 1.442 0 00-.85-.287c-.353 0-.66.12-.848.263-.189.143-.236.263-.213.31z" fill="#263238"/><path d="M60.636 16.802c.212-.287.59-.43.943-.382a.95.95 0 01.66.382c.142.215.166.502.024.694-.165.215-.495.263-.778.19-.283-.095-.519-.286-.731-.453a.557.557 0 01-.165-.168c-.047-.072-.047-.167 0-.215" fill="#D79870"/><path d="M62.124 15.824c-.095 0-.118.622-.66 1.076-.543.454-1.227.359-1.227.454 0 .048.141.12.424.144.283.024.684-.072 1.014-.335.33-.263.496-.646.52-.909.047-.263-.024-.43-.071-.43zM57.22 55.846l-6.463 2.223-.519 1.626s-18.017-6.575-19.29-7.268c-1.274-.694-7.854-2.224-10.024 3.252-1.84 4.614 1.792 9.228 7.594 11.834 5.801 2.583 17.027 3.706 17.027 3.706l7.405 1.291 16.367.216c4.835.071 9.458-2.056 12.594-5.786 2.57-3.037 5.236-6.504 5.754-8.297.991-3.49.095-8.033-5.046-8.464-5.142-.43-13.49 5.523-13.49 5.523l-3.16-.884-8.75 1.028z" fill="#263238"/><path d="M56.699 66.484s0-.047.023-.12c.024-.07.024-.19-.047-.334-.118-.263-.542-.526-1.085-.67a74.167 74.167 0 01-4.764-2.151c-1.98-.98-4.268-2.248-6.721-3.587-1.769-.956-3.467-1.888-5.047-2.654-1.58-.765-2.995-1.434-4.221-1.912-.307-.12-.59-.24-.873-.359a14.14 14.14 0 01-.778-.287c-.236-.095-.472-.167-.684-.263-.213-.072-.401-.143-.59-.191-.354-.12-.613-.215-.802-.263a1.086 1.086 0 01-.212-.072c-.047-.024-.07-.024-.07-.024s.023 0 .07.024c.047.024.118.024.212.072.189.048.472.143.826.24.188.047.377.119.59.19.212.072.447.168.683.24.26.095.52.19.802.286.283.096.566.215.873.359 1.226.478 2.665 1.124 4.245 1.913 1.58.765 3.278 1.673 5.047 2.654 2.452 1.338 4.74 2.606 6.721 3.61a81.076 81.076 0 004.74 2.2c.566.143.967.406 1.085.717a.43.43 0 01.024.334c-.024 0-.047.048-.047.048zM80.8 51.35s-.023 0-.07.024c-.047 0-.118.024-.212.024-.189.024-.472.048-.826.144-.707.143-1.698.502-2.806 1.195a14.34 14.34 0 00-1.722 1.22 18.526 18.526 0 00-1.769 1.65c-1.155 1.266-2.476 2.63-3.962 3.944a26.116 26.116 0 01-2.24 1.841c-.755.55-1.51 1.052-2.335 1.34-.825.262-1.627.358-2.382.477-.754.12-1.438.24-2.051.455-.614.215-1.133.454-1.557.74a2.707 2.707 0 00-.873.957 2.192 2.192 0 00-.235.79v-.001c.023-.191.047-.478.212-.813.165-.335.448-.693.872-.98.425-.31.967-.574 1.58-.79.614-.214 1.321-.334 2.076-.453.755-.12 1.556-.215 2.358-.502.802-.287 1.557-.79 2.288-1.34a25.895 25.895 0 002.217-1.84 52.247 52.247 0 003.962-3.945 18.726 18.726 0 011.792-1.65 14.69 14.69 0 011.745-1.22c1.109-.669 2.123-1.027 2.83-1.147.354-.096.637-.096.826-.12.094 0 .165 0 .212-.023.047.023.07.023.07.023zM58.422 64.525s-.047-.095-.118-.31c-.047-.096-.047-.216-.094-.383a12.61 12.61 0 01-.07-.502c-.048-.383-.048-.813-.048-1.315.023-.502.047-1.028.141-1.602.142-1.124.425-2.128.708-2.821a4.13 4.13 0 01.212-.455c.07-.12.142-.239.189-.334.118-.168.189-.263.212-.263 0 0-.047.095-.165.287-.047.095-.094.215-.165.334-.07.12-.118.287-.189.454-.26.694-.519 1.698-.66 2.822-.07.55-.118 1.1-.142 1.602 0 .502 0 .932.024 1.29.047.742.189 1.172.165 1.196z" fill="#4D5A64"/><path d="M56.7 66.484s12.193 3.109 12.688 3.276c.731.24.684 2.965-.472 2.94-.542 0-9.292.55-10.4.503-1.109-.048-4.127-1.172-4.127-1.172l1.84-4.423.47-1.124z" fill="#E0E0E0"/><path d="M61.865 71.052c.07 0 .118-.645.495-1.339.377-.693.873-1.1.825-1.147-.023-.048-.613.31-1.014 1.052-.4.74-.377 1.434-.306 1.434zm-1.272-.549c.07 0 .165-.574.472-1.22.306-.645.684-1.1.637-1.147-.024-.048-.496.383-.826 1.052-.33.694-.354 1.315-.283 1.315zm-1.205-.286c.071 0 0-.622.26-1.315.235-.694.684-1.124.636-1.172-.023-.048-.566.335-.825 1.1-.283.741-.118 1.387-.07 1.387z" fill="#263238"/><path d="M59.577 68.614c.024 0 .118-.335.118-.909 0-.287-.047-.622-.142-1.004a5.429 5.429 0 00-.188-.574c-.047-.096-.095-.215-.212-.287-.118-.096-.33-.072-.425.024-.118.096-.141.24-.165.359 0 .12-.024.215 0 .334 0 .216.047.407.094.598.095.383.26.694.401.933.283.502.543.74.566.717.024-.024-.188-.31-.424-.79a3.595 3.595 0 01-.33-.908 2.064 2.064 0 01-.071-.55c0-.19 0-.43.094-.526a.144.144 0 01.165-.024.84.84 0 01.142.216c.07.191.141.358.188.526.095.358.166.67.19.956 0 .55-.048.909 0 .909z" fill="#263238"/><path d="M59.555 68.493c0-.024-.283-.12-.779-.12a4 4 0 00-.849.12c-.165.048-.33.096-.495.192-.165.095-.33.334-.26.573.048.24.26.383.449.43.189.049.377.025.542-.023.33-.096.59-.263.779-.407.377-.31.566-.55.542-.573-.024-.024-.236.19-.637.454a1.728 1.728 0 01-.73.335c-.142.023-.307.047-.449 0a.463.463 0 01-.306-.287c-.048-.144.047-.263.165-.359.117-.096.283-.143.424-.191a3.99 3.99 0 01.802-.168c.495 0 .802.048.802.024zm4.173 2.653c.07 0 0-.526.212-1.124.213-.574.613-.932.566-.98-.023-.048-.519.263-.754.908-.26.646-.071 1.22-.024 1.196zm-8.441.741c0 .024.165.096.471.215.307.12.779.263 1.368.383 1.156.263 2.83.406 4.623.334 1.816-.071 3.443-.19 4.622-.263.566-.047 1.038-.071 1.391-.12.33-.023.52-.047.52-.07 0-.025-.19-.025-.52-.025-.377 0-.849.024-1.415.048-1.226.048-2.853.12-4.622.191-1.816.072-3.443-.048-4.599-.263-1.155-.167-1.84-.454-1.84-.43z" fill="#263238"/><path d="M54.93 72.176c.024.024.354-.167.896-.43.543-.263 1.368-.55 2.288-.43.92.12 1.58.717 2.005 1.147.424.43.684.718.707.718.024-.025-.188-.335-.613-.813a4.336 4.336 0 00-.825-.742 2.659 2.659 0 00-1.274-.502c-.99-.12-1.84.215-2.382.502-.519.287-.825.55-.802.55zm12.17.264c.024-.025-.094-.168-.189-.455a2.475 2.475 0 01-.118-1.148c.071-.454.283-.813.472-1.052.189-.239.33-.358.33-.382 0-.024-.189.071-.4.31a2.084 2.084 0 00-.543 1.1c-.07.478.023.933.165 1.22.118.287.26.406.283.406z" fill="#263238"/><path d="M85.378 61.49s-.024.047-.118.166c-.07.12-.189.264-.33.455-.142.191-.307.454-.519.717-.212.263-.472.574-.755.932-.283.335-.613.694-.967 1.076-.353.383-.754.742-1.179 1.148-.872.765-1.863 1.602-2.971 2.32-1.132.74-2.24 1.362-3.302 1.84a22.16 22.16 0 01-2.877 1.076c-.425.12-.802.215-1.156.287a9.2 9.2 0 01-.872.143 9.019 9.019 0 00-.566.072c-.118.024-.19.024-.19.024s.072-.024.19-.048c.141-.024.33-.047.566-.071.235-.048.542-.12.872-.168.33-.095.731-.167 1.132-.31.85-.24 1.816-.622 2.854-1.1 1.038-.479 2.17-1.1 3.278-1.841 1.108-.742 2.099-1.555 2.971-2.296.425-.406.826-.765 1.18-1.147.353-.383.684-.718.967-1.052a53.5 53.5 0 00.754-.909c.212-.263.401-.526.543-.717.141-.191.26-.335.353-.454.095-.096.142-.168.142-.144zm-31.106 3.467c-.024 0-.213-.287-.543-.765-.33-.478-.849-1.1-1.462-1.745-.637-.622-1.25-1.148-1.722-1.483-.471-.334-.778-.55-.754-.55 0 0 .094.024.236.12.141.072.353.215.59.382a10.86 10.86 0 011.744 1.483 13.413 13.413 0 011.463 1.769c.165.24.282.454.377.598a.58.58 0 00.07.191zm14.715-6.84c0 .024-.26.191-.684.526-.424.334-.967.813-1.51 1.434a12.055 12.055 0 00-1.178 1.698c-.26.454-.401.765-.425.765l.07-.215c.048-.144.142-.335.26-.574a8.46 8.46 0 011.18-1.745 9.634 9.634 0 011.532-1.411c.213-.167.401-.263.52-.335.164-.096.235-.143.235-.143z" fill="#4D5A64"/><path d="M72.077 54.338c3.278-2.678 9.48-3.945 9.48-3.945s-.353-12.17-1.273-17.765l-.071-.406c-.849-4.304-4.622-6.91-8.914-7.508l-2.901-.406-8.585.31-5.235 1.603s-6.203 1.41-7.146 10.233c-.943 8.655-2.052 15.804-1.887 18.362.118 1.793 1.769 3.084 2.665 3.3.826.19 1.863.358 2.76-.168-.307.574-.52 1.148-.567 1.674h5.236l4.103-3.658 3.75 2.725 5.024-2.152 3.466-2.39.095.19zm-17.924-.359v-.024c.59-2.94.66-3.801.66-3.801s-3.089-.407-2.594-4.567l.472-3.61 3.09 10.496c0 .024-.732.598-1.628 1.506z" fill="#EBEBEB"/><path opacity=".2" d="M65.048 49.938l.967-2.463c-1.061-.454-1.439-.478-2.594-.622-3.066-.382-6.25.479-8.75 2.32l.637 1.84h.024c.4.144 1.06.12 1.438.025.401-.096.826-.216 1.227-.096.518.143.896.598 1.367.86.944.55 2.312.144 2.83-.812.213-.407.425-.98.873-.957.236 0 .401.168.59.311.542.478 1.085.957 1.627 1.459.66.574 1.297 1.171 2.004 1.697.826.622 1.77 1.172 2.783 1.124 1.014-.024 1.062-1.028 1.062-1.028l-6.085-3.658z" fill="#000"/><path d="M59.365 24.357l-.141 2.51c-.047.861.07 1.746.377 2.535l3.019 7.985s-.472-4.662 1.486-6.383c1.933-1.722 4.386-1.555 4.41-4.208v-3.348l-4.175-.813-4.976 1.722z" fill="#B55B52"/><path d="M74.836 25.648s-.047.024-.165.095c-.118.048-.26.144-.448.263-.377.24-.85.694-1.274 1.387a5.595 5.595 0 00-.825 2.678c-.024.526.024 1.1.07 1.673.048.574.119 1.196.166 1.794.236 2.462.519 4.71.73 6.312.095.813.19 1.458.26 1.912.024.216.047.383.071.526.024.12.024.192.024.192s-.024-.072-.047-.168c-.024-.12-.048-.287-.095-.526-.07-.454-.188-1.1-.306-1.912-.236-1.602-.52-3.85-.755-6.312-.07-.622-.118-1.22-.165-1.794-.047-.573-.094-1.147-.07-1.697a5.877 5.877 0 01.872-2.702c.448-.693.943-1.124 1.32-1.363.189-.12.354-.191.472-.239a.486.486 0 01.165-.12zM73.73 54.96s-.024 0-.048-.023c-.047-.024-.07-.024-.141-.048a6.678 6.678 0 01-.52-.24 27.193 27.193 0 01-1.862-1.004 236.526 236.526 0 01-6.156-3.634l-.047-.024.024-.047c.283-.694.566-1.411.872-2.128a69.379 69.379 0 001.227-3.18c.07-.168.118-.335.165-.502.023-.072.047-.168.07-.24 0-.047.024-.071.024-.12v-.07s0 .024.024.024l.047-.12a34.9 34.9 0 012.83 1.459c.825.478 1.556.885 2.17 1.22.613.334 1.108.573 1.438.74.165.072.283.144.378.192l.141.072s-.047-.024-.141-.048c-.095-.048-.236-.096-.401-.168a59.884 59.884 0 01-1.462-.717c-.614-.31-1.345-.741-2.194-1.195a39.248 39.248 0 00-2.83-1.435l.047-.12c.024 0 .047.024.047.048v.143c0 .048-.023.096-.023.143-.024.096-.047.168-.07.263-.048.168-.119.335-.166.502-.118.335-.236.694-.377 1.028-.26.694-.543 1.411-.85 2.152-.306.718-.589 1.435-.872 2.128l-.023-.072a266.52 266.52 0 006.131 3.682c.778.455 1.392.79 1.84 1.029.212.12.377.19.495.263.047.024.094.047.118.071.07-.047.094-.024.094-.024zM52.595 41.977s-.047-.12-.094-.334c-.047-.215-.094-.55-.165-.957a31.002 31.002 0 01-.283-3.18 31.224 31.224 0 01.094-3.18c.047-.406.07-.74.118-.956.023-.215.047-.358.07-.358 0 0 0 .119-.023.358a41.55 41.55 0 00-.142 4.136 40.8 40.8 0 00.237 3.156c.047.407.094.742.117.957.071.239.071.358.071.358zm-.517 2.011s-.07.12-.212.31a25.55 25.55 0 01-.637.79c-.542.693-1.297 1.602-2.1 2.606a463.738 463.738 0 01-2.098 2.606c-.26.31-.472.574-.637.789-.141.191-.236.287-.236.287s.071-.12.213-.311c.141-.191.353-.478.613-.813a77.2 77.2 0 012.075-2.63 82.652 82.652 0 012.146-2.582c.283-.335.495-.598.66-.765.119-.192.213-.287.213-.287zm2.382 7.745v.311c0 .096-.024.215-.047.359a3.905 3.905 0 01-.095.454c-.07.335-.188.741-.353 1.172-.165.43-.401.884-.684 1.338-.283.455-.59.837-.92 1.172a6.7 6.7 0 01-.896.813c-.142.12-.26.191-.378.263-.118.072-.212.143-.306.191-.165.096-.26.144-.26.144-.023-.024.354-.24.897-.67.26-.215.566-.502.872-.813.307-.334.613-.717.896-1.171a7.63 7.63 0 00.66-1.315c.166-.43.284-.813.378-1.148.165-.693.212-1.1.236-1.1zm14.551-27.687s.024.048.094.168c.048.12.142.263.236.478a9.9 9.9 0 01.543 1.889c.141.813.188 1.817.023 2.916a9.113 9.113 0 01-1.155 3.372c-.118.19-.236.358-.354.55-.118.167-.26.334-.377.502l-.024.047-.047-.023a3.362 3.362 0 00-2.925-.263c-.448.167-.801.43-1.108.693a3.463 3.463 0 00-.731.86c-.354.598-.448 1.172-.495 1.555-.047.382-.024.598-.047.598v-.622a3.7 3.7 0 01.471-1.602 4.31 4.31 0 01.731-.909c.307-.287.684-.55 1.132-.717.873-.335 2.052-.335 3.019.263l-.07.024c.117-.167.235-.335.377-.502.117-.167.235-.359.33-.526a8.898 8.898 0 001.155-3.323c.165-1.076.142-2.08 0-2.893a8.775 8.775 0 00-.495-1.89c-.07-.214-.165-.382-.212-.501l-.07-.144zM62.149 36.31l-.071-.143a7.626 7.626 0 01-.189-.406c-.165-.359-.4-.86-.707-1.459-.33-.597-.731-1.315-1.32-1.984-.308-.31-.661-.646-1.11-.86a3.57 3.57 0 00-1.438-.383c-.212 0-.4 0-.59.024h-.07v-.072c.141-.98.4-1.889.66-2.678.26-.813.542-1.506.802-2.08.26-.574.519-1.028.684-1.315.094-.143.165-.263.236-.335a.865.865 0 01.094-.12s-.094.168-.283.455c-.165.31-.4.741-.66 1.339-.26.574-.52 1.291-.779 2.08a16.16 16.16 0 00-.636 2.654l-.071-.072c.189 0 .4-.024.613-.024a3.538 3.538 0 011.486.407c.448.239.802.55 1.132.884.613.694 1.014 1.411 1.32 2.033.307.621.52 1.123.684 1.482.071.167.118.31.166.406.023.12.047.168.047.168z" fill="#263238"/><path opacity=".2" d="M62.618 37.219c.26-.837.59-1.148 1.038-1.578.448-.43 1.061-.765 1.675-.717.518.024 1.014.31 1.532.31.614.024 1.18-.334 1.628-.74 1.91-1.674 2.523-4.663 1.438-6.958.095 2.271-.636 4.566-2.051 6.336a3.493 3.493 0 00-3.609.095c-1.037.694-1.721 2.009-1.65 3.252z" fill="#000"/><path d="M73.398 42.218s.023.12.07.334c.024.24.071.55.118.909.095.765.236 1.84.378 3.012l.07.646-.047-.048a6.447 6.447 0 012.359 1.028c.259.192.471.359.613.478.141.12.188.192.188.192-.023.024-.306-.263-.849-.598a6.525 6.525 0 00-2.334-.956h-.047v-.048l-.071-.646c-.142-1.171-.26-2.247-.33-3.012-.048-.359-.071-.67-.095-.909-.023-.263-.047-.382-.023-.382zm-7.405 10.829s-.048.024-.118.047c-.095.024-.213.048-.354.096-.307.072-.755.167-1.32.24a17.346 17.346 0 01-4.458-.025 16.34 16.34 0 01-2.406-.526c-.353-.12-.707-.215-1.014-.358a1.845 1.845 0 01-.73-.598 2.058 2.058 0 01-.307-.717c-.071-.216-.095-.43-.118-.574-.024-.168-.024-.287-.047-.383v-.12s.023.168.094.503c.023.167.07.358.141.574.071.215.166.454.33.693.166.239.401.43.708.55.307.12.66.215 1.014.335a16.78 16.78 0 002.382.502 18.66 18.66 0 004.434.071c.566-.071 1.014-.143 1.32-.19a4.95 4.95 0 00.354-.073c.047-.047.095-.047.095-.047z" fill="#263238"/><path d="M61.063 53.43c0 .023-.165.07-.4.214a2.204 2.204 0 00-.755.741 2.26 2.26 0 00-.354 1.005c-.024.286 0 .454-.024.454 0 0-.07-.168-.07-.454 0-.287.094-.694.33-1.076.236-.383.566-.622.825-.765.26-.12.448-.12.448-.12zm1.155-16.259s.024.048.024.168c.024.12.024.287.047.478.047.406.095 1.028.142 1.77.094 1.482.188 3.562.118 5.857a44.644 44.644 0 01-.165 3.228c-.071.98-.19 1.889-.378 2.606a5.514 5.514 0 01-.73 1.626 2.992 2.992 0 01-.308.382l-.117.12s.141-.168.377-.526c.212-.359.495-.885.684-1.602.189-.718.306-1.602.354-2.582.07-.98.118-2.08.141-3.204.047-2.272 0-4.352-.094-5.834-.047-.741-.095-1.339-.118-1.77-.024-.19-.024-.358-.024-.477.047-.168.047-.24.047-.24z" fill="#263238"/><path d="M51.536 35.883c0 .024-.873.143-1.981.215-1.085.096-1.981.12-1.981.096 0-.024.872-.144 1.98-.216 1.11-.071 1.982-.12 1.982-.095zm10.611 4.231s-.142.024-.377.072a8.34 8.34 0 01-1.062.12c-.448.047-.99.047-1.58.047-.59-.023-1.25-.071-1.934-.167a19.593 19.593 0 01-1.91-.382c-.566-.168-1.085-.311-1.51-.479-.424-.167-.754-.31-.99-.406-.236-.12-.353-.167-.353-.191 0 0 .141.047.377.143.236.096.566.215.99.383a18.828 18.828 0 003.396.837 19.43 19.43 0 001.934.167c.59.024 1.132.024 1.58 0 .448-.024.802-.048 1.062-.072.235-.048.377-.072.377-.072zm9.928-3.587s-.118.095-.33.215c-.212.143-.542.31-.967.526-.4.215-.92.43-1.486.645a16.02 16.02 0 01-1.886.598c-.684.167-1.345.287-1.934.383-.613.071-1.156.12-1.604.143a8.077 8.077 0 01-1.085 0c-.259 0-.4-.024-.4-.024s.141-.024.4-.024c.26 0 .637-.024 1.085-.048.448-.024.99-.071 1.604-.167.59-.096 1.25-.215 1.934-.383a22.61 22.61 0 001.886-.573 25.34 25.34 0 001.486-.622c.425-.191.755-.359.967-.478.189-.12.33-.191.33-.191zm7.877-4.947s-.118.023-.307.047c-.212.024-.495.048-.849.072-.707.072-1.698.24-2.759.55-1.061.31-1.981.693-2.641 1.004-.33.144-.59.287-.779.383l-.283.143s.095-.072.26-.167c.165-.12.424-.263.755-.407.636-.334 1.58-.74 2.64-1.028a13.481 13.481 0 012.784-.502c.353-.024.66-.048.849-.048.212-.072.33-.072.33-.048zm1.088 10.014s-.119 0-.307-.024a21.064 21.064 0 00-3.585-.072 19.9 19.9 0 00-3.561.574c-.189.048-.307.072-.307.048 0 0 .095-.048.283-.096.189-.071.472-.143.826-.215a19.416 19.416 0 012.759-.43 17.452 17.452 0 012.783.024c.354.024.637.072.825.095.165.072.283.096.283.096zm-7.452 11.861c-.024 0 .094-.36.212-.909a11.29 11.29 0 00.236-2.248c0-.884-.142-1.673-.26-2.247-.141-.574-.259-.909-.235-.909 0 0 .047.072.094.24.07.143.141.382.212.67a8.36 8.36 0 01.307 2.27c0 .885-.118 1.698-.26 2.272-.07.287-.141.502-.188.67-.071.095-.118.19-.118.19zm-22.713-8.322c0 .024-.26.024-.684.048-.424.024-.99.096-1.627.192a16.4 16.4 0 00-1.604.382c-.4.12-.66.215-.66.191 0-.023.236-.12.637-.263.4-.143.967-.31 1.603-.43a9.33 9.33 0 011.651-.167c.425 0 .684.024.684.047zm1.675 10.043h-.353a4.807 4.807 0 01-.92-.191c-.754-.215-1.792-.813-2.5-1.841a4.773 4.773 0 01-.801-3.013c.023-.406.094-.741.165-.956.023-.12.07-.191.094-.24.024-.047.024-.095.047-.071.024 0-.165.478-.188 1.291a4.892 4.892 0 00.825 2.94 4.762 4.762 0 002.43 1.818c.683.24 1.202.215 1.202.263zm5.354 1.554c0 .025-1.014-.19-2.24-.501-1.226-.311-2.217-.598-2.217-.622 0-.024 1.014.191 2.24.502 1.227.311 2.218.598 2.218.622zm12.592-2.343s-.094.072-.306.167c-.189.096-.495.24-.85.407-.73.334-1.744.74-2.924 1.076-1.155.358-2.24.573-3.042.717-.4.072-.707.12-.943.143-.212.024-.354.024-.354.024s.118-.024.33-.072c.213-.047.543-.095.92-.167.778-.143 1.84-.406 3.019-.741a32.292 32.292 0 002.924-1.052c.377-.144.66-.287.873-.359.236-.12.353-.167.353-.143zm-8.374-6.813s-.094.048-.283.096c-.188.048-.448.12-.754.167-.637.12-1.557.24-2.57.215-1.015 0-1.911-.119-2.548-.263-.33-.071-.59-.119-.755-.19-.188-.049-.283-.072-.283-.096 0 0 .095 0 .283.047.19.048.448.096.755.144a14.3 14.3 0 002.547.215c.99 0 1.887-.096 2.547-.191.33-.048.59-.096.755-.12.212-.024.306-.048.306-.024zm3.705.022c0 .024-.165.095-.424.19-.283.097-.66.192-1.109.216-.448.024-.849 0-1.132-.048-.283-.047-.448-.095-.448-.12 0-.047.708.12 1.58.049.85-.072 1.533-.311 1.533-.287zm-8.183-20.537c0 .024-.33.047-.873.143a15.02 15.02 0 00-2.075.502c-.802.263-1.51.55-2.005.79-.495.238-.802.406-.802.382 0 0 .071-.048.19-.144.14-.071.33-.19.565-.31a11.28 11.28 0 012.005-.813 11.893 11.893 0 012.099-.479c.283-.023.495-.047.66-.071.165-.024.236-.024.236 0zm1.603.956c.024 0-.117.645-.4 1.41-.284.765-.59 1.34-.637 1.34-.024-.025.236-.622.519-1.364.283-.789.471-1.41.518-1.386zm7.404 1.745c.047 0-.118.812-.236 1.792-.118 1.005-.118 1.818-.165 1.818-.023 0-.023-.216-.023-.526 0-.335.023-.79.07-1.292a9.92 9.92 0 01.213-1.267c.07-.334.117-.526.141-.526zm2.809.071c-.047 0-.165-.407-.448-.86-.26-.455-.566-.766-.542-.814.023-.024.377.263.66.741.283.479.377.933.33.933z" fill="#fff"/><path d="M52.81 45.374a6.653 6.653 0 00-.024-2.367c-.094-.455-.165-.957-.118-1.411.07-.478.472-.98.943-.956l.85 3.395-1.651 1.339z" fill="#B55B52"/><path d="M52.81 37.34l2.996 12.002 5.849-.645-2.24-11.907a.663.663 0 00-.661-.526l-5.354.239c-.424.048-.707.43-.59.837z" fill="#263238"/><path d="M59.532 40.186s-.047-.12-.094-.36a31.53 31.53 0 01-.236-.98c-.094-.406-.212-.908-.33-1.434-.024-.072-.024-.143-.047-.191-.024-.048-.071-.12-.118-.144a.253.253 0 00-.165-.071c-.047-.024-.142 0-.212 0-.307.024-.614.024-.92.047-1.274.048-2.43.096-3.255.096-.4 0-.73.024-.99.024h-.354s.118-.024.354-.048c.26-.024.59-.024.99-.048.826-.047 1.981-.095 3.255-.143.306 0 .637-.024.92-.024.07 0 .141-.024.235 0 .071.024.165.048.213.096.07.047.117.12.141.19a.705.705 0 01.047.216c.118.55.212 1.028.307 1.459.07.406.141.717.212.98.047.191.047.335.047.335z" fill="#4D5A64"/><path d="M56.276 37.673c-.07-.096-.189-.24-.354-.168-.07 0-.188.12-.188.24s.07.239.165.287c.118.047.236.047.33-.048.094-.048.118-.192.047-.311z" fill="#FAFAFA"/><path d="M56.278 41.333c-.142.047-3.16 1.793-3.16 1.793l-1.557 1.793s-.542 1.028 0 2.582c.542 1.554 1.344 2.056 3.136 2.439l3.35-.693 2.358-1.483-.708-2.701-2.311 1.888-1.32.24-.213-.43 1.887-1.1 2.971-2.535-.92-1.028-2.735 1.793-2.335 1.172.33-.98 2.712-2.224s.166-1.028-1.485-.526z" fill="#B55B52"/><path d="M56.512 39.659s.637-.407 1.721 0c1.085.406 2.5 1.028 2.5 1.028l2.076.502-.26-.502s-2.028.287-1.98-1.195h1.225l1.038-.598 2.146 1.96.967 2.463 1.32 1.028-1.626 4.184-3.42-.574-2.924.311-1.533-1.148-.236-1.53-1.51-1.434s-.212-.741.449-.837c.66-.096 2.334 1.434 2.334 1.434l1.604-.023s.26-.263.024-.407c-.236-.143-5.07-2.295-5.307-2.821-.235-.526-.471-.86 0-1.028.472-.168 1.25.072 1.25.072s-.212-.742.142-.885z" fill="#B55B52"/><path d="M60.544 42.458c-.023.023-.99-.383-2.146-.91-1.179-.525-2.122-.98-2.099-1.027.024-.024.991.382 2.147.908 1.179.526 2.122.98 2.099 1.029zm1.134 3.776s-.07.048-.236.096c-.165.048-.377.12-.66.191a4.21 4.21 0 01-1.014.12c-.401 0-.826-.096-1.227-.287-.825-.383-1.391-1.005-1.768-1.459a5.14 5.14 0 01-.425-.55l-.141-.215c.023-.024.26.263.636.694.401.43.967 1.028 1.77 1.41.4.191.801.287 1.178.287a6.1 6.1 0 001.015-.096c.518-.095.872-.19.872-.19z" fill="#7C3835"/><path d="M67.242 44.323s-.023-.024-.094-.072c-.07-.048-.141-.12-.26-.191-.235-.168-.565-.43-.99-.765-.26-.646-.59-1.459-.967-2.463v.024c-.637-.574-1.368-1.22-2.17-1.937h.048c-.33.192-.66.383-1.038.598h-1.25l.047-.048c.024.215.024.43.142.598.118.167.283.31.471.406.401.168.873.192 1.321.144h.047l.024.024c.07.143.165.334.26.502l.046.12-.117-.025c-.66-.167-1.368-.334-2.076-.502a39.054 39.054 0 00-2.005-.836c-.353-.144-.707-.287-1.06-.335-.355-.048-.755-.024-1.086.143-.117.048-.141.192-.141.335 0 .143.047.31.094.454l.024.12-.118-.024a3.641 3.641 0 00-.708-.12c-.235 0-.495 0-.66.144-.094.072-.094.167-.07.287.023.12.094.239.14.334.072.12.095.24.166.311.094.072.189.168.306.215.873.55 1.793.98 2.689 1.435l1.344.645c.213.096.448.216.66.311l.166.072a.444.444 0 01.165.144c.047.071.023.167 0 .215a.43.43 0 01-.118.167l-.024.024h-.023c-.543 0-1.085.024-1.604.024H58.8l-.024-.024c-.495-.454-1.014-.885-1.58-1.196-.283-.143-.59-.31-.85-.19a.388.388 0 00-.259.31c-.047.143-.023.287 0 .43l-.023-.023c.519.502 1.037.98 1.51 1.434l.023.024v.024c.07.526.165 1.028.236 1.53l-.024-.024c.542.407 1.038.79 1.533 1.148h-.024a162.09 162.09 0 012.925-.287c1.084.191 1.957.335 2.547.43.283.048.495.096.66.12.07.024.118.024.165.024.047 0 .047.024.047.024h-.047c-.047 0-.094-.024-.165-.024-.165-.024-.377-.048-.66-.096-.59-.096-1.439-.239-2.547-.406-.826.095-1.793.19-2.925.31h-.047c-.471-.358-.99-.74-1.533-1.147h-.023v-.024a40.588 40.588 0 00-.236-1.53l.023.024c-.471-.455-.99-.933-1.509-1.435v-.024a.91.91 0 010-.502c.024-.072.07-.167.118-.239a.556.556 0 01.212-.144.706.706 0 01.495 0c.166.048.307.12.449.216a9.498 9.498 0 011.603 1.22l-.047-.025c.519 0 1.061-.024 1.604-.024l-.047.024c.07-.072.141-.191.094-.263-.024-.072-.165-.096-.283-.167-.212-.096-.448-.215-.66-.311l-1.345-.646c-.896-.43-1.816-.884-2.712-1.434a1.52 1.52 0 01-.306-.24.726.726 0 01-.118-.167l-.071-.167c-.047-.12-.118-.239-.142-.359-.023-.071-.023-.143-.023-.215 0-.072.07-.143.118-.191.236-.167.519-.167.754-.167.26.023.496.071.731.12l-.07.07a1.885 1.885 0 01-.095-.501c0-.096 0-.168.048-.263a.258.258 0 01.188-.192c.378-.19.779-.215 1.156-.167.4.048.755.215 1.085.335.707.263 1.368.55 2.028.837.731.167 1.439.358 2.075.502l-.07.072a10.632 10.632 0 01-.26-.503l.047.024c-.471.048-.943.024-1.368-.167a1.07 1.07 0 01-.518-.454c-.142-.192-.142-.43-.165-.646v-.048h1.273-.024c.354-.215.708-.406 1.038-.597l.024-.024.023.024c.802.717 1.51 1.386 2.146 1.96.378.98.708 1.817.944 2.463.424.334.754.597.99.765.118.096.189.143.26.191.047.096.07.12.07.12z" fill="#7C3835"/><path d="M60.212 12.713s-.849 1.578-1.674 2.271c.448.55 1.32.43 1.32.43l.354-2.701z" fill="#A02724"/></g><defs><clipPath id="clip0_3314_7341"><path fill="#fff" transform="translate(.46)" d="M0 0h106.58v79.439H0z"/></clipPath></defs></svg>