<svg width="108" height="80" fill="none" xmlns="http://www.w3.org/2000/svg"><g clip-path="url(#clip0_3314_6978)"><path d="M28.6 25.752h11.71s0-10.025 10.216-10.205c5.306-.093 8.057 3.45 9.174 6.167 1.298 3.153.904 6.746-.833 9.672-1.987 3.338-6.263 6.694-14.154 5.276l-.075 26.601h11.58v-15.77s16.237-4.28 16.237-22.529c0-17.46-13.845-21.23-21.288-21.474-4.14-.135-5.643-.317-10.764.425-6.524.945-11.94 8.673-11.802 21.837zm27.759 43.056H44.608V80h11.751V68.81z" fill="#FF678E"/><path opacity=".1" d="M56.359 68.808H44.608V80h11.751V68.81zM28.6 25.752h11.71s0-10.025 10.216-10.205c5.306-.093 8.057 3.45 9.174 6.167 1.298 3.153.904 6.746-.833 9.672-1.987 3.338-6.263 6.694-14.154 5.276l-.075 26.601h11.58v-15.77s16.237-4.28 16.237-22.529c0-17.46-13.845-21.23-21.288-21.474-4.14-.135-5.643-.317-10.764.425-6.524.945-11.94 8.673-11.802 21.837z" fill="#FF678E"/><path d="M23.752 25.751H35.46s0-10.025 10.217-10.205c5.306-.093 8.057 3.45 9.174 6.167 1.297 3.153.904 6.746-.833 9.672-1.987 3.339-6.338 6.374-14.229 4.955v26.923h11.579v-15.77s16.238-4.28 16.238-22.53c0-17.46-15.354-21.515-21.927-21.515-5.026.002-22.148 1.24-21.927 22.303z" fill="#FFB3C7"/><path opacity=".3" d="M23.752 25.751H35.46s0-10.025 10.217-10.205c5.306-.093 8.057 3.45 9.174 6.167 1.297 3.153.904 6.746-.833 9.672-1.987 3.339-6.338 6.374-14.229 4.955v26.923h11.579v-15.77s16.238-4.28 16.238-22.53c0-17.46-15.354-21.515-21.927-21.515-5.026.002-22.148 1.24-21.927 22.303z" fill="#FFB3C7"/><path d="M51.508 68.806H39.757v11.191h11.75v-11.19z" fill="#FFB3C7"/><path opacity=".3" d="M51.508 68.806H39.757v11.191h11.75v-11.19z" fill="#FFB3C7"/><path d="M47 15.603c0 .004-.06 0-.174-.01-.115-.006-.282-.04-.498-.041a9.928 9.928 0 00-1.837.078c-.77.1-1.681.294-2.65.635-.483.178-.983.38-1.476.647a7.223 7.223 0 00-2.626 2.227c-.338.452-.632.913-.886 1.368a12.232 12.232 0 00-1.048 2.562 10.532 10.532 0 00-.39 2.346.95.95 0 01-.015.178 1.02 1.02 0 01-.006-.178c0-.117 0-.29.018-.512a9.8 9.8 0 01.32-1.857c.203-.769.537-1.662 1.036-2.588a12.3 12.3 0 01.888-1.385c.339-.457.73-.908 1.196-1.293a7.827 7.827 0 011.464-.963 10.956 10.956 0 011.492-.647 12.49 12.49 0 012.675-.618c.776-.087 1.413-.087 1.847-.044.219.009.385.05.498.062.114.019.173.031.173.033zm17.641-2.133a.272.272 0 01-.038-.048l-.103-.145c-.094-.134-.222-.32-.386-.558-.085-.12-.172-.258-.28-.4-.113-.14-.235-.29-.364-.454l-.42-.52c-.152-.18-.33-.356-.507-.55-.182-.189-.363-.397-.568-.596l-.654-.604c-.114-.103-.226-.213-.347-.316-.124-.1-.25-.2-.377-.304-.258-.203-.513-.422-.791-.626a25.26 25.26 0 00-3.836-2.312l-1.068-.492-1.063-.42c-.344-.146-.697-.25-1.038-.363-.343-.108-.673-.234-1.008-.315a440.37 440.37 0 01-.969-.26c-.314-.085-.626-.134-.924-.2-.3-.059-.586-.133-.868-.17-.28-.042-.55-.08-.807-.12-.513-.089-.983-.108-1.393-.149-.205-.016-.397-.04-.574-.047a99.206 99.206 0 01-.482-.013c-.284-.01-.509-.016-.67-.023l-.173-.008a.221.221 0 01-.06-.006c0-.002.021-.004.06-.004l.174-.002c.16 0 .385 0 .669.002l.485.004c.176.006.369.025.575.04.412.036.884.049 1.4.134l.808.111c.282.033.57.108.872.164.3.064.612.113.929.196.316.083.64.17.975.256.336.079.667.203 1.011.312.343.114.698.218 1.045.364.348.139.705.277 1.066.42l1.073.494a24.745 24.745 0 013.848 2.328c.28.205.535.428.793.633l.377.306c.121.103.233.215.346.318l.653.61c.205.2.385.411.566.602.176.194.353.374.505.556.146.186.285.361.413.527l.36.459c.102.147.19.285.27.41.159.241.283.433.37.57l.093.149c.024.041.035.06.032.06zm-1.218 25.637a.94.94 0 01-.09.124l-.269.343a11.62 11.62 0 01-.442.53c-.178.202-.373.437-.61.68-.231.247-.485.516-.773.791-.28.283-.596.567-.926.868a28.176 28.176 0 01-2.275 1.803 27.672 27.672 0 01-2.461 1.528c-.394.207-.767.41-1.125.575a19.11 19.11 0 01-1.002.455c-.306.138-.592.242-.84.339-.247.099-.464.173-.642.233l-.41.137a.705.705 0 01-.146.04.656.656 0 01.138-.06c.102-.04.235-.092.404-.156.176-.064.389-.145.634-.25.246-.103.53-.21.831-.354.307-.136.641-.285.992-.465.357-.167.726-.372 1.117-.58a28.911 28.911 0 002.447-1.53 28.88 28.88 0 002.271-1.789c.33-.298.649-.577.928-.858.288-.27.546-.538.78-.78.238-.237.437-.469.617-.667.183-.197.333-.372.455-.517l.285-.329c.074-.076.108-.113.112-.111zM51.162 62.325c-.028 0-.053-3.32-.053-7.416 0-4.097.025-7.418.053-7.418.029 0 .053 3.32.053 7.418 0 4.096-.024 7.416-.053 7.416zm.446 16.913c-.029 0-.053-2.33-.053-5.204 0-2.875.024-5.205.053-5.205.028 0 .052 2.33.052 5.205 0 2.874-.022 5.204-.052 5.204z" fill="#263238"/><path d="M63.138 24.166c-.204.415.554.752.99.887.438.134.904.12 1.358.095.604-.033 1.23-.091 1.756-.397.466-.273.815-.722 1.058-1.21.243-.49.392-1.021.538-1.548 0 0-4.79.32-5.7 2.173z" fill="#E8505B"/><path opacity=".4" d="M63.138 24.166c-.204.415.554.752.99.887.438.134.904.12 1.358.095.604-.033 1.23-.091 1.756-.397.466-.273.815-.722 1.058-1.21.243-.49.392-1.021.538-1.548 0 0-4.79.32-5.7 2.173z" fill="#000"/><path d="M76.672 22.842c.78.569 1.744.877 2.705.867.46-.007.949-.098 1.287-.414.156-.145.274-.333.434-.471.11-.095.237-.168.34-.271.104-.104.181-.25.15-.393-.032-.147-.151-.382-.279-.457-.55-.318-1.206-.306-1.839-.291-.632.014-1.255.165-1.855.37-.49.167-1.004.405-1.253.868" fill="#E8505B"/><path opacity=".4" d="M81.586 22.16c-.032-.147-.231-.341-.359-.416-.55-.318-1.127-.347-1.76-.332-.632.014-1.255.165-1.855.37-.49.167-1.003.405-1.253.868l.312.19a4.54 4.54 0 002.705.866c.46-.006.947-.097 1.287-.413.157-.145.274-.333.434-.471.11-.096.238-.168.34-.271.104-.104.18-.248.149-.391z" fill="#000"/><path d="M67.319 30.263l10.107.134c.089.003.152-.086.126-.173l-1.187-3.771s.175-1.884.416-4.152c.367-3.44.854-7.767.86-7.757-.69-1.976-4.769-2.311-4.769-2.311l-4.649.281-.164-.279-1.338.635c-.292.138-.572.3-.84.482-.882.603-3.012 1.984-3.402 3.526-.898 3.565.623 7.545.623 7.545l.975-.778c.255-.196.497-.368.775-.527l1.958 5.353s-.407.252-.426.686c-.014.436.215.96.935 1.106z" fill="#FFE6EC"/><path opacity=".3" d="M71.651 23.953c.32-1.758.152-3.564-.02-5.343-.561 1.456-.541 3.095-1.135 4.536-.065.155-.136.31-.158.478-.023.168.012.352.135.465.163.151.402.07.619.044.23-.027.353-.108.56-.18z" fill="#000"/><path opacity=".4" d="M67.927 28.023c.815.29 1.674-.246 2.532-.341.568-.062 1.135.07 1.7.163a12.5 12.5 0 003.446.087c.174-.02.355-.046.507-.134.154-.09.275-.335.265-.513-1.908-.2-3.817-.319-5.725-.52-.479-.049-.973-.098-1.432.046-.578.182-1.022.645-1.427 1.1" fill="#000"/><path d="M81.29 21.481c-.826-1.894-3.734-7.137-3.734-7.137l-2.252 2.88.525 5.655s1.19-1.355 4.517-1.381c.775-.007 1.239.665 1.239.665l-.294-.682z" fill="#FFE6EC"/><path d="M67.765 20.476c-.029.008-.199-.546-.38-1.236-.182-.69-.306-1.257-.277-1.266.028-.008.198.546.379 1.237.182.692.306 1.259.278 1.265zm7.369-3.638c.004-.006.08.06.209.18.126.124.306.31.503.563.393.496.874 1.273 1.076 2.245.102.484.118.96.065 1.385-.052.424-.131.796-.182 1.11-.053.315-.085.571-.102.749-.016.178-.02.277-.028.277-.006 0-.016-.1-.012-.28.004-.18.024-.44.069-.756.042-.318.113-.693.16-1.11a4.349 4.349 0 00-.071-1.35c-.197-.95-.657-1.718-1.032-2.22-.377-.511-.669-.776-.655-.793zM73.07 29.811c.002.008-.077.031-.221.066a1.81 1.81 0 01-.264.052c-.103.015-.22.037-.355.043a5 5 0 01-.928-.006 5.893 5.893 0 01-1.115-.227 5.85 5.85 0 01-1.047-.457 5.192 5.192 0 01-.768-.532c-.105-.08-.19-.167-.268-.24a1.83 1.83 0 01-.188-.196c-.1-.111-.15-.175-.146-.18.014-.014.233.234.647.557a5.75 5.75 0 003.807 1.205c.525-.027.842-.105.846-.085zm3.121-1.177c.012-.002.053.11.077.302.024.19.028.466-.055.753a1.31 1.31 0 01-.397.64c-.148.127-.262.166-.268.156-.008-.015.09-.079.217-.211.126-.13.272-.345.347-.616.154-.546.038-1.021.079-1.024zm-.548.729c.026-.006.08.296-.05.637-.128.34-.368.527-.384.504-.022-.023.166-.227.284-.544.122-.314.118-.595.15-.597zm-1.812-6.803c.022.023-.166.238-.36.53-.197.289-.327.545-.356.533-.026-.01.065-.294.268-.594.203-.301.43-.49.448-.469zm-6.936-5.007c-.012.012-.172-.118-.448-.302a5.994 5.994 0 00-1.147-.593 5.952 5.952 0 00-1.247-.319c-.327-.045-.533-.053-.533-.07 0-.012.206-.03.54-.004a4.798 4.798 0 012.428.924c.272.203.415.356.407.364zm10.663-3.28c.02.03-.528.368-1.024.978-.503.604-.74 1.212-.77 1.197-.013-.004.03-.161.141-.4.11-.238.294-.555.548-.865.255-.308.529-.548.742-.699.21-.153.357-.221.363-.21zm-4.176-1.703a1.876 1.876 0 01.14.385c.064.256.099.65-.005 1.12-.105.463-.358 1-.827 1.424-.464.426-1.15.68-1.865.678a3.124 3.124 0 01-1.884-.64 3.654 3.654 0 01-1.036-1.282 3.928 3.928 0 01-.344-1.065 2.804 2.804 0 01-.037-.302.416.416 0 01-.002-.105c.01-.002.022.144.08.4.054.257.16.623.37 1.039.215.409.542.87 1.028 1.236.479.37 1.132.608 1.827.614.693.002 1.352-.24 1.8-.645a2.72 2.72 0 00.82-1.369 2.58 2.58 0 00.036-1.094c-.05-.256-.114-.39-.101-.394z" fill="#263238"/><path opacity=".3" d="M74.093 22.927c-.004-.104-.017-.226-.104-.277-.054-.033-.125-.025-.184.004a.528.528 0 00-.146.124c-.246.27-.418.535-.541.883l.993-.087-.018-.647zm3.299-2.133c-.077-.579-.367-1.11-.72-1.571.428 1.43.284 2.239.044 3.217l.053-.137c.276-.57.7-.93.623-1.51z" fill="#000"/><path d="M75.406 68.853l-.606 9.273-3.953-.048-.623-9.64 5.182.415z" fill="#FFBE9D"/><path d="M74.914 76.906v.269s4.456 1.83 4.503 2.691l-8.852-.053.138-3.002c1.313.628 2.69.707 4.21.095z" fill="#FF678E"/><path d="M71.595 77.777a.366.366 0 00-.251.42.347.347 0 00.405.258c.172-.044.323-.275.266-.445-.059-.171-.294-.306-.45-.221" fill="#fff"/><path d="M70.567 79.813l.033-.721 8.47.314s.394.178.347.459l-8.85-.052zm4.379-2.615c-.002.044-.217.062-.432.203-.217.134-.328.324-.367.308-.04-.008.026-.273.288-.438.26-.168.52-.114.511-.073zm.924.399c.01.043-.178.115-.326.302-.154.181-.19.382-.235.38-.04.006-.069-.252.12-.48.188-.227.442-.244.442-.202zm.521 1.136c-.038.008-.097-.211.015-.453.111-.242.314-.335.332-.3.024.037-.107.165-.197.364-.093.198-.107.384-.15.389zM74.686 1.04c.227-.579-.049-1.282-.541-1.652-.493-.37-1.152-.45-1.756-.351-.604.097-1.172.355-1.731.61a1.974 1.974 0 00-1.993-.49c-.684.227-1.217.868-1.326 1.594a1.255 1.255 0 00-1.229.378c-.302.341-.4.854-.243 1.284l2.74.982 2.991 5.371c.876.761 2.306.74 3.16-.045.853-.786 1.017-2.237.362-3.2.168-.152.308-.334.42-.53.474-.3.845-.765.969-1.323.261-1.18-.645-2.485-1.823-2.628z" fill="#263238"/><path d="M72.872 12.236a225.51 225.51 0 00-.288-1.466s1.616-.64 1.505-2.944c-.055-1.145-.485-2.948-.88-4.414-.357-1.319-1.563-2.772-2.84-2.353l-3.86 1.923c-.388.128-.457.498-.366.904l.006.198 1.503 6.339.634 2.832c.282 1.206 1.417 1.993 2.62 1.815 1.332-.196 2.228-1.49 1.966-2.834z" fill="#FFBE9D"/><path d="M73.184 4.942a.292.292 0 01-.211.345.274.274 0 01-.343-.197.292.292 0 01.211-.345.276.276 0 01.343.197zm-.167-.44c-.026.046-.271-.07-.573-.004-.302.06-.491.267-.532.236-.02-.013.002-.09.084-.18a.8.8 0 01.415-.236.748.748 0 01.467.05c.109.053.154.115.14.134zM70.249 5.63a.292.292 0 01-.211.345.274.274 0 01-.343-.196.292.292 0 01.21-.345.274.274 0 01.344.196zm-.148-.397c-.026.046-.271-.07-.573-.004-.303.06-.491.267-.532.236-.02-.013.002-.089.084-.18a.8.8 0 01.415-.236.748.748 0 01.466.05c.108.054.153.114.14.134zm1.529 1.943c-.004-.017.176-.091.47-.195.075-.024.144-.055.146-.111.006-.06-.043-.139-.1-.221l-.35-.55c-.49-.784-.864-1.435-.833-1.454.03-.02.454.6.944 1.383l.343.554c.047.083.118.174.103.3a.201.201 0 01-.103.143c-.047.027-.09.035-.128.045-.3.08-.488.122-.492.106z" fill="#263238"/><path d="M72.585 10.768s-1.45.412-3.09-.17c0 0 1.06 1.415 3.205.739l-.115-.569z" fill="#EB996E"/><path d="M70.16 4.794c-.02.089-.33.087-.684.176-.354.08-.632.225-.689.155-.026-.033.016-.12.122-.217.105-.097.281-.197.494-.248.213-.052.414-.042.552-.002.138.037.213.095.205.136zm2.742-1.27c-.048.083-.308.064-.604.124-.298.052-.535.163-.608.103-.032-.03-.008-.107.09-.198a.953.953 0 01.468-.22.946.946 0 01.51.038c.116.047.165.112.144.153z" fill="#263238"/><path d="M67.456 1.5c.09.447.381.846.775 1.063a1.52 1.52 0 001.295.07c.32-.132.653-.382.977-.262.343.126.45.591.769.773.454.259 1.001-.19 1.52-.144.402.035.712.353 1.026.61.314.256.75.47 1.105.277-.095-.342-.19-.687-.359-.997-.168-.31-.42-.587-.742-.715-.178-.07-.37-.095-.541-.184-.367-.192-.53-.627-.797-.945a1.657 1.657 0 00-1.42-.581c-.44.045-.855.27-1.295.252-.326-.014-.638-.161-.965-.157-.634.01-1.113.579-1.466 1.117" fill="#263238"/><path d="M69.594 1.975c-.29-.023-.888-.085-1.085-.296-.426-.459-1.062-.699-1.63-.546-.568.153-1.026.734-1.018 1.377-.695.153-1.283.742-1.48 1.482-.197.74.004 1.605.507 2.171.132.15.333.492.333.492s-.262.333-.361.559c-.463 1.046.794 1.447.794 1.447.005.703.64.699 1.047.696.39-.002.632 1.107.95 1.063l-.322-3.424a.373.373 0 00.148.027c.769.015.568-1.468.318-1.852.217-.296.436-.598.576-.945.14-.35.15-1.22.03-1.586.27-.039 1.32-.657 1.193-.665z" fill="#263238"/><path d="M67.444 7.178c-.12-.47-.692-.678-1.047-.356-.194.178-.31.476-.188.974.326 1.331 1.57.722 1.563.682-.002-.022-.189-.75-.328-1.3z" fill="#FFBE9D"/><path d="M67.252 8.077c-.006-.002-.018.022-.052.05a.232.232 0 01-.169.047c-.15-.017-.322-.211-.387-.449a.817.817 0 01-.018-.347c.016-.108.06-.192.128-.221a.12.12 0 01.15.029c.026.033.024.062.032.062.004.002.022-.03-.002-.083a.157.157 0 00-.07-.07.176.176 0 00-.135-.003c-.1.034-.166.151-.186.267a.828.828 0 00.012.39c.075.268.272.483.472.49a.25.25 0 00.199-.088c.032-.041.03-.072.026-.074z" fill="#EB996E"/><path d="M74.445 5.32c-.008-.01.118-.093.284-.3a1.99 1.99 0 00.408-1.033c.022-.236.01-.503-.073-.767a1.64 1.64 0 00-.465-.734 1.877 1.877 0 00-1.863-.37c-.06.02-.117.051-.176.076-.055.029-.108.062-.16.093l-.082.046-.001-.091a.672.672 0 00-.165-.435 1.029 1.029 0 00-.375-.272 1.346 1.346 0 00-.87-.065c-.56.13-1.034.391-1.482.443-.444.058-.813-.054-1.011-.207-.104-.072-.16-.155-.199-.207-.032-.057-.049-.086-.045-.088.01-.009.065.126.266.262.197.137.551.232.98.168.212-.031.44-.11.68-.201.242-.091.501-.198.791-.265.146-.03.298-.055.458-.047.159.008.319.045.473.111.152.067.298.166.413.3a.786.786 0 01.19.505l-.08-.046c.055-.03.111-.068.17-.099.061-.027.122-.06.187-.08a1.965 1.965 0 011.964.396c.241.22.4.505.483.782.083.279.091.556.063.802-.057.494-.274.85-.45 1.052-.09.102-.169.174-.227.213-.053.042-.084.062-.086.058zM74.179.645c-.008.014-.138-.105-.42-.147a1.078 1.078 0 00-.499.046.985.985 0 00-.513.38L72.7.996l-.03-.082c-.165-.447-.643-.87-1.237-.937-.446-.051-.852.153-1.188.35-.341.202-.651.4-.943.496a1.44 1.44 0 01-.714.085.773.773 0 01-.188-.054c-.041-.019-.063-.03-.061-.033.004-.01.091.027.255.043.164.017.406-.006.683-.116.28-.101.576-.3.919-.51a3.19 3.19 0 01.568-.284 1.53 1.53 0 01.68-.088c.638.072 1.144.529 1.31 1.01l-.079-.01c.153-.217.37-.345.568-.4.199-.063.385-.055.53-.028a.953.953 0 01.318.124c.06.052.09.08.089.083z" fill="#455A64"/><path d="M71.511 7.788a.435.435 0 00-.356-.106c-.12.015-.266.122-.343.255l-.006.008-.012.017.004-.005a.253.253 0 00-.039.158c.012.121.104.225.211.279a.46.46 0 00.531-.079c.138-.14.148-.39.01-.527z" fill="#E8505B"/><path d="M71.613 8.43c-.016.004-.037-.062-.09-.149a.672.672 0 00-.281-.256.66.66 0 00-.375-.048c-.1.015-.16.044-.168.03-.008-.011.042-.065.15-.104a.594.594 0 01.742.343c.04.11.034.182.022.184z" fill="#263238"/><path d="M67.476 8.688c.01-.006.058.103-.019.26a.41.41 0 01-.217.199.403.403 0 01-.356-.044.41.41 0 01-.193-.31.429.429 0 01.083-.285c.105-.139.223-.14.223-.128.006.016-.09.047-.16.171a.374.374 0 00-.049.232c.01.087.067.174.152.23a.328.328 0 00.27.04.362.362 0 00.184-.144c.078-.12.063-.221.082-.221z" fill="#E8505B"/><path d="M66.79 8.604c.012.006-.006.07-.095.113a.249.249 0 01-.168.017.278.278 0 01-.187-.35.257.257 0 01.106-.134c.085-.052.148-.03.146-.018.002.016-.051.026-.1.078a.197.197 0 00-.038.238.193.193 0 00.217.097c.07-.012.107-.05.12-.041z" fill="#E8505B"/><path d="M69.022 26.965s5.02.297 7.986.324c2.3.021 3.323-.601 3.781-2.106.385-1.266-.444-3.689-.444-3.689-1.553.009-2.514.228-3.513.705l.265 1.108-8.093.712.018 2.946z" fill="#FFBE9D"/><path d="M78.787 24.491c-.029.019-.264-.43-.758-.767-.489-.345-.986-.405-.978-.438.002-.012.126-.017.323.029a2.15 2.15 0 011.267.882c.113.17.156.29.146.294z" fill="#EB996E"/><path d="M67.183 22.193s-1.553.38-2.693 1.158l1.213 3.361c.405 1.104 1.646 1.646 2.627 1.073 1.527-.889 2.066-3.485 2.066-3.485l1.68-7.418-2.78-1.776-2.113 7.087zm2.114-7.089l.111-2.44-.62-2.47c-.035-.136-.05-.308.056-.39.114-.087.284-.083.376.012.17.178.98 2.346.98 2.346s1.231-.754 1.45-.79c.22-.037.493.64.511.691.017.054.002.453.002.453s.76.023.83.13c.069.106.087.658.087.658s.322.105.373.353c.053.248.156.658.004.749-.152.088-.472.268-.472.268s-.13 1.266-.163 1.381c-.032.116-.746.825-.746.825l-2.78-1.776z" fill="#FFBE9D"/><path d="M66.712 27.836c.004-.006.075.044.233.097.156.054.401.102.716.058a1.978 1.978 0 001.038-.488 4.88 4.88 0 00.965-1.244c.142-.26.27-.546.375-.854.11-.308.18-.643.26-.99l.512-2.244a4760.1 4760.1 0 011.217-5.298l.004-.015.01-.01c.14-.14.28-.284.42-.43.069-.075.137-.15.204-.226.033-.039.067-.078.091-.115.025-.025.025-.075.035-.129.055-.413.097-.841.142-1.271l.002-.027.024-.014.388-.222c.03-.018.073-.039.09-.053a.115.115 0 00.037-.07.69.69 0 00.002-.216 3.515 3.515 0 00-.089-.448c-.05-.126-.189-.215-.322-.265l-.035-.012-.002-.035a4.474 4.474 0 00-.052-.548.44.44 0 00-.023-.077c-.006-.014-.004-.004-.012-.012-.01-.004-.02-.01-.034-.015-.225-.064-.491-.072-.743-.085l-.052-.002.002-.053c.004-.128.01-.271.004-.403.004-.036-.028-.09-.047-.139-.022-.05-.044-.1-.069-.147a1.734 1.734 0 00-.166-.273.496.496 0 00-.103-.103c-.04-.025-.06-.031-.108-.013-.093.034-.19.085-.286.135-.379.2-.746.42-1.107.639l-.052.03-.023-.057-.567-1.45-.278-.709a.295.295 0 00-.223-.212c-.108-.03-.213.006-.264.099a.247.247 0 00-.03.147c.006.045.028.115.04.171l.092.356.18.703c.12.463.237.92.35 1.364l.003.008v.009l-.116 2.44v.005l-.002.007c-.766 2.543-1.4 4.651-1.847 6.128-.223.732-.4 1.308-.52 1.705-.062.192-.108.341-.14.447-.033.101-.053.153-.053.153s.012-.054.038-.155l.128-.451c.115-.399.284-.978.499-1.714l1.81-6.14-.002.01.11-2.44.002.015c-.116-.444-.233-.9-.355-1.364l-.183-.703c-.03-.118-.06-.238-.093-.356-.014-.064-.032-.112-.044-.188a.35.35 0 01.044-.211.308.308 0 01.164-.14.36.36 0 01.21-.007.428.428 0 01.186.097.417.417 0 01.11.178c.09.234.184.472.277.71l.57 1.449-.075-.027c.362-.22.73-.439 1.113-.643.097-.05.19-.102.3-.14.03-.01.059-.021.101-.015a.21.21 0 01.095.039.5.5 0 01.128.126c.071.091.126.19.177.292l.072.153c.019.053.053.097.057.175.006.147 0 .284-.004.416l-.05-.056c.261.014.512.019.774.091.016.004.035.014.053.023.016.008.048.037.052.053.02.04.025.07.033.106.014.066.022.128.028.192.014.126.023.25.027.374l-.037-.05c.156.06.312.154.387.327.05.17.075.315.098.478a.815.815 0 01-.004.252.22.22 0 01-.073.128c-.043.032-.07.042-.104.063l-.389.22.026-.04a46.7 46.7 0 01-.144 1.275l-.012.08a.198.198 0 01-.038.091c-.033.048-.067.087-.1.127a7.702 7.702 0 01-.208.23c-.14.148-.282.29-.422.431l.014-.025-1.23 5.295-.524 2.241c-.08.348-.156.687-.267.997-.11.312-.242.6-.386.862a4.89 4.89 0 01-.987 1.25c-.355.31-.748.447-1.064.484-.32.04-.572-.016-.726-.074a1.144 1.144 0 01-.172-.079c-.043-.026-.063-.037-.061-.039z" fill="#EB996E"/><path d="M72.161 12.513c0 .014-.069.023-.176.029-.108.006-.253.01-.403.05a.785.785 0 00-.345.188c-.075.07-.108.13-.122.124-.012-.005-.004-.079.065-.174a.685.685 0 01.373-.242 1.18 1.18 0 01.434-.02c.112.012.176.03.174.045z" fill="#EB996E"/><path d="M71.566 12.537c-.026-.01-.028-.074-.004-.143.025-.068.067-.115.096-.105.026.01.028.075.004.143-.027.068-.07.115-.096.105zm1.547.75c0 .03-.271.064-.602.085-.164.014-.286.074-.334.163-.053.085-.037.155-.051.16-.01.01-.065-.071-.016-.195a.341.341 0 01.144-.164.643.643 0 01.243-.072c.343-.023.616-.006.616.023zm-.137.743c.029.002.047.155.039.341-.008.188-.039.337-.067.337-.028-.002-.047-.155-.038-.341.008-.188.038-.339.066-.337z" fill="#EB996E"/><path d="M73.817 19.6l.18-.635a.167.167 0 01.284-.072l.235.244.146-.596a.17.17 0 01.319-.033l.332.705-1.496.387zm1.5-.114c.006.029-.314.134-.716.235-.403.102-.734.162-.742.133-.006-.03.314-.135.716-.236.401-.101.734-.161.742-.132zM63.26 15.951c.004.005-.075.079-.18.247a2.151 2.151 0 00-.276.781c-.06.347-.063.771-.037 1.238a27.159 27.159 0 00.543 4.253c.073.347.138.627.183.819.02.085.036.159.053.221.012.052.016.079.016.079s-.01-.025-.024-.077a18.702 18.702 0 01-.255-1.036 24.574 24.574 0 01-.552-4.257c-.025-.467-.019-.895.046-1.246.061-.352.18-.62.29-.784.108-.167.193-.238.193-.238zm4.266-2.81c0 .002-.014.01-.045.025l-.133.064a8.152 8.152 0 00-.485.252 16.78 16.78 0 00-1.523.972c-.578.405-1.093.79-1.466 1.063-.172.124-.32.231-.446.32l-.121.085c-.029.018-.043.029-.045.027 0-.002.012-.013.039-.035.036-.03.075-.058.117-.091l.438-.333c.371-.28.88-.668 1.46-1.073a14.94 14.94 0 011.533-.961 6.44 6.44 0 01.63-.3.76.76 0 01.047-.015zm9.669 1.346c-.002.002-.012-.009-.035-.027a3.8 3.8 0 00-.446-.351c-.31-.216-.772-.458-1.303-.673a12.932 12.932 0 00-1.819-.585l-.118-.03c-.026-.009-.04-.013-.04-.015s.014 0 .042.004a7.902 7.902 0 01.553.124c.366.093.865.244 1.398.461.533.217.997.465 1.303.686.313.222.465.406.465.406zm-9.611 15.78a.281.281 0 01-.08-.027 1.273 1.273 0 01-.2-.11 1 1 0 01-.442-.607 1.21 1.21 0 01.196-.957c.033-.044.055-.064.057-.062.006.004-.073.097-.146.275-.073.175-.13.448-.065.733.061.29.264.486.416.594.156.11.268.153.264.161z" fill="#fff"/><path d="M66.937 28.03c.012-.004.055.113.097.26.043.147.067.269.057.271-.012.004-.054-.114-.097-.26-.043-.145-.067-.267-.057-.271z" fill="#fff"/><path d="M69.679 74.382l6.183-.032-.111-21.803-.057-22.177-8.375-.105-1.507 2.894c-.608 1.168-1.02 2.437-1.157 3.752-.106 1.003.63 4.27.888 5.1l2.305 7.456 1.83 24.915z" fill="#23263B"/><path d="M77.51 30.398l6.795 18.89c.8 2.533.532 5.043-.837 7.38L75.58 72.372l-4.436-5.659 6.602-14.066-5.82-9.614.98-12.613 2.741-.046 1.863.025z" fill="#23263B"/><path d="M75.129 36.728l.01.097.018.285.057 1.096c.044.957.111 2.332.19 4.03l.27 5.974.156 3.53c.039.611.02 1.236.029 1.866l.006 1.925.022 13.308-.006 4.034c-.002.471-.006.841-.006 1.096l-.004.285a1.247 1.247 0 01-.006.097s-.004-.033-.006-.097a25.334 25.334 0 01-.007-.285c-.002-.257-.008-.625-.012-1.096l-.028-4.034-.053-13.308-.006-1.923c-.006-.632.012-1.257-.026-1.866l-.15-3.53-.248-5.974-.158-4.03-.036-1.096c-.002-.122-.006-.217-.008-.285 0-.066.002-.1.002-.1zm-.154-5.958c.008 0 .023.073.043.205.02.133.046.327.073.565a28.457 28.457 0 01.166 3.756c-.006.24-.014.437-.022.571a.844.844 0 01-.025.209c-.016 0-.02-.298-.026-.778a60.044 60.044 0 00-.166-3.748c-.037-.48-.059-.777-.043-.78zm-1.363.428c.01.015-.105.069-.138.236a.273.273 0 00.08.252c.072.07.2.104.303.056.104-.047.16-.17.157-.27a.267.267 0 00-.136-.226c-.146-.085-.262-.031-.266-.048 0-.006.023-.029.073-.043a.34.34 0 01.227.023c.09.039.19.142.199.287a.386.386 0 01-.21.374.377.377 0 01-.417-.082.342.342 0 01-.083-.342.327.327 0 01.132-.19c.045-.029.077-.033.08-.027zm-3.246-.375c.006-.002.03.068.055.198.024.13.04.325.018.563a2.308 2.308 0 01-.233.8c-.14.283-.36.564-.651.781a2.148 2.148 0 01-.935.379 2.156 2.156 0 01-.819-.031 1.913 1.913 0 01-.517-.197c-.113-.066-.168-.111-.166-.118.01-.02.25.153.697.24a2.2 2.2 0 001.677-.362c.562-.415.815-1.054.872-1.503.067-.459-.02-.746.002-.75zm7.957 1.81c0 .01-.154.023-.39-.048a1.788 1.788 0 01-.799-.52 1.85 1.85 0 01-.431-.86c-.045-.247-.019-.402-.008-.4.018 0 .02.151.08.383a1.976 1.976 0 001.18 1.327c.222.083.37.097.368.118zM80.736 53c.008.01-.118.136-.359.29a1.651 1.651 0 01-.462.205c-.184.05-.41.056-.622-.016-.432-.145-.702-.476-.866-.703-.164-.234-.248-.39-.237-.397.012-.01.12.132.296.351.176.213.444.515.839.648.397.134.776-.023 1.014-.154.247-.134.387-.24.397-.225zm-1.546 1.206c-.025.017-.311-.351-.641-.825-.33-.473-.578-.87-.554-.887.024-.016.31.352.64.825.33.471.579.87.554.887z" fill="#455A64"/><path d="M68.799 37.462c-.027.01-.1-.108-.16-.267-.063-.157-.091-.295-.063-.306.026-.01.1.108.16.267.063.157.09.296.063.306zm3.926.57c-.028 0-.053-.103-.053-.229s.025-.23.053-.23c.028 0 .053.104.053.23 0 .128-.023.23-.053.23zm-1.613 2.174c-.028.002-.06-.124-.07-.284-.01-.157.004-.287.034-.289.028-.002.06.124.07.283.009.157-.005.288-.034.29zm-2.946 1.6c-.025.019-.108-.058-.217-.139-.108-.08-.205-.138-.195-.167.008-.027.134-.01.258.08.121.092.176.21.154.226zm5.195 2.022c-.024-.017.006-.108.07-.201.062-.095.131-.16.155-.143.025.017-.006.108-.069.2-.062.098-.131.16-.156.144zm-3.217.57c-.029 0-.053-.172-.053-.38 0-.211.024-.381.053-.381.028 0 .052.172.052.38 0 .21-.024.38-.052.38zm-1.041 2.322c-.016.025-.124-.025-.237-.11-.114-.084-.193-.171-.174-.196.016-.025.123.025.237.11.113.084.19.171.174.196zm3.249.805c.012.027-.055.083-.146.126-.093.041-.178.054-.19.027-.013-.027.054-.083.145-.126.094-.041.179-.054.191-.027zm-2.205 3.773c-.027.013-.132-.147-.234-.357-.103-.211-.166-.393-.14-.406.027-.012.132.147.234.358.103.21.166.39.14.405zm3.588-.339c-.027-.015.02-.153.103-.312.083-.157.17-.275.197-.26.026.014-.02.152-.104.312-.083.157-.17.274-.196.26zm-1.571 3.202c-.03-.004-.028-.167-.059-.361-.028-.195-.08-.35-.052-.362.024-.015.125.132.158.345.032.213-.02.385-.047.378zm-1.682 1.83c-.023.021-.124-.057-.225-.173-.104-.116-.17-.226-.148-.246.022-.02.123.058.225.173.103.116.17.226.148.246zm4.083.693c-.02-.02.055-.132.166-.248.114-.116.221-.194.241-.173.02.02-.054.132-.166.248-.111.115-.22.194-.241.173zm-2.348 2.74c-.029-.004-.029-.161 0-.351.028-.19.075-.342.103-.335.029.004.029.161 0 .351-.028.188-.075.34-.103.335zm-1.581 1.33c-.025.014-.114-.091-.2-.238-.082-.147-.13-.277-.107-.292.025-.014.114.091.2.238.084.145.133.275.107.291zm3.807 1.676c.016.025-.087.13-.231.236-.144.105-.276.172-.292.147-.016-.025.087-.13.231-.236.144-.103.276-.17.292-.147zm-3.171 2.177c-.028-.01.008-.178.025-.382.018-.205.012-.377.04-.38.029-.007.083.169.063.39-.016.221-.101.385-.128.372zm1.265 3.127c-.022.018-.107-.052-.19-.157-.083-.106-.132-.205-.108-.224.023-.018.108.052.191.157.081.104.13.205.107.224zm-1.383 2.094c-.025.017-.136-.105-.25-.275-.113-.17-.186-.318-.162-.334.025-.017.136.105.25.275.113.167.186.318.162.334zm3.814-2.628c-.026-.01-.024-.087.006-.172.03-.085.08-.145.106-.134.026.01.024.087-.006.171-.03.085-.08.145-.106.135zm-1.681 4.993c-.027-.014.024-.161.062-.345.04-.184.057-.34.085-.341.029-.002.061.163.017.364-.04.2-.14.337-.164.322zm1.092-31.951c-.027.012-.092-.07-.144-.186-.053-.116-.075-.22-.049-.232.026-.012.091.07.144.186.055.116.075.22.049.232zm-2.814-6.44c.016.027-.126.142-.278.308-.152.163-.257.316-.284.302-.024-.013.043-.199.207-.377.162-.177.34-.258.355-.233zm2.505-.076c-.028.007-.077-.115-.148-.258-.069-.143-.136-.255-.113-.275.02-.02.132.07.209.227.077.155.08.3.052.306zm-7.804 2.1c-.027-.01 0-.15.063-.306.06-.16.133-.277.16-.267.026.01 0 .149-.063.306-.06.157-.134.277-.16.267zm.253 3.123c-.018.022-.134-.044-.258-.15-.123-.105-.208-.208-.19-.23.018-.024.134.043.257.148.124.105.21.209.19.232zm5.122-7.625c-.026.01-.083-.066-.124-.172-.04-.105-.052-.2-.026-.21.026-.01.083.066.124.171.04.105.053.2.026.21zm4.903 1.526c-.028-.007-.026-.131.006-.28.033-.147.081-.26.11-.254.028.006.026.13-.006.279-.03.147-.081.26-.11.254zm1.152 2.36c-.026-.01.01-.165.081-.344.073-.18.152-.315.18-.304.027.01-.01.165-.08.345-.073.18-.155.314-.181.304zm-.822 1.909c-.026.012-.122-.13-.215-.319-.093-.19-.148-.353-.122-.368.027-.012.122.13.215.319.094.19.148.353.122.368zm1.759 1.906c-.027-.01-.008-.13.044-.267.05-.137.116-.24.142-.23.026.01.008.13-.044.267-.051.139-.116.24-.142.23zm-1.573 1.869c-.024.016-.086-.04-.137-.124-.05-.085-.073-.166-.049-.182.025-.017.087.04.138.124.053.085.075.165.049.182zm.337 3.851c-.022.021-.148-.082-.281-.229-.134-.147-.225-.283-.205-.304.022-.02.148.083.282.23.133.146.225.283.204.303zm2.056-2.212c-.022.019-.134-.087-.247-.234-.114-.146-.187-.28-.164-.3.022-.018.133.087.247.234.114.149.187.283.164.3zm1.132 3.052c-.027-.012.02-.167.103-.347.083-.178.172-.314.199-.3.026.013-.02.168-.104.347-.085.178-.174.315-.198.3zm-2.401 2.513c-.027.017-.12-.099-.252-.22-.13-.123-.25-.21-.235-.239.012-.027.164.023.308.157.142.137.203.288.179.302zm.146 2.593c0 .03-.101.054-.225.054-.123 0-.225-.025-.225-.054 0-.029.102-.053.225-.053.126 0 .225.022.225.053zm2.471-.726c-.026-.017.027-.145.065-.308.04-.161.055-.3.085-.302.029-.004.063.149.019.329-.045.181-.146.297-.169.28zm2.451.87c-.028.01-.103-.135-.166-.323-.065-.188-.095-.35-.067-.36.029-.01.102.135.167.323.062.188.093.35.066.36zm-.39 3.557c-.026-.015.036-.189.14-.387.103-.2.207-.352.233-.337.026.014-.037.188-.14.387-.103.198-.207.349-.233.337zm-2.238 2.089c-.027.01-.11-.132-.187-.32-.075-.188-.116-.35-.09-.362.027-.01.11.132.187.32.075.189.116.35.09.362zm-2.479.804c0 .03-.083.054-.186.054-.104 0-.187-.025-.187-.054 0-.028.083-.053.187-.053.103 0 .186.025.186.053zm1.422 3.318c-.028.008-.085-.114-.126-.273-.04-.157-.052-.292-.024-.3.028-.008.085.114.126.273.042.16.052.294.024.3zm-1.795-1.106c-.024-.014.004-.114.067-.219s.132-.178.158-.163c.025.014-.004.113-.067.219-.063.105-.134.178-.158.163zm-.038 3.659c-.028.004-.069-.139-.09-.319-.02-.18-.013-.326.015-.33.028-.005.069.138.09.318.021.18.015.326-.015.33z" fill="#FAFAFA"/></g><defs><clipPath id="clip0_3314_6978"><path fill="#fff" transform="translate(.96)" d="M0 0h106.58v79.439H0z"/></clipPath></defs></svg>