<svg width="130" height="196" fill="none" xmlns="http://www.w3.org/2000/svg"><path d="M55.514 63.43c7.963 7.564 18.728 12.205 30.577 12.205 24.527 0 44.409-19.884 44.409-44.412 0-12.172-4.896-23.2-12.827-31.223l-62.16 63.43z" fill="#23263B"/><mask id="a" style="mask-type:alpha" maskUnits="userSpaceOnUse" x="0" y="56" width="70" height="71"><ellipse cx="35.233" cy="91.515" rx="34.736" ry="34.733" transform="rotate(-90 35.233 91.515)" fill="#C4C4C4"/></mask><g mask="url(#a)"><ellipse cx="35.233" cy="91.515" rx="34.736" ry="34.733" transform="rotate(-90 35.233 91.515)" fill="#FFDFB3"/><path d="M69.318 134.19l-88.665-86.76 1.04-1.063 88.666 86.759-1.04 1.064zm25.305-19.35L5.957 28.081l1.041-1.064 88.666 86.759-1.041 1.064zm-23.766 14.54L-17.81 42.621l1.041-1.064 88.666 86.759-1.041 1.064zm25.305-19.353L7.496 23.268l1.042-1.064 88.665 86.759-1.041 1.064zm-23.766 14.544l-88.666-86.76 1.041-1.063 88.666 86.759-1.04 1.064zm25.305-19.353L9.035 18.458l1.041-1.064 88.666 86.76-1.041 1.064zm-23.766 14.543l-88.666-86.759 1.041-1.064 88.666 86.759-1.041 1.064zm25.305-19.353l-88.665-86.76 1.04-1.063 88.666 86.76-1.04 1.063zM75.474 114.95l-88.666-86.76 1.042-1.063 88.665 86.759-1.041 1.064zm25.305-19.353L12.114 8.837l1.04-1.064 88.666 86.76-1.041 1.064zm-23.766 14.542l-88.666-86.76 1.041-1.064 88.666 86.76-1.041 1.064zm25.306-19.353L13.653 4.026l1.041-1.064 88.666 86.76-1.041 1.064zm-23.767 14.543l-88.666-86.76 1.041-1.063 88.666 86.759-1.041 1.064zm25.305-19.353L15.192-.784l1.04-1.063 88.666 86.759-1.041 1.064z" fill="#FF80A1"/></g><path d="M130.273 69.155a64.338 64.338 0 00-6.117-.291c-35.104 0-63.562 28.46-63.562 63.568S89.052 196 124.156 196c2.064 0 4.104-.098 6.117-.291V69.155z" fill="#FFAEA0"/></svg>