<svg width="163" height="121" fill="none" xmlns="http://www.w3.org/2000/svg"><path d="M1.372.85C1.694 20.748 9.356 40.56 24.4 55.886c31.14 31.724 82.116 32.213 113.859 1.093C154.011 41.535 162.067 21.21 162.38.774L1.372.851z" fill="#23263B"/><mask id="a" style="mask-type:alpha" maskUnits="userSpaceOnUse" x="82" y="40" width="81" height="81"><circle cx="122.5" cy="80.5" r="40.5" fill="#C4C4C4"/></mask><g mask="url(#a)"><circle cx="122.5" cy="80.5" r="40.5" fill="#FFE0B3"/><path d="M72.743 120.245L173.899 16.857l1.24 1.214L73.983 121.46l-1.24-1.214zm22.564 29.507L196.463 46.364l1.241 1.214L96.548 150.966l-1.24-1.214zM78.352 122.04L179.507 18.652l1.241 1.214L79.592 123.254l-1.24-1.214zm22.564 29.507L202.072 48.159l1.24 1.214-101.156 103.388-1.24-1.214zM83.96 123.834L185.116 20.447l1.24 1.214L85.201 125.048l-1.241-1.214zm22.564 29.507L207.68 49.954l1.241 1.213-101.156 103.388-1.241-1.214zm-16.956-27.712L190.724 22.241l1.241 1.214L90.809 126.843l-1.24-1.214zm22.565 29.507L213.289 51.749l1.24 1.213L113.373 156.35l-1.24-1.214zm-16.956-27.712L196.333 24.036l1.24 1.214L96.417 128.638l-1.24-1.214zm22.564 29.507L218.897 53.543l1.241 1.214-101.156 103.388-1.241-1.214zm-16.956-27.713L201.941 25.831l1.241 1.214-101.156 103.387-1.241-1.214zm22.565 29.507L224.506 55.338l1.24 1.213L124.59 159.94l-1.24-1.214zm-16.956-27.712L207.55 27.625l1.24 1.214-101.155 103.388-1.241-1.214zm22.564 29.507L230.114 57.132l1.241 1.214-101.156 103.388-1.241-1.214z" fill="#FF80A1"/></g></svg>