<svg width="25" height="24" fill="none" xmlns="http://www.w3.org/2000/svg"><path d="M11.2.843C11.47.28 11.903 0 12.5 0c.598 0 1.03.281 1.3.843l2.912 6.18 6.542 1.03c.598.063.986.391 1.165.984.18.593.06 1.108-.358 1.545l-4.75 4.823 1.12 6.837c.09.593-.104 1.061-.582 1.405-.478.374-.971.421-1.479.14l-5.87-3.184-5.87 3.184c-.508.312-1 .281-1.479-.093-.478-.375-.672-.859-.582-1.452l1.12-6.837-4.75-4.822C.521 10.144.401 9.63.581 9.037c.179-.593.567-.92 1.165-.983l6.542-1.03L11.2.843z" fill="#FF678E"/></svg>