<svg xmlns="http://www.w3.org/2000/svg" width="32" height="32" viewBox="0 0 24 24" fill="#FFF"><path d="M23.047 23.047a2.2 2.2 0 00.643-1.555V2.198A2.198 2.198 0 0021.492 0H2.198A2.198 2.198 0 000 2.198v19.294a2.198 2.198 0 002.198 2.198h19.294c.583 0 1.142-.231 1.555-.643zM17.149 4.808c.47.163.967.226 1.462.185.12-.003.148.025.16.157v2.743c0 .104-.034.138-.126.154a5.331 5.331 0 01-1.976 0c-.13-.025-.148.012-.148.129v6.415a5.796 5.796 0 11-4.282-5.575c.068.019.117.034.117.126v3.187c-.043.01-.07-.013-.094-.034a2.77 2.77 0 101.248 2.287V3.18h3.002c.021.261.021.523.021.782a.924.924 0 00.616.846z"/></svg>