<svg xmlns="http://www.w3.org/2000/svg" width="32" height="32" viewBox="0 0 24 24" fill="#FFF"><path d="M23.05 23.057a2.2 2.2 0 00.646-1.554L23.702 2.2a2.202 2.202 0 00-2.2-2.2H2.198A2.199 2.199 0 000 2.2v19.303a2.199 2.199 0 002.196 2.199h19.3a2.203 2.203 0 001.554-.645zM2.974 17.77c-1.02-1.022-.949-10.886 0-11.835.951-.951 16.731-1.02 17.754 0 1.022 1.02.951 10.884 0 11.835-.952.952-16.735 1.023-17.754 0zm7.671-3.233l3.572-2.06a.669.669 0 000-1.162l-3.572-2.06a.665.665 0 00-.998.576v4.13a.665.665 0 00.998.576z"/></svg>