<svg xmlns="http://www.w3.org/2000/svg" width="32" height="32" viewBox="0 0 24 24" fill="#FFF"><path d="M23.2.8c-.4-.4-1-.6-1.6-.6H2.4C1.8.2 1.3.4.8.8c-.4.4-.6 1-.6 1.6v19.3c0 .6.2 1.1.6 1.6.4.4 1 .6 1.6.6h19.3c.6 0 1.1-.2 1.6-.6.4-.4.6-1 .6-1.6V2.4c-.1-.6-.3-1.2-.7-1.6zM19.6 8v.5c0 5.2-4 11.2-11.2 11.2-2.2 0-4.3-.6-6.1-1.8h1c1.8 0 3.5-.6 4.9-1.7-1.7 0-3.2-1.2-3.7-2.7.2 0 .5.1.7.1.4 0 .7 0 1-.1-1.8-.4-3.2-2-3.2-3.9.5.3 1.1.5 1.8.5-1-.7-1.7-1.9-1.7-3.2 0-.7.2-1.4.5-2 1.9 2.4 4.9 4 8.1 4.1-.1-.3-.1-.6-.1-.9 0-2.2 1.8-3.9 3.9-3.9 1.1 0 2.2.5 2.9 1.2.9-.2 1.7-.5 2.5-1-.3.9-.9 1.7-1.7 2.2.8-.1 1.6-.3 2.3-.6-.5.8-1.2 1.5-1.9 2z"/></svg>