<svg xmlns="http://www.w3.org/2000/svg" width="32" height="32" viewBox="0 0 24 24" fill="#FFF"><path d="M23.2.8c-.4-.4-1-.6-1.6-.6H2.3C1.7.2 1.2.4.7.8c-.4.4-.6 1-.6 1.6v19.3c0 .6.2 1.1.6 1.6.4.4 1 .6 1.6.6h19.3c.6 0 1.1-.2 1.6-.6.4-.4.6-1 .6-1.6V2.4c0-.6-.2-1.2-.6-1.6zM7 20.6H3.3V9.3H7v11.3zM5.2 7.7c-1.3 0-2.1-.8-2.1-1.9 0-1.1.8-1.9 2.1-1.9s2.1.9 2.1 1.9c0 1.1-.8 1.9-2.1 1.9zm15.4 12.9h-3.7v-6c0-1.5-.5-2.5-1.9-2.5-.4 0-.8.1-1.2.4-.3.2-.6.6-.7 1-.1.3-.1.6-.1.9v6.3H9.1s.1-10.2 0-11.3h3.7V11c.3-.6.8-1.1 1.4-1.4.6-.3 1.3-.5 2-.5 2.5 0 4.3 1.6 4.3 5.1v6.4z"/></svg>